<?xml version='1.0' encoding='utf-8'?>
<svg xmlns="http://www.w3.org/2000/svg" width="1920" height="1080" viewBox="0 0 1920 1080" data-theme="light">
  <style>
        @font-face {
            font-family: 'Inter';
            src: url('assets/fonts/Inter-Regular.ttf') format('truetype');
            font-weight: 400;
            font-style: normal;
            font-display: swap;
        }
        @font-face {
            font-family: 'Inter';
            src: url('assets/fonts/Inter-Bold.ttf') format('truetype');
            font-weight: 600;
            font-style: normal;
            font-display: swap;
        }
        @font-face {
            font-family: 'Inter';
            src: url('assets/fonts/Inter-Bold.ttf') format('truetype');
            font-weight: 800;
            font-style: normal;
            font-display: swap;
        }
        
:root {
    --background: #f8fafc;
    --panel: #ffffff;
    --primary-text: #0f172a;
    --muted-text: #64748b;
    --inverse-text: #ffffff;
    --border: #e2e8f0;
    --shadow-color: #000000;
    --icon-pad-bg: #1e293b;
    --art-glow: #0891b2;
    --art-glow-opacity: 0.10;
    --art-sheen: #ffffff;
    --art-sheen-opacity: 0.34;
    --art-shadow: #0f172a;
    --art-shadow-opacity: 0.14;
    --art-muted-line: #94a3b8;
    --art-panel-tint: #f1f5f9;
    --font-family: 'Inter', 'Segoe UI', 'Kalam', Roboto, Helvetica, Arial, sans-serif;
    --radius-xl: 16px;
    --font-family-headline: 'Inter', 'Segoe UI', 'Kalam', Roboto, Helvetica, Arial, sans-serif;
    --font-family-body: 'Inter', 'Segoe UI', 'Kalam', Roboto, Helvetica, Arial, sans-serif;
    --font-heading: 'Inter', 'Segoe UI', 'Kalam', Roboto, Helvetica, Arial, sans-serif;
    --font-body: 'Inter', 'Segoe UI', 'Kalam', Roboto, Helvetica, Arial, sans-serif;
    --font-size-h1: 56px;
    --font-size-h2: 40px;
    --font-size-h3: 28px;
    --font-size-body: 24px;
    --font-size-caption: 18px;
    --secondary-text: var(--muted-text);
    --panel-border: var(--border);
    --font-weight-normal: 400;
    --font-weight-medium: 500;
    --font-weight-semibold: 600;
    --font-weight-bold: 700;
    --spacing-gutter-pct: 0.07;
    --spacing-top-pct: 0.15;
    --spacing-bottom-pct: 0.07;
    --spacing-title-y-pct: 0.055;
    --accent-1: #2563eb;
    --accent-2: #16a34a;
    --accent-3: #ea580c;
    --accent-4: #7c3aed;
    --accent-5: #0284c7;
    --accent-6: #475569;
}
:root[data-theme="dark"] {
    --background: #0f172a;
    --panel: #1e293b;
    --primary-text: #f1f5f9;
    --muted-text: #94a3b8;
    --inverse-text: #0f172a;
    --border: #334155;
    --shadow-color: #000000;
    --icon-pad-bg: #1e293b;
    --art-glow: #7dd3fc;
    --art-glow-opacity: 0.18;
    --art-sheen: #ffffff;
    --art-sheen-opacity: 0.18;
    --art-shadow: #000000;
    --art-shadow-opacity: 0.28;
    --art-muted-line: #64748b;
    --art-panel-tint: #1e293b;
    --accent-1: #60a5fa;
    --accent-2: #4ade80;
    --accent-3: #f97316;
    --accent-4: #a78bfa;
    --accent-5: #38bdf8;
    --accent-6: #94a3b8;
}
:root[data-theme="light"] {
    --background: #f8fafc;
    --panel: #ffffff;
    --primary-text: #0f172a;
    --muted-text: #64748b;
    --inverse-text: #ffffff;
    --border: #e2e8f0;
    --shadow-color: #000000;
    --icon-pad-bg: #1e293b;
    --art-glow: #0891b2;
    --art-glow-opacity: 0.10;
    --art-sheen: #ffffff;
    --art-sheen-opacity: 0.34;
    --art-shadow: #0f172a;
    --art-shadow-opacity: 0.14;
    --art-muted-line: #94a3b8;
    --art-panel-tint: #f1f5f9;
    --accent-1: #2563eb;
    --accent-2: #16a34a;
    --accent-3: #ea580c;
    --accent-4: #7c3aed;
    --accent-5: #0284c7;
    --accent-6: #475569;
}</style>
  <rect x="0" y="0" width="1.92E+3" height="1.08E+3" fill="#252a34" stroke="none" id="programmatic_background"/>
  <line id="HEADER_DECOR" x1="960.0" x2="1080.0" y1="135.0" y2="135.0" stroke="var(--accent-1)" stroke-width="6" stroke-linecap="round"/>
  <defs>
    <pattern id="svg3948c3a4-napkin-hatch" patternUnits="userSpaceOnUse" width="12" height="12">
      <path d="M -3 12 L 12 -3 M 0 15 L 15 0" fill="none" stroke="var(--primary-text)" stroke-width="1" stroke-opacity="0.05"/>
    </pattern>
    <filter id="svg3948c3a4-shadow" x="-30%" y="-30%" width="160%" height="160%">
      <feDropShadow dx="0" dy="2" stdDeviation="3" flood-color="#000000" flood-opacity="0.08"/>
      <feDropShadow dx="0" dy="6" stdDeviation="10" flood-color="#000000" flood-opacity="0.12"/>
    </filter>
    <radialGradient id="svg3948c3a4-universal-edge-vignette" cx="50%" cy="50%" r="72%">
      <stop offset="0%" stop-color="var(--background)" stop-opacity="0"/>
      <stop offset="72%" stop-color="var(--background)" stop-opacity="0.12"/>
      <stop offset="100%" stop-color="var(--primary-text)" stop-opacity="0.08"/>
    </radialGradient>
    <linearGradient id="svg3948c3a4-universal-surface-sheen" x1="0%" y1="0%" x2="100%" y2="100%">
      <stop offset="0%" stop-color="var(--art-sheen)" stop-opacity="var(--art-sheen-opacity)"/>
      <stop offset="46%" stop-color="var(--art-sheen)" stop-opacity="0.035"/>
      <stop offset="100%" stop-color="var(--art-panel-tint)" stop-opacity="0.14"/>
    </linearGradient>
    <radialGradient id="svg3948c3a4-universal-icon-aura" cx="50%" cy="42%" r="64%">
      <stop offset="0%" stop-color="var(--art-glow)" stop-opacity="var(--art-glow-opacity)"/>
      <stop offset="100%" stop-color="var(--background)" stop-opacity="0"/>
    </radialGradient>
    <linearGradient id="svg3948c3a4-fact-card-sheen" x1="0%" y1="0%" x2="100%" y2="100%">
      <stop offset="0%" stop-color="var(--inverse-text)" stop-opacity="0.18"/>
      <stop offset="54%" stop-color="var(--inverse-text)" stop-opacity="0.04"/>
      <stop offset="100%" stop-color="var(--background)" stop-opacity="0.14"/>
    </linearGradient>
    <radialGradient id="svg3948c3a4-fact-icon-glow" cx="50%" cy="42%" r="62%">
      <stop offset="0%" stop-color="var(--inverse-text)" stop-opacity="0.22"/>
      <stop offset="100%" stop-color="var(--background)" stop-opacity="0"/>
    </radialGradient>
    <filter id="svg3948c3a4-text-glow" x="-20%" y="-20%" width="140%" height="140%">
      <feDropShadow dx="0" dy="0" stdDeviation="2" flood-color="#000000" flood-opacity="0.4"/>
    </filter>
    <marker id="svg3948c3a4-arrowhead" markerWidth="10" markerHeight="7" refX="9" refY="3.5" orient="auto" markerUnits="strokeWidth">
      <polygon points="0 0, 10 3.5, 0 7" fill="var(--muted-text)" opacity="0.6"/>
    </marker>
  </defs>
  <rect width="100%" height="100%" fill="var(--background)" id="CANVAS_BG"/>
  <rect width="100%" height="100%" fill="url(#svg3948c3a4-napkin-hatch)"/>
  <rect id="UNIVERSAL_EDGE_VIGNETTE" width="100%" height="100%" fill="url(#svg3948c3a4-universal-edge-vignette)" opacity="0.62"/>
  <line x1="960" y1="178" x2="960" y2="986" stroke="var(--muted-text)" stroke-width="5" stroke-opacity="0.10" stroke-linecap="round"/>
  <path d="M 360 178 C 620 152 1300 152 1560 178" fill="none" stroke="var(--primary-text)" stroke-width="2" stroke-opacity="0.12" stroke-linecap="round"/>
  <text id="TITLE" x="960.0" y="59" text-anchor="middle" font-weight="800" font-size="72" fill="#0f172a" style="font-size: 60px; font-family: Inter, Segoe UI, Kalam, Roboto, Helvetica, Arial, sans-serif; font-weight: 700; letter-spacing:-1.2px;" data-final-font-size="60">
    <tspan x="960.0" dy="68.00px">Matsieng Footprints Archaeological Analysis</tspan>
  </text>
  <rect id="TITLE_FRAME" x="134" y="59" width="1652" height="103" fill="none"/>
  <g transform="translate(960.0, 250.0)">
    <rect id="ITEM_1_BG" x="-600" y="-72" width="1200" height="176" rx="24" fill="var(--accent-2)" stroke="var(--accent-1)" filter="url(#svg3948c3a4-shadow)" stroke-width="3" fill-opacity="1.0"/>
    <g transform="translate(-480.0, 0.0)">
      <circle r="60" fill="var(--background)" opacity="0.3"/>
      <circle id="ITEM_1_PAD" cx="0" cy="0" r="50" fill="var(--icon-pad-bg)" stroke="var(--primary-text)" opacity="0.9" fill-opacity="0.9" stroke-width="2"/>
      <circle id="ITEM_1_PAD_INNER" cx="0" cy="0" r="39.00" fill="var(--accent-2)" fill-opacity="0.22"/>
      <circle cx="0" cy="0" r="40" fill="none" stroke="var(--accent-1)" stroke-width="3" stroke-dasharray="6 4"/>
      <g id="ITEM_1_ICON" transform="translate(-39, -39)" data-icon-size="78" stroke-dasharray="6 4">
        <g transform="translate(-7.222222222222221,-7.222222222222221) scale(3.8518518518518516)" vector-effect="non-scaling-stroke" stroke-width="2.65" stroke-linecap="round" stroke-linejoin="round" stroke-opacity="1.0">
          <path d="M14 14l1.5 1.5" vector-effect="non-scaling-stroke" fill="none" stroke="#f1f5f9"/>
          <path d="M18.347 15.575l2.08 2.079a1.96 1.96 0 0 1 -2.773 2.772l-2.08 -2.079a1.96 1.96 0 0 1 2.773 -2.772z" vector-effect="non-scaling-stroke" fill="none" stroke="#f1f5f9"/>
          <path d="M3 6l3 -3l7.414 7.414a2 2 0 0 1 .586 1.414v2.172h-2.172a2 2 0 0 1 -1.414 -.586l-7.414 -7.414z" vector-effect="non-scaling-stroke" fill="none" stroke="#f1f5f9"/>
        </g>
      </g>
    </g>
    <g transform="translate(-330, -36)">
      <text id="ITEM_1_HEAD" text-anchor="start" font-weight="bold" font-size="34" fill="var(--primary-text)" x="0.0" y="-10.0" data-bg-id="ITEM_1_BG" fill-opacity="1.0" style="font-size: 30px; font-family: Inter, Segoe UI, Kalam, Roboto, Helvetica, Arial, sans-serif; font-weight: 700; letter-spacing:-0.4px;" data-final-font-size="30">
        <tspan x="0.0" dy="30.25px">Visible Engravings</tspan>
      </text>
      <rect id="ITEM_1_HEAD_FRAME" x="0" y="-10" width="846" height="44" fill="none"/>
      <text id="ITEM_1_BODY" text-anchor="start" font-size="24" fill="var(--primary-text)" x="0.0" y="24.0" data-bg-id="ITEM_1_BG" style="font-size: 26px; font-family: Inter, Segoe UI, Kalam, Roboto, Helvetica, Arial, sans-serif; font-weight: 400;" data-final-font-size="26">
        <tspan x="0.0" dy="31.62px">Over one hundred human and feline-like prints exist</tspan>
      </text>
      <rect id="ITEM_1_BODY_FRAME" x="0" y="24" width="846" height="84" fill="none"/>
    </g>
  </g>
  <g transform="translate(960.0, 465.0)">
    <rect id="ITEM_2_BG" x="-600" y="-72" width="1200" height="176" rx="24" fill="var(--accent-3)" stroke="var(--accent-2)" filter="url(#svg3948c3a4-shadow)" stroke-width="3" fill-opacity="1.0"/>
    <g transform="translate(-480.0, 0.0)">
      <circle r="60" fill="var(--background)" opacity="0.3"/>
      <circle id="ITEM_2_PAD" cx="0" cy="0" r="50" fill="var(--icon-pad-bg)" stroke="var(--primary-text)" opacity="0.9" fill-opacity="0.9" stroke-width="2"/>
      <circle id="ITEM_2_PAD_INNER" cx="0" cy="0" r="39.00" fill="var(--accent-3)" fill-opacity="0.22"/>
      <circle cx="0" cy="0" r="40" fill="none" stroke="var(--accent-1)" stroke-width="3" stroke-dasharray="6 4"/>
      <g id="ITEM_2_ICON" transform="translate(-39, -39)" data-icon-size="78" stroke-dasharray="6 4">
        <g transform="translate(-6.267857142857142,-5.571428571428571) scale(2.7857142857142856)">
          <path d="M6 2.90283V4.37998H7V2.90283C7 2.62283 6.78 2.40283 6.5 2.40283C6.23 2.40283 6 2.62283 6 2.90283Z" fill="#FF822D"/>
          <path d="M25.27 22.27L26.54 23.54C26.83 23.83 27 24.23 27 24.64V29.74C27 29.88 26.89 29.99 26.75 29.99H25.25C25.11 30 25 29.89 25 29.75V26.35C25 26.15 24.91 25.97 24.75 25.85L21 23V19.53H25V21.61C25 21.86 25.1 22.1 25.27 22.27Z" fill="#FF822D"/>
          <path d="M16.75 30H15.25C15.11 30 15 29.89 15 29.75V25.58C15 25.44 14.95 25.3 14.86 25.18L12.23 21.98L13.78 20.71L16.65 24.21C16.87 24.49 17 24.84 17 25.2V29.75C17 29.89 16.89 30 16.75 30Z" fill="#FF822D"/>
          <path d="M7.99998 2.875V4H6.58998C5.64998 4 4.83998 4.64 4.61998 5.54C4.54998 5.81 4.29998 6 4.02998 6H3.99998L3.26672 7.00288L3.99998 8H5.44617L7.85999 18.85C8.18 20.32 9.30999 21.5 10.76 21.87C10.9 21.91 11 22.03 11 22.17V24.41C11 24.53 10.98 24.65 10.93 24.76L8.92999 29.65C8.86999 29.82 8.98999 30 9.15999 30H10.8C10.9 30 10.99 29.94 11.03 29.84L12.82 25.45C12.94 25.15 13 24.83 13 24.51V22.31C13 22.14 13.14 22 13.31 22H19.69C19.86 22 20 22.14 20 22.31V25.7C20 25.89 19.95 26.09 19.87 26.26L18.18 29.63C18.1 29.8 18.22 30 18.4 30H19.75C19.91 30 20.06 29.93 20.15 29.8L22.5 26.67C22.82 26.24 23 25.71 23 25.17V22.38C23 22.17 23.17 22 23.38 22C24.28 22 25 21.27 25 20.38V17.75L24.9999 17.7295L26.66 19.54C27.52 20.43 28 21.59 28 22.83V24H29.01V22.83C29.01 21.33 28.43 19.91 27.38 18.84L24.07 15.26L24.0636 15.2716C23.3763 14.492 22.3702 14 21.25 14H11.91C11.32 14 10.82 13.59 10.69 13.02L9.01999 5.5H9.49998C10.16 5.5 10.73 5.07 10.92 4.47C11 4.24 10.83 4 10.58 4H8.99998V2.875C8.99998 2.595 8.76998 2.375 8.49998 2.375C8.21998 2.375 7.99998 2.595 7.99998 2.875Z" fill="#FFB02E"/>
          <path d="M6 2.5C6 2.22 6.23 2 6.5 2C6.78 2 7 2.22 7 2.5V3H6V2.5Z" fill="#636363"/>
          <path d="M8 2.5C8 2.22 8.22 2 8.5 2C8.77 2 9 2.22 9 2.5V3H8V2.5Z" fill="#636363"/>
          <path d="M6.5 6.94C6.22 6.94 6 6.72 6 6.44V6.06C6 5.78 6.22 5.56 6.5 5.56C6.78 5.56 7 5.78 7 6.06V6.44C7 6.72 6.77 6.94 6.5 6.94Z" fill="#1C1C1C"/>
          <path d="M4 6C3.45 6 3 6.45 3 7C3 7.55 3.45 8 4 8V6Z" fill="#D3883E"/>
          <path d="M7.83999 8.34002C8.06643 8.34002 8.24999 8.15646 8.24999 7.93002C8.24999 7.70358 8.06643 7.52002 7.83999 7.52002C7.61356 7.52002 7.42999 7.70358 7.42999 7.93002C7.42999 8.15646 7.61356 8.34002 7.83999 8.34002Z" fill="#D3883E"/>
          <path d="M6.85003 10.9L6.49003 9.3C6.46003 9.15 6.58003 9 6.74003 9H7.28003C7.41003 9 7.53003 9.11 7.52003 9.25V10.88C7.52003 10.94 7.47003 11 7.40003 11H6.97003C6.91003 11 6.86003 10.96 6.85003 10.9Z" fill="#D3883E"/>
          <path d="M8.99 9.2L9.77 12.72C9.8 12.88 9.69 13.02 9.53 13.02H8.25C8.11 13.02 8 12.91 8 12.77V9.25C8 9.11 8.11 9 8.25 9H8.75C8.87 9 8.97 9.08 8.99 9.2Z" fill="#D3883E"/>
          <path d="M17 15.25V17.75C17 17.89 17.11 18 17.25 18H19.75C19.89 18 20 17.89 20 17.75V17.1C20 17.03 19.97 16.97 19.93 16.92L18.08 15.07C18.03 15.03 17.96 15 17.9 15H17.25C17.11 15 17 15.11 17 15.25Z" fill="#D3883E"/>
          <path d="M19.6 15H21.75C21.89 15 22 15.11 22 15.25V17.4C22 17.62 21.73 17.73 21.57 17.58L19.42 15.43C19.27 15.27 19.38 15 19.6 15Z" fill="#D3883E"/>
          <path d="M17.25 18.67H21.75C21.89 18.67 22 18.78 22.01 18.93V19.88C22.01 20.02 21.9 20.13 21.76 20.13H20.03C20 20.13 19.98 20.13 19.95 20.14L17.33 21.02C17.17 21.07 17 20.95 17 20.78V18.92C17 18.78 17.11 18.67 17.25 18.67Z" fill="#D3883E"/>
          <path d="M9.38001 18.91C9.45001 19.18 9.70001 19.38 9.99001 19.38H13.82C13.93 19.38 14.01 19.29 14.01 19.19V17.21C14.01 17.08 13.95 16.95 13.86 16.86L13.15 16.15C13.06 16.05 12.93 16 12.8 16H10.53C10.45 16 10.38 15.95 10.35 15.89L10.08 15.2C10.03 15.08 9.92001 15 9.79001 15H8.74001C8.62001 15 8.53001 15.11 8.56001 15.24C8.63803 15.5521 8.78501 16.228 8.93949 16.9384C9.10179 17.6847 9.27243 18.4694 9.38001 18.91Z" fill="#D3883E"/>
          <path d="M14.07 16.07L14.92 16.92C14.97 16.97 15.04 17 15.1 17H16.18C16.32 17 16.43 16.89 16.43 16.75V15.25C16.43 15.11 16.32 15 16.18 15H14.24C14.11 15 14 15.11 14 15.25V15.9C14 15.96 14.03 16.03 14.07 16.07Z" fill="#D3883E"/>
          <path d="M11.91 14H13V15.1C13 15.24 12.89 15.35 12.75 15.35H11.25C11.11 15.35 11 15.24 11 15.1V13.6C11.23 13.85 11.56 14 11.91 14Z" fill="#D3883E"/>
          <path d="M16.19 20.99H15.25C15.11 20.99 15 20.88 15 20.74V18.25C15 18.11 15.11 18 15.25 18H16.19C16.33 18 16.44 18.11 16.44 18.25V20.74C16.44 20.88 16.33 20.99 16.19 20.99Z" fill="#D3883E"/>
          <path d="M9.81 14.49H8.19C8.09 14.49 8 14.41 8 14.3V13.73C8 13.63 8.08 13.54 8.19 13.54H9.81C9.91 13.54 10 13.62 10 13.73V14.3C10 14.41 9.92 14.49 9.81 14.49Z" fill="#D3883E"/>
          <path d="M13.82 20H10.46C10.29 20 10.2 20.2 10.32 20.33L10.89 20.89C10.96 20.96 11.05 21 11.15 21H13.82C13.93 21 14.01 20.91 14.01 20.81V20.19C14.01 20.08 13.92 20 13.82 20Z" fill="#D3883E"/>
          <path d="M22.71 18.59V19.86C22.71 20 22.82 20.11 22.96 20.11H23.75C23.89 20.11 24 20 24 19.86V19.21C24 19.13 23.96 19.06 23.9 19.01L23.11 18.39C22.95 18.26 22.71 18.38 22.71 18.59Z" fill="#D3883E"/>
          <path d="M21.6 22.4C22.0087 22.4 22.34 22.0687 22.34 21.66C22.34 21.2513 22.0087 20.92 21.6 20.92C21.1913 20.92 20.86 21.2513 20.86 21.66C20.86 22.0687 21.1913 22.4 21.6 22.4Z" fill="#D3883E"/>
          <path d="M23.56 17.19C23.56 17.4054 23.3854 17.58 23.17 17.58C22.9546 17.58 22.78 17.4054 22.78 17.19C22.78 16.9746 22.9546 16.8 23.17 16.8C23.3854 16.8 23.56 16.9746 23.56 17.19Z" fill="#D3883E"/>
          <path d="M27.93 26.01H28.14C28.82 26.01 29.37 25.46 29.37 24.78V24.45C29.37 23.94 28.96 23.53 28.45 23.53C27.94 23.53 27.53 23.94 27.53 24.45V25.61C27.53 25.83 27.71 26.01 27.93 26.01Z" fill="#D3883E"/>
        </g>
      </g>
    </g>
    <g transform="translate(-330, -36)">
      <text id="ITEM_2_HEAD" text-anchor="start" font-weight="bold" font-size="34" fill="var(--primary-text)" x="0.0" y="-10.0" data-bg-id="ITEM_2_BG" fill-opacity="1.0" style="font-size: 30px; font-family: Inter, Segoe UI, Kalam, Roboto, Helvetica, Arial, sans-serif; font-weight: 700; letter-spacing:-0.4px;" data-final-font-size="30">
        <tspan x="0.0" dy="30.25px">Animal Imagery</tspan>
      </text>
      <rect id="ITEM_2_HEAD_FRAME" x="0" y="-10" width="846" height="44" fill="none"/>
      <text id="ITEM_2_BODY" text-anchor="start" font-size="24" fill="var(--primary-text)" x="0.0" y="24.0" data-bg-id="ITEM_2_BG" style="font-size: 26px; font-family: Inter, Segoe UI, Kalam, Roboto, Helvetica, Arial, sans-serif; font-weight: 400;" data-final-font-size="26">
        <tspan x="0.0" dy="31.62px">Carvings include giraffes and various feline tracks</tspan>
      </text>
      <rect id="ITEM_2_BODY_FRAME" x="0" y="24" width="846" height="84" fill="none"/>
    </g>
  </g>
  <g transform="translate(960.0, 660.0)">
    <rect id="ITEM_3_BG" x="-600" y="-72" width="1200" height="176" rx="24" fill="var(--accent-4)" stroke="var(--accent-3)" filter="url(#svg3948c3a4-shadow)" stroke-width="3" fill-opacity="1.0"/>
    <g transform="translate(-480.0, 0.0)">
      <circle r="60" fill="var(--background)" opacity="0.3"/>
      <circle id="ITEM_3_PAD" cx="0" cy="0" r="50" fill="var(--icon-pad-bg)" stroke="var(--primary-text)" opacity="0.9" fill-opacity="0.9" stroke-width="2"/>
      <circle id="ITEM_3_PAD_INNER" cx="0" cy="0" r="39.00" fill="var(--accent-4)" fill-opacity="0.22"/>
      <circle cx="0" cy="0" r="40" fill="none" stroke="var(--accent-2)" stroke-width="3" stroke-dasharray="6 4"/>
      <g id="ITEM_3_ICON" transform="translate(-39, -39)" data-icon-size="78" stroke-dasharray="6 4">
        <g transform="translate(-3.3050847457627093,-3.305084745762712) scale(2.1152542372881356)">
          <path d="m10.293,35.75v-5.243c0-1.303.383-2.544,1.059-3.599.648-1.062,1.591-1.942,2.754-2.507h11.788c1.163.565,2.106,1.445,2.754,2.507.676,1.055,1.059,2.297,1.059,3.599v5.243h1.595v-5.398c0-2.977-1.7-5.692-4.378-6.991l-4.893-2.375c-.377-.183-.617-.566-.617-.985s.24-.802.617-.985l4.893-2.375c2.678-1.3,4.378-4.015,4.378-6.991v-5.398H8.699v5.398c0,2.977,1.7,5.692,4.378,6.991l4.893,2.375c.377.183.617.566.617.985s-.24.802-.617.985l-4.893,2.375c-2.678,1.3-4.378,4.015-4.378,6.991v5.398h1.595Z" fill="#d0d6de"/>
          <path d="m28.648,26.908c-.648-1.062-1.591-1.942-2.754-2.507h-11.788c-1.163.565-2.106,1.445-2.754,2.507-.676,1.055-1.059,2.297-1.059,3.599v5.243h19.413v-5.243c0-1.303-.383-2.544-1.059-3.599Z" fill="#ff9e00"/>
          <path d="m31.301,4.25h0c.69,0,1.25-.56,1.25-1.25s-.56-1.25-1.25-1.25H8.699c-.69,0-1.25.56-1.25,1.25s.56,1.25,1.25,1.25h22.603Z" fill="#6e4944"/>
          <path d="m31.301,35.75H8.699c-.69,0-1.25.56-1.25,1.25s.56,1.25,1.25,1.25h22.603c.69,0,1.25-.56,1.25-1.25s-.56-1.25-1.25-1.25Z" fill="#6e4944"/>
        </g>
      </g>
    </g>
    <g transform="translate(-330, -36)">
      <text id="ITEM_3_HEAD" text-anchor="start" font-weight="bold" font-size="34" fill="var(--inverse-text)" x="0.0" y="-10.0" data-bg-id="ITEM_3_BG" fill-opacity="1.0" style="font-size: 30px; font-family: Inter, Segoe UI, Kalam, Roboto, Helvetica, Arial, sans-serif; font-weight: 700; letter-spacing:-0.4px;" data-final-font-size="30">
        <tspan x="0.0" dy="30.25px">Age Estimates</tspan>
      </text>
      <rect id="ITEM_3_HEAD_FRAME" x="0" y="-10" width="846" height="44" fill="none"/>
      <text id="ITEM_3_BODY" text-anchor="start" font-size="24" fill="var(--inverse-text)" x="0.0" y="24.0" data-bg-id="ITEM_3_BG" style="font-size: 26px; font-family: Inter, Segoe UI, Kalam, Roboto, Helvetica, Arial, sans-serif; font-weight: 400;" data-final-font-size="26">
        <tspan x="0.0" dy="31.62px">Researchers date carvings between 3,000 and 10,000 years old</tspan>
      </text>
      <rect id="ITEM_3_BODY_FRAME" x="0" y="24" width="846" height="84" fill="none"/>
    </g>
  </g>
  <g transform="translate(960.0, 855.0)">
    <rect id="ITEM_4_BG" x="-600" y="-72" width="1200" height="176" rx="24" fill="var(--accent-5)" stroke="var(--accent-4)" filter="url(#svg3948c3a4-shadow)" stroke-width="3" fill-opacity="1.0"/>
    <g transform="translate(-480.0, 0.0)">
      <circle r="60" fill="var(--background)" opacity="0.3"/>
      <circle id="ITEM_4_PAD" cx="0" cy="0" r="50" fill="var(--icon-pad-bg)" stroke="var(--primary-text)" opacity="0.9" fill-opacity="0.9" stroke-width="2"/>
      <circle id="ITEM_4_PAD_INNER" cx="0" cy="0" r="39.00" fill="var(--accent-5)" fill-opacity="0.22"/>
      <circle cx="0" cy="0" r="40" fill="none" stroke="var(--accent-3)" stroke-width="3" stroke-dasharray="6 4"/>
      <g id="ITEM_4_ICON" transform="translate(-39, -39)" data-icon-size="78" stroke-dasharray="6 4">
        <g transform="translate(-1.9024390243902438,-1.5853658536585336) scale(0.6341463414634146)">
          <path fill="#B1E4FF" d="M20.5 10.5C35.1.2 58 1 75.2 14.7c8.3 6.6 14.8 15.9 21.5 23.2c6.4 6.9 15.2 14.3 18.9 19.2c10.1 13.2 16.8 30.4-2.5 53.2c-11 13-30.7 19.7-53.5 10.2c-28.8-12.1-43-32.8-50.4-50.5c-5.7-13.8-12-43.3 11.3-59.5"/>
          <path fill="#004FAC" d="M61.6 12.8c8.8 3.9 18.2 11.6 24.8 20.9c8.5 12 12 13.9 17.8 17.1c6.5 3.6 3.7 10.4-3.6 8.1c-3.2-1-7.6-3.1-20.2-19.5c-5.8-7.6-10.8-13.8-22.2-19.2c-4-2-1.2-9.5 3.4-7.4M50 17.1c-12.9-1-18.2 2.8-25.5 8.6c-4.7 3.7-8.6-1.9-6.4-4.7C26.8 9.8 41.8 6.8 51.4 9c4.4 1 3.6 8.5-1.4 8.1M19.4 33.4c-6.9 15.9-.7 36 18.6 57.6c4 4.4-.7 8.3-3.7 5.8C12.8 79 2.8 47.4 12.1 30c2.5-4.6 9.2-1 7.3 3.4"/>
          <path fill="#004FAC" d="M47.6 106.4c-.3-3.8.7-8.6-4.9-16.1c-3-3.9-14-17-15.8-24.9c-1-4.2 5.5-6.2 7.2-1.9C37 70.8 40 74.6 45.2 80.7c11.1 12.8 10.5 20.6 10.1 26.1c-.5 4.7-7.3 4.7-7.7-.4m24.2-5.2c.9 9.6-2.6 14.4-4 16.3c-1.9 2.4-8.2 1.6-6.5-3.7C65.9 99.4 57.5 90.2 56 85c-1.5-5 3.1-7.1 5.6-5.8c3.7 1.9 5.7 7.1 6.9 9.4c3.5 2.2 16.5 10.5 39.6 11c5.5.1 5.6 7.2.3 8.2c-16.5 3-36.6-6.6-36.6-6.6"/>
          <path fill="#004FAC" d="M94.3 112.1c-2.1-.9-13.8-3.2-21.4 3.1c-1.9 1.6-1.9 5.8 1.8 6.3c3 .3 5.3-1 9.8-1.7c4.2-.7 6.2-.5 9.5-.3c3.5.1 5.7-5 .3-7.4m23.7-30c-2.6-.5-4.2.3-8.4.2c-3.9 0-6.1-.8-9.3-.2c-3.8.8-4.9 7.7-.1 9.2c2.8.9 15.3 1.7 19.5-.8c3.1-1.6 3.3-7.5-1.7-8.4m-30.3-4c1.3.3 3.7 1.1 5 1.8c4.1 2.1 2.1 9.7-2.6 9.7c-1.8 0-5.3-1.2-6.6-2c-4.1-2.7-1.6-10.9 4.2-9.5"/>
          <path fill="#004FAC" d="M79.8 74.5c3.6 3 .6 10.3-4.4 9c-5.7-1.4-12.3-9.5-13.9-17.2c-2.6-12.4-8.3-15.8-12.3-13.2c-4.4 2.9-1.1 10.4 2.8 12.5c11.6 6.4 4.5 15.1-1 11.5c-17.5-11.3-14.6-29.3-6.5-33.8c11-6 21.9 5.8 24.8 17c2.4 9.3 6.9 11.2 10.5 14.2"/>
          <path fill="#004FAC" d="M31.5 55.2c.1 3.2-6.3 4.1-7.1.7c-1-4.1-2.4-19.8 10.2-27.5c9.7-5.9 22-4.4 31.2 3.8c13.6 12.1 20.8 28.1 29.8 32c7.9 3.4 17 1.7 19 1.7c5.2.1 5.8 8-1.1 9.1c-11.2 1.8-24.8-1.9-30.6-8.5c-4.2-4.8-11.7-16-16.7-21.9c-5.3-6.3-11.7-11.3-19.7-10.4c-6.9.7-15.7 4.8-15 21"/>
        </g>
      </g>
    </g>
    <g transform="translate(-330, -36)">
      <text id="ITEM_4_HEAD" text-anchor="start" font-weight="bold" font-size="34" fill="var(--primary-text)" x="0.0" y="-10.0" data-bg-id="ITEM_4_BG" fill-opacity="1.0" style="font-size: 30px; font-family: Inter, Segoe UI, Kalam, Roboto, Helvetica, Arial, sans-serif; font-weight: 700; letter-spacing:-0.4px;" data-final-font-size="30">
        <tspan x="0.0" dy="30.25px">Human Craftsmanship</tspan>
      </text>
      <rect id="ITEM_4_HEAD_FRAME" x="0" y="-10" width="846" height="44" fill="none"/>
      <text id="ITEM_4_BODY" text-anchor="start" font-size="24" fill="var(--primary-text)" x="0.0" y="24.0" data-bg-id="ITEM_4_BG" style="font-size: 26px; font-family: Inter, Segoe UI, Kalam, Roboto, Helvetica, Arial, sans-serif; font-weight: 400;" data-final-font-size="26">
        <tspan x="0.0" dy="31.62px">Evidence suggests deliberate creation by ancient people</tspan>
      </text>
      <rect id="ITEM_4_BODY_FRAME" x="0" y="24" width="846" height="84" fill="none"/>
    </g>
  </g>
</svg>
