<?xml version='1.0' encoding='utf-8'?>
<svg xmlns="http://www.w3.org/2000/svg" width="1920" height="1080" viewBox="0 0 1920 1080" data-theme="light">
  <style>
        @font-face {
            font-family: 'Inter';
            src: url('assets/fonts/Inter-Regular.ttf') format('truetype');
            font-weight: 400;
            font-style: normal;
            font-display: swap;
        }
        @font-face {
            font-family: 'Inter';
            src: url('assets/fonts/Inter-Bold.ttf') format('truetype');
            font-weight: 600;
            font-style: normal;
            font-display: swap;
        }
        @font-face {
            font-family: 'Inter';
            src: url('assets/fonts/Inter-Bold.ttf') format('truetype');
            font-weight: 800;
            font-style: normal;
            font-display: swap;
        }
        
:root {
    --background: #f8fafc;
    --panel: #ffffff;
    --primary-text: #0f172a;
    --muted-text: #64748b;
    --inverse-text: #ffffff;
    --border: #e2e8f0;
    --shadow-color: #000000;
    --icon-pad-bg: #1e293b;
    --art-glow: #0891b2;
    --art-glow-opacity: 0.10;
    --art-sheen: #ffffff;
    --art-sheen-opacity: 0.34;
    --art-shadow: #0f172a;
    --art-shadow-opacity: 0.14;
    --art-muted-line: #94a3b8;
    --art-panel-tint: #f1f5f9;
    --font-family: 'Inter', 'Segoe UI', 'Kalam', Roboto, Helvetica, Arial, sans-serif;
    --radius-xl: 16px;
    --font-family-headline: 'Inter', 'Segoe UI', 'Kalam', Roboto, Helvetica, Arial, sans-serif;
    --font-family-body: 'Inter', 'Segoe UI', 'Kalam', Roboto, Helvetica, Arial, sans-serif;
    --font-heading: 'Inter', 'Segoe UI', 'Kalam', Roboto, Helvetica, Arial, sans-serif;
    --font-body: 'Inter', 'Segoe UI', 'Kalam', Roboto, Helvetica, Arial, sans-serif;
    --font-size-h1: 56px;
    --font-size-h2: 40px;
    --font-size-h3: 28px;
    --font-size-body: 24px;
    --font-size-caption: 18px;
    --secondary-text: var(--muted-text);
    --panel-border: var(--border);
    --font-weight-normal: 400;
    --font-weight-medium: 500;
    --font-weight-semibold: 600;
    --font-weight-bold: 700;
    --spacing-gutter-pct: 0.07;
    --spacing-top-pct: 0.15;
    --spacing-bottom-pct: 0.07;
    --spacing-title-y-pct: 0.055;
    --accent-1: #3b82f6;
    --accent-2: #22c55e;
    --accent-3: #f59e0b;
    --accent-4: #ec4899;
    --accent-5: #8b5cf6;
    --accent-6: #06b6d4;
}
:root[data-theme="dark"] {
    --background: #0f172a;
    --panel: #1e293b;
    --primary-text: #f1f5f9;
    --muted-text: #94a3b8;
    --inverse-text: #0f172a;
    --border: #334155;
    --shadow-color: #000000;
    --icon-pad-bg: #1e293b;
    --art-glow: #7dd3fc;
    --art-glow-opacity: 0.18;
    --art-sheen: #ffffff;
    --art-sheen-opacity: 0.18;
    --art-shadow: #000000;
    --art-shadow-opacity: 0.28;
    --art-muted-line: #64748b;
    --art-panel-tint: #1e293b;
    --accent-1: #93c5fd;
    --accent-2: #86efac;
    --accent-3: #fcd34d;
    --accent-4: #f9a8d4;
    --accent-5: #c4b5fd;
    --accent-6: #a5f3fc;
}
:root[data-theme="light"] {
    --background: #f8fafc;
    --panel: #ffffff;
    --primary-text: #0f172a;
    --muted-text: #64748b;
    --inverse-text: #ffffff;
    --border: #e2e8f0;
    --shadow-color: #000000;
    --icon-pad-bg: #1e293b;
    --art-glow: #0891b2;
    --art-glow-opacity: 0.10;
    --art-sheen: #ffffff;
    --art-sheen-opacity: 0.34;
    --art-shadow: #0f172a;
    --art-shadow-opacity: 0.14;
    --art-muted-line: #94a3b8;
    --art-panel-tint: #f1f5f9;
    --accent-1: #3b82f6;
    --accent-2: #22c55e;
    --accent-3: #f59e0b;
    --accent-4: #ec4899;
    --accent-5: #8b5cf6;
    --accent-6: #06b6d4;
}</style>
  <rect x="0" y="0" width="1.92E+3" height="1.08E+3" fill="#252a34" stroke="none" id="programmatic_background"/>
  <line id="HEADER_DECOR" x1="960.0" x2="1080.0" y1="90.0" y2="90.0" stroke="var(--accent-1)" stroke-width="6" stroke-linecap="round"/>
  <defs>
    <pattern id="svg3005d055-napkin-hatch" patternUnits="userSpaceOnUse" width="12" height="12">
      <path d="M -3 12 L 12 -3 M 0 15 L 15 0" fill="none" stroke="var(--primary-text)" stroke-width="1" stroke-opacity="0.05"/>
    </pattern>
    <filter id="svg3005d055-shadow" x="-30%" y="-30%" width="160%" height="160%">
      <feDropShadow dx="0" dy="2" stdDeviation="3" flood-color="#000000" flood-opacity="0.08"/>
      <feDropShadow dx="0" dy="6" stdDeviation="10" flood-color="#000000" flood-opacity="0.12"/>
    </filter>
    <radialGradient id="svg3005d055-universal-edge-vignette" cx="50%" cy="50%" r="72%">
      <stop offset="0%" stop-color="var(--background)" stop-opacity="0"/>
      <stop offset="72%" stop-color="var(--background)" stop-opacity="0.12"/>
      <stop offset="100%" stop-color="var(--primary-text)" stop-opacity="0.08"/>
    </radialGradient>
    <linearGradient id="svg3005d055-universal-surface-sheen" x1="0%" y1="0%" x2="100%" y2="100%">
      <stop offset="0%" stop-color="var(--art-sheen)" stop-opacity="var(--art-sheen-opacity)"/>
      <stop offset="46%" stop-color="var(--art-sheen)" stop-opacity="0.035"/>
      <stop offset="100%" stop-color="var(--art-panel-tint)" stop-opacity="0.14"/>
    </linearGradient>
    <radialGradient id="svg3005d055-universal-icon-aura" cx="50%" cy="42%" r="64%">
      <stop offset="0%" stop-color="var(--art-glow)" stop-opacity="var(--art-glow-opacity)"/>
      <stop offset="100%" stop-color="var(--background)" stop-opacity="0"/>
    </radialGradient>
    <radialGradient id="svg3005d055-venn-center-glow" cx="50%" cy="50%" r="60%">
      <stop offset="0%" stop-color="var(--art-glow)" stop-opacity="var(--art-glow-opacity)"/>
      <stop offset="100%" stop-color="var(--background)" stop-opacity="0"/>
    </radialGradient>
    <linearGradient id="svg3005d055-venn-label-sheen" x1="0%" y1="0%" x2="100%" y2="100%">
      <stop offset="0%" stop-color="var(--inverse-text)" stop-opacity="0.14"/>
      <stop offset="100%" stop-color="var(--background)" stop-opacity="0.12"/>
    </linearGradient>
    <filter id="svg3005d055-text-glow" x="-20%" y="-20%" width="140%" height="140%">
      <feDropShadow dx="0" dy="0" stdDeviation="2" flood-color="#000000" flood-opacity="0.4"/>
    </filter>
    <marker id="svg3005d055-arrowhead" markerWidth="10" markerHeight="7" refX="9" refY="3.5" orient="auto" markerUnits="strokeWidth">
      <polygon points="0 0, 10 3.5, 0 7" fill="var(--muted-text)" opacity="0.6"/>
    </marker>
  </defs>
  <rect width="100%" height="100%" fill="var(--background)" id="CANVAS_BG"/>
  <rect width="100%" height="100%" fill="url(#svg3005d055-napkin-hatch)"/>
  <rect id="UNIVERSAL_EDGE_VIGNETTE" width="100%" height="100%" fill="url(#svg3005d055-universal-edge-vignette)" opacity="0.62"/>
  <text id="TITLE" x="960.0" y="59" text-anchor="middle" font-weight="800" font-size="50" fill="#0f172a" style="font-size: 60px; font-family: Inter, Segoe UI, Kalam, Roboto, Helvetica, Arial, sans-serif; font-weight: 700; letter-spacing:-1.2px;" data-final-font-size="60">
    <tspan x="960.0" dy="68.00px">Afro-Ecuadorian Marimba Traditions</tspan>
  </text>
  <rect id="TITLE_FRAME" x="134" y="30" width="1652" height="70" fill="none"/>
  <g id="DIAGRAM_MAIN" transform="translate(960, 580)">
    <circle id="VENN_ART_CENTER_GLOW" cx="0" cy="0" r="255" fill="url(#svg3005d055-venn-center-glow)" opacity="0.95"/>
    <circle cx="0" cy="0" r="255" fill="url(#svg3005d055-venn-center-glow)" opacity="0.95"/>
    <circle cx="0" cy="0" r="255" fill="url(#svg3005d055-venn-center-glow)" opacity="0.95"/>
    <circle cx="0" cy="0" r="255" fill="url(#svg3005d055-venn-center-glow)" opacity="0.95"/>
    <circle cx="0" cy="0" r="255" fill="url(#svg3005d055-venn-center-glow)" opacity="0.95"/>
    <circle cx="0" cy="0" r="255" fill="url(#svg3005d055-venn-center-glow)" opacity="0.95"/>
    <circle cx="0" cy="0" r="255" fill="url(#svg3005d055-venn-center-glow)" opacity="0.95"/>
    <circle cx="0" cy="0" r="255" fill="url(#svg3005d055-venn-center-glow)" opacity="0.95"/>
    <circle cx="0" cy="0" r="255" fill="url(#svg3005d055-venn-center-glow)" opacity="0.95"/>
    <circle cx="0" cy="0" r="255" fill="url(#svg3005d055-venn-center-glow)" opacity="0.95"/>
    <circle cx="0" cy="0" r="255" fill="url(#svg3005d055-venn-center-glow)" opacity="0.95"/>
    <circle cx="0" cy="0" r="255" fill="url(#svg3005d055-venn-center-glow)" opacity="0.95"/>
    <circle cx="0" cy="0" r="255" fill="url(#svg3005d055-venn-center-glow)" opacity="0.95"/>
    <circle cx="0" cy="0" r="255" fill="url(#svg3005d055-venn-center-glow)" opacity="0.95"/>
    <circle cx="0" cy="0" r="255" fill="url(#svg3005d055-venn-center-glow)" opacity="0.95"/>
    <circle cx="0" cy="0" r="255" fill="url(#svg3005d055-venn-center-glow)" opacity="0.95"/>
    <circle cx="0" cy="0" r="255" fill="url(#svg3005d055-venn-center-glow)" opacity="0.95"/>
    <circle cx="0" cy="0" r="255" fill="url(#svg3005d055-venn-center-glow)" opacity="0.95"/>
    <circle cx="0" cy="0" r="255" fill="url(#svg3005d055-venn-center-glow)" opacity="0.95"/>
    <circle cx="0" cy="0" r="255" fill="url(#svg3005d055-venn-center-glow)" opacity="0.95"/>
    <circle cx="0" cy="0" r="255" fill="url(#svg3005d055-venn-center-glow)" opacity="0.95"/>
    <circle cx="0" cy="0" r="255" fill="url(#svg3005d055-venn-center-glow)" opacity="0.95"/>
    <circle cx="0" cy="0" r="255" fill="url(#svg3005d055-venn-center-glow)" opacity="0.95"/>
    <circle cx="0" cy="0" r="255" fill="url(#svg3005d055-venn-center-glow)" opacity="0.95"/>
    <circle cx="0" cy="0" r="255" fill="url(#svg3005d055-venn-center-glow)" opacity="0.95"/>
    <circle cx="0" cy="0" r="255" fill="url(#svg3005d055-venn-center-glow)" opacity="0.95"/>
    <!-- Circle backgrounds (pentagon arrangement) -->
    <!-- r=120, center offset 140 from origin -->
    <circle id="ITEM_1_BG" cx="0" cy="-140" r="180" fill="var(--accent-6)" fill-opacity="1.0" stroke="var(--border)" stroke-width="2"/>
    <circle id="ITEM_2_BG" cx="133" cy="-43" r="180" fill="var(--accent-1)" fill-opacity="1.0" stroke="var(--border)" stroke-width="2"/>
    <circle id="ITEM_3_BG" cx="82" cy="113" r="180" fill="var(--accent-2)" fill-opacity="1.0" stroke="var(--border)" stroke-width="2"/>
    <circle id="ITEM_4_BG" cx="-82" cy="113" r="180" fill="var(--accent-3)" fill-opacity="1.0" stroke="var(--border)" stroke-width="2"/>
    <circle id="ITEM_5_BG" cx="-133" cy="-43" r="180" fill="var(--accent-4)" fill-opacity="1.0" stroke="var(--border)" stroke-width="2"/>
    <!-- ITEM 1 - Top -->
    <circle id="ITEM_1_PAD" cx="0" cy="-270" r="48" fill="var(--icon-pad-bg)" stroke="var(--primary-text)" opacity="0.9" fill-opacity="0.9" stroke-width="2"/>
    <circle id="ITEM_1_PAD_INNER" cx="0" cy="-270" r="37.44" fill="var(--accent-6)" fill-opacity="0.22"/>
    <circle cx="0" cy="-270" r="38" fill="none" stroke="var(--accent-1)" stroke-width="3" stroke-dasharray="6 4"/>
    <g id="ITEM_1_ICON" transform="translate(-27, -297)" data-icon-size="54">
      <g transform="translate(-14.31310344827586,-14.635862068965515) scale(0.16137931034482758)" vector-effect="non-scaling-stroke" fill="#f1f5f9" fill-opacity="1.0" stroke="none">
        <path fill="#f1f5f9" d="M25 57v270h78V57zm96 16v238h78V73zm-57 7a16 16 0 0 1 16 16a16 16 0 0 1-16 16a16 16 0 0 1-16-16a16 16 0 0 1 16-16m153 9v206h78V89zm-57 7a16 16 0 0 1 16 16a16 16 0 0 1-16 16a16 16 0 0 1-16-16a16 16 0 0 1 16-16m153 9v174h78V105zm-57 7a16 16 0 0 1 16 16a16 16 0 0 1-16 16a16 16 0 0 1-16-16a16 16 0 0 1 16-16m153 9v142h78V121zm-57 7a16 16 0 0 1 16 16a16 16 0 0 1-16 16a16 16 0 0 1-16-16a16 16 0 0 1 16-16m96 16a16 16 0 0 1 16 16a16 16 0 0 1-16 16a16 16 0 0 1-16-16a16 16 0 0 1 16-16m0 64a16 16 0 0 1 16 16a16 16 0 0 1-16 16a16 16 0 0 1-16-16a16 16 0 0 1 16-16m-96 16a16 16 0 0 1 16 16a16 16 0 0 1-16 16a16 16 0 0 1-16-16a16 16 0 0 1 16-16m-96 16a16 16 0 0 1 16 16a16 16 0 0 1-16 16a16 16 0 0 1-16-16a16 16 0 0 1 16-16m-96 16a16 16 0 0 1 16 16a16 16 0 0 1-16 16a16 16 0 0 1-16-16a16 16 0 0 1 16-16m-96 16a16 16 0 0 1 16 16a16 16 0 0 1-16 16a16 16 0 0 1-16-16a16 16 0 0 1 16-16m352 57c-12.81 0-23 10.19-23 23s10.19 23 23 23s23-10.19 23-23s-10.19-23-23-23m-40.977 23.967l-162.242 40.56L65.117 375.07l-2.234 17.86l101.53 12.691L29.815 439.27l4.368 17.46l179.7-44.925l193.313 24.164a40.6 40.6 0 0 1 2.246-17.857l-147.187-18.4l117.162-29.29a40.6 40.6 0 0 1-4.395-17.455zM448 409c-12.81 0-23 10.19-23 23s10.19 23 23 23s23-10.19 23-23s-10.19-23-23-23" vector-effect="non-scaling-stroke" stroke="none"/>
      </g>
    </g>
    <rect id="ITEM_1_TEXT_BG" x="-208.0" y="-236.0" width="416.0" height="184.0" rx="16" fill="var(--panel)" fill-opacity="0.94" stroke="var(--primary-text)" stroke-opacity="0.12" stroke-width="1.5"/>
    <rect x="-208.0" y="-236.0" width="416.0" height="184.0" rx="16" fill="url(#svg3005d055-venn-label-sheen)" opacity="0.85"/>
    <text id="ITEM_1_HEAD" x="0.0" y="-220.0" text-anchor="middle" font-weight="bold" font-size="34" fill="var(--primary-text)" data-bg-id="ITEM_1_TEXT_BG" opacity="0.98" fill-opacity="1.0" style="font-size: 30px; font-family: Inter, Segoe UI, Kalam, Roboto, Helvetica, Arial, sans-serif; font-weight: 700; letter-spacing:-0.4px;" data-final-font-size="30">
      <tspan x="0.0" dy="31.25px">Musical Instruments</tspan>
    </text>
    <rect id="ITEM_1_HEAD_FRAME" x="-170" y="-220" width="340" height="46" fill="none"/>
    <text id="ITEM_1_BODY" x="0.0" y="-168.0" text-anchor="middle" font-size="20" fill="var(--primary-text)" data-bg-id="ITEM_1_TEXT_BG" style="font-size: 26px; font-family: Inter, Segoe UI, Kalam, Roboto, Helvetica, Arial, sans-serif; font-weight: 400;" data-final-font-size="26">
      <tspan x="0.0" dy="28.84px">The marimba serves as the</tspan>
      <tspan x="0.0" dy="29.90px">beating heart of cultural life</tspan>
    </text>
    <rect id="ITEM_1_BODY_FRAME" x="-190" y="-168" width="380" height="100" fill="none"/>
    <!-- ITEM 2 - Top Right -->
    <circle id="ITEM_2_PAD" cx="256" cy="-83" r="48" fill="var(--icon-pad-bg)" stroke="var(--primary-text)" opacity="0.9" fill-opacity="0.9" stroke-width="2"/>
    <circle id="ITEM_2_PAD_INNER" cx="256" cy="-83" r="37.44" fill="var(--accent-1)" fill-opacity="0.22"/>
    <circle cx="256" cy="-83" r="38" fill="none" stroke="var(--accent-2)" stroke-width="3" stroke-dasharray="6 4"/>
    <g id="ITEM_2_ICON" transform="translate(229, -110)" data-icon-size="54">
      <g transform="translate(-15.788571428571423,-15.788571428571426) scale(2.674285714285714)">
        <path fill-rule="evenodd" clip-rule="evenodd" d="M13.0009 5C13.0009 5.8908 13.3868 6.68944 14.0009 7.23832V10H10.5009C9.67089 10 9.00089 10.67 9.00089 11.5C9.00089 12.33 9.67089 13 10.5009 13H14.0009V26.7763C11.3397 26.1708 9.12469 24.3837 7.94087 22L7.98088 21.9999C8.85088 21.9999 9.32088 20.9799 8.75088 20.3199L5.36088 16.3599C4.79088 15.6899 3.70088 16.0099 3.58088 16.8799L3.01088 20.8399C2.92088 21.4499 3.40088 21.9999 4.02088 21.9999L4.69087 22C6.33087 26.66 10.7709 30 16.0009 30C21.2309 30 25.6709 26.66 27.3109 22L27.9809 21.9999C28.6009 21.9999 29.0809 21.4499 28.9909 20.8399L28.4209 16.8799C28.3009 16.0099 27.2109 15.6899 26.6409 16.3599L23.2509 20.3199C22.6809 20.9799 23.1509 21.9999 24.0209 21.9999H24.0609C22.8771 24.3836 20.6621 26.1708 18.0009 26.7763V13H21.5009C22.3309 13 23.0009 12.33 23.0009 11.5C23.0009 10.67 22.3309 10 21.5009 10H18.0009V7.23832C18.615 6.68944 19.0009 5.8908 19.0009 5C19.0009 3.34 17.6609 2 16.0009 2C14.3409 2 13.0009 3.34 13.0009 5ZM15.0009 5C15.0009 4.45 15.4509 4 16.0009 4C16.5509 4 17.0009 4.45 17.0009 5C17.0009 5.55 16.5509 6 16.0009 6C15.4509 6 15.0009 5.55 15.0009 5Z" fill="#00A6ED"/>
      </g>
    </g>
    <rect id="ITEM_2_TEXT_BG" x="322.0" y="-156.0" width="416.0" height="204.0" rx="16" fill="var(--panel)" fill-opacity="0.94" stroke="var(--primary-text)" stroke-opacity="0.12" stroke-width="1.5"/>
    <rect x="322.0" y="-156.0" width="416.0" height="204.0" rx="16" fill="url(#svg3005d055-venn-label-sheen)" opacity="0.85"/>
    <text id="ITEM_2_HEAD" x="340.0" y="-140.0" text-anchor="start" font-weight="bold" font-size="34" fill="var(--primary-text)" data-bg-id="ITEM_2_TEXT_BG" opacity="0.98" fill-opacity="1.0" style="font-size: 25px; font-family: Inter, Segoe UI, Kalam, Roboto, Helvetica, Arial, sans-serif; font-weight: 700; letter-spacing:-0.4px;" data-final-font-size="25">
      <tspan x="340.0" dy="29.62px">Historical Resilience</tspan>
    </text>
    <rect id="ITEM_2_HEAD_FRAME" x="340" y="-140" width="260" height="48" fill="none"/>
    <text id="ITEM_2_BODY" x="340.0" y="-88.0" text-anchor="start" font-size="20" fill="var(--primary-text)" data-bg-id="ITEM_2_TEXT_BG" style="font-size: 26px; font-family: Inter, Segoe UI, Kalam, Roboto, Helvetica, Arial, sans-serif; font-weight: 400;" data-final-font-size="26">
      <tspan x="340.0" dy="26.86px">Songs preserve memories</tspan>
      <tspan x="340.0" dy="29.90px">of slavery and coastal</tspan>
      <tspan x="340.0" dy="29.90px">migration history</tspan>
    </text>
    <rect id="ITEM_2_BODY_FRAME" x="340" y="-88" width="380" height="120" fill="none"/>
    <!-- ITEM 3 - Bottom Right -->
    <circle id="ITEM_3_PAD" cx="158" cy="220" r="48" fill="var(--icon-pad-bg)" stroke="var(--primary-text)" opacity="0.9" fill-opacity="0.9" stroke-width="2"/>
    <circle id="ITEM_3_PAD_INNER" cx="158" cy="220" r="37.44" fill="var(--accent-2)" fill-opacity="0.22"/>
    <circle cx="158" cy="220" r="38" fill="none" stroke="var(--accent-3)" stroke-width="3" stroke-dasharray="6 4"/>
    <g id="ITEM_3_ICON" transform="translate(131, 193)" data-icon-size="54">
      <g transform="translate(-15.119999999999994,-15.788571428571426) scale(2.674285714285714)">
        <path d="M19.6288 30.0005H11.7156C10.9356 30.0005 10.3036 29.3685 10.3036 28.5884V15.4698C10.3036 14.6897 10.9356 14.0577 11.7156 14.0577H19.6288C20.4089 14.0577 21.0409 14.6897 21.0409 15.4698V28.5884C21.0409 29.3685 20.4089 30.0005 19.6288 30.0005Z" fill="#FFDEA7"/>
        <path d="M16.4787 9.73157H14.866V12.1041H16.4787V9.73157Z" fill="#9B9B9B"/>
        <path d="M20.5408 11.4495H10.8045C9.80758 11.4495 9 12.2579 9 13.254V17.8972C9 18.6878 9.6336 19.3303 10.4201 19.3449C11.2318 19.3602 11.8961 18.6708 11.8961 17.8592V15.5141C11.8961 15.2624 12.1001 15.0585 12.3517 15.0585C12.6034 15.0585 15.2924 15.0585 15.2924 15.0585C15.4841 15.0585 15.6403 15.2139 15.6403 15.4065V16.1712C15.6403 16.9828 16.3047 17.6722 17.1163 17.6569C17.9036 17.6423 18.5364 16.9998 18.5364 16.2092V15.5141C18.5364 15.2624 18.7404 15.0585 18.992 15.0585C19.2437 15.0585 19.4476 15.2624 19.4476 15.5141V20.1524C19.4476 20.9641 20.112 21.6535 20.9236 21.6381C21.7109 21.6236 22.3437 20.9811 22.3437 20.1905V13.2548C22.3445 12.2579 21.537 11.4495 20.5408 11.4495Z" fill="#FFCE7C"/>
        <path d="M18.258 5.57141L16.4082 2.42119C16.078 1.8596 15.2664 1.8596 14.9362 2.42119L13.0807 5.58031C13.0565 5.61996 13.033 5.65962 13.0103 5.70008L12.9998 5.71707C12.7425 6.18479 12.6049 6.72614 12.6268 7.30229C12.6883 8.90694 14.0259 10.2089 15.6313 10.2292C17.3331 10.251 18.7193 8.87862 18.7193 7.18253C18.7193 6.59101 18.5501 6.03832 18.258 5.57141Z" fill="#FFB02E"/>
        <path d="M15.6727 9.03566C16.5911 9.03566 17.3356 8.29115 17.3356 7.37275C17.3356 6.45435 16.5911 5.70984 15.6727 5.70984C14.7543 5.70984 14.0098 6.45435 14.0098 7.37275C14.0098 8.29115 14.7543 9.03566 15.6727 9.03566Z" fill="#FCD53F"/>
      </g>
    </g>
    <rect id="ITEM_3_TEXT_BG" x="224.0" y="154.0" width="416.0" height="202.0" rx="16" fill="var(--panel)" fill-opacity="0.94" stroke="var(--primary-text)" stroke-opacity="0.12" stroke-width="1.5"/>
    <rect x="224.0" y="154.0" width="416.0" height="202.0" rx="16" fill="url(#svg3005d055-venn-label-sheen)" opacity="0.85"/>
    <text id="ITEM_3_HEAD" x="242.0" y="170.0" text-anchor="start" font-weight="bold" font-size="34" fill="var(--primary-text)" data-bg-id="ITEM_3_TEXT_BG" opacity="0.98" fill-opacity="1.0" style="font-size: 30px; font-family: Inter, Segoe UI, Kalam, Roboto, Helvetica, Arial, sans-serif; font-weight: 700; letter-spacing:-0.4px;" data-final-font-size="30">
      <tspan x="242.0" dy="32.25px">Life-Cycle Events</tspan>
    </text>
    <rect id="ITEM_3_HEAD_FRAME" x="242" y="170" width="260" height="48" fill="none"/>
    <text id="ITEM_3_BODY" x="242.0" y="220.0" text-anchor="start" font-size="20" fill="var(--primary-text)" data-bg-id="ITEM_3_TEXT_BG" style="font-size: 26px; font-family: Inter, Segoe UI, Kalam, Roboto, Helvetica, Arial, sans-serif; font-weight: 400;" data-final-font-size="26">
      <tspan x="242.0" dy="26.86px">Music accompanies religious</tspan>
      <tspan x="242.0" dy="29.90px">celebrations and ceremonies</tspan>
      <tspan x="242.0" dy="29.90px">for the dead</tspan>
    </text>
    <rect id="ITEM_3_BODY_FRAME" x="242" y="220" width="380" height="120" fill="none"/>
    <!-- ITEM 4 - Bottom Left -->
    <circle id="ITEM_4_PAD" cx="-158" cy="220" r="48" fill="var(--icon-pad-bg)" stroke="var(--primary-text)" opacity="0.9" fill-opacity="0.9" stroke-width="2"/>
    <circle id="ITEM_4_PAD_INNER" cx="-158" cy="220" r="37.44" fill="var(--accent-3)" fill-opacity="0.22"/>
    <circle cx="-158" cy="220" r="38" fill="none" stroke="var(--accent-4)" stroke-width="3" stroke-dasharray="6 4"/>
    <g id="ITEM_4_ICON" transform="translate(-185, 193)" data-icon-size="54">
      <g transform="translate(-12.935999999999998,-12.936) scale(2.496)">
        <path d="M27.938 8.83821C24.0423 5.04133 17.8344 5.05797 13.9753 8.86406C13.4392 8.67001 12.8612 8.56433 12.26 8.56433C10.458 8.56433 8.87859 9.50994 7.98809 10.929C4.08596 11.1722 1 14.4106 1 18.3743C1 20.1277 1.61099 21.7416 2.62059 23.0183C3.99219 24.8117 6.14877 25.9643 8.58 25.9643H21.27C24.4212 25.9643 27.2042 24.4125 28.9045 22.0385C31.9165 18.083 31.5813 12.4038 27.9394 8.83964L27.938 8.83821Z" fill="#B4ACBC"/>
        <path d="M14.55 9.70434C18.01 6.15434 23.69 6.09434 27.24 9.55434C30.52 12.7643 30.82 17.8843 28.1 21.4443C26.58 23.5743 24.09 24.9643 21.27 24.9643H8.58C6.47 24.9643 4.6 23.9643 3.41 22.4043C2.53 21.2943 2 19.8943 2 18.3743C2 14.8043 4.89 11.9143 8.46 11.9143C8.50303 11.9143 8.54595 11.9148 8.58877 11.9156C9.22825 10.5277 10.6316 9.56433 12.26 9.56433C12.9685 9.56433 13.6345 9.74673 14.2134 10.0671C14.3215 9.94392 14.4337 9.82294 14.55 9.70434Z" fill="#F3EEF8"/>
      </g>
    </g>
    <rect id="ITEM_4_TEXT_BG" x="-640.0" y="154.0" width="416.0" height="202.0" rx="16" fill="var(--panel)" fill-opacity="0.94" stroke="var(--primary-text)" stroke-opacity="0.12" stroke-width="1.5"/>
    <rect x="-640.0" y="154.0" width="416.0" height="202.0" rx="16" fill="url(#svg3005d055-venn-label-sheen)" opacity="0.85"/>
    <text id="ITEM_4_HEAD" x="-242.0" y="170.0" text-anchor="end" font-weight="bold" font-size="34" fill="var(--primary-text)" data-bg-id="ITEM_4_TEXT_BG" opacity="0.98" fill-opacity="1.0" style="font-size: 25px; font-family: Inter, Segoe UI, Kalam, Roboto, Helvetica, Arial, sans-serif; font-weight: 700; letter-spacing:-0.4px;" data-final-font-size="25">
      <tspan x="-242.0" dy="29.62px">Generational Learning</tspan>
    </text>
    <rect id="ITEM_4_HEAD_FRAME" x="-502" y="170" width="260" height="48" fill="none"/>
    <text id="ITEM_4_BODY" x="-242.0" y="220.0" text-anchor="end" font-size="20" fill="var(--primary-text)" data-bg-id="ITEM_4_TEXT_BG" style="font-size: 26px; font-family: Inter, Segoe UI, Kalam, Roboto, Helvetica, Arial, sans-serif; font-weight: 400;" data-final-font-size="26">
      <tspan x="-242.0" dy="26.86px">Knowledge is passed through</tspan>
      <tspan x="-242.0" dy="29.90px">active participation and</tspan>
      <tspan x="-242.0" dy="29.90px">listening</tspan>
    </text>
    <rect id="ITEM_4_BODY_FRAME" x="-622" y="220" width="380" height="120" fill="none"/>
    <!-- ITEM 5 - Top Left -->
    <circle id="ITEM_5_PAD" cx="-256" cy="-83" r="48" fill="var(--icon-pad-bg)" stroke="var(--primary-text)" opacity="0.9" fill-opacity="0.9" stroke-width="2"/>
    <circle id="ITEM_5_PAD_INNER" cx="-256" cy="-83" r="37.44" fill="var(--accent-4)" fill-opacity="0.22"/>
    <circle cx="-256" cy="-83" r="38" fill="none" stroke="var(--accent-5)" stroke-width="3" stroke-dasharray="6 4"/>
    <g id="ITEM_5_ICON" transform="translate(-283, -110)" data-icon-size="54">
      <g transform="translate(-14.381052631578946,-16.68) scale(2.6273684210526316)">
        <path d="M10.1245 3.12793C13.6813 3.12793 16.0854 6.32256 16.0854 9.05603C16.0854 10.3913 15.606 11.6166 15.1156 12.8701C14.6021 14.1826 14.0765 15.5259 14.0765 17.0589C14.0765 18.783 14.3708 20.1518 14.6208 21.3145C14.8053 22.1728 14.9657 22.9189 14.9657 23.6127C14.9657 25.951 13.4376 30.0348 9.03765 30.0348H4.98687C2.61564 30.0348 2.02209 28.4112 2.02209 27.0061V20.8179C2.00781 20.8278 1.99712 20.8346 1.9902 20.8383C1.81718 20.9306 1.71338 20.8498 1.71338 20.6076V19.7887C1.71338 19.5696 1.78259 19.4081 1.9902 19.2351C2.00004 19.2269 2.01059 19.2178 2.02209 19.2077V17.0589C2.02209 16.3446 2.0532 15.3301 2.16772 14.1702C1.73379 13.5324 1.82723 12.8266 1.96733 12.2025C2.08337 11.6857 2.40018 11.5114 2.56705 11.4829C3.3846 7.46835 5.37752 3.12793 10.1245 3.12793ZM2.47661 11.9512C2.46619 12.0081 2.45601 12.065 2.44604 12.1217C2.44806 12.1025 2.45073 12.0832 2.45399 12.0635C2.46174 12.024 2.46929 11.9866 2.47661 11.9512ZM24.0392 3.12793C27.596 3.12793 30.0001 6.32256 30.0001 9.05603C30.0001 10.3913 29.5207 11.6166 29.0303 12.8701C28.5168 14.1826 27.9912 15.5259 27.9912 17.0589C27.9912 18.783 28.2854 20.1518 28.5354 21.3144L28.5354 21.3145C28.72 22.1728 28.8804 22.9189 28.8804 23.6127C28.8804 25.951 27.3523 30.0348 22.9523 30.0348H18.9015C16.5303 30.0348 15.9368 28.4112 15.9368 27.0061V20.8179C15.9225 20.8278 15.9118 20.8346 15.9049 20.8383C15.7319 20.9306 15.6281 20.8498 15.6281 20.6076V19.7887C15.6281 19.5696 15.6973 19.4081 15.9049 19.2351C15.9147 19.2269 15.9253 19.2178 15.9368 19.2077V17.0589C15.9368 16.3446 15.9679 15.3301 16.0824 14.1702C15.6485 13.5324 15.7419 12.8266 15.882 12.2025C15.998 11.6857 16.3148 11.5114 16.4817 11.4829C17.2993 7.46835 19.2922 3.12793 24.0392 3.12793ZM16.3913 11.9512C16.3809 12.0081 16.3707 12.065 16.3607 12.1217C16.3627 12.1025 16.3654 12.0832 16.3687 12.0635C16.3764 12.024 16.384 11.9866 16.3913 11.9512Z" fill="#FF6DC6"/>
        <path d="M10.5259 21.3618C9.98207 22.379 8.89877 22.9638 6.95055 22.9638H5.00509C3.88105 22.9638 3 22.2782 3 21.0117C3 20.6843 3.00041 20.3772 3.00096 20.0383C3.73613 19.4295 4.76523 18.5456 5.73337 17.6403C7.15137 18.8886 8.81898 20.2321 10.5259 21.3618ZM10.9437 19.9153C9.84768 19.0872 8.31321 17.9099 6.7726 16.6342C7.50567 15.9078 8.22519 15.2034 8.8448 14.5968L8.84488 14.5967L8.84498 14.5966L8.84505 14.5966C9.29746 14.1537 9.69659 13.7629 10.0088 13.4538C9.98803 13.6235 9.97678 13.796 9.97678 13.9715C9.97678 15.1282 10.2262 15.7807 10.4779 16.4392C10.7341 17.1098 10.9928 17.7866 10.9928 19.0081C10.9928 19.3263 10.9775 19.6292 10.9437 19.9153ZM11.2053 10.3416C11.1078 10.4386 10.9934 10.5528 10.864 10.6821C9.8076 11.7367 7.74697 13.7939 5.69095 15.7216C4.96364 15.0955 4.25819 14.4603 3.62199 13.8435C3.47688 13.6945 3.34806 13.5606 3.23401 13.4394C3.57395 10.821 4.28488 8.36554 5.32901 6.78233C6.55084 4.92965 8.81473 4.45834 10.7106 5.67455C11.5216 6.19482 11.9655 6.9946 11.9655 7.98383C11.9655 8.76619 11.6132 9.53706 11.2053 10.3416ZM3.06701 15.1372C3.0251 15.758 3.00391 16.3793 3.00391 16.9922C3.00391 17.4784 3.00371 17.8971 3.00341 18.2654C3.38859 17.8952 3.92224 17.3859 4.67011 16.6807C4.05709 16.1137 3.51488 15.5876 3.06701 15.1372ZM24.4406 21.3618C23.8967 22.379 22.8134 22.9638 20.8652 22.9638H18.9198C17.7957 22.9638 16.9147 22.2782 16.9147 21.0117C16.9147 20.6843 16.9151 20.3772 16.9156 20.0383C17.6508 19.4295 18.6799 18.5456 19.648 17.6403C21.066 18.8886 22.7337 20.2321 24.4406 21.3618ZM24.8584 19.9153C23.7624 19.0872 22.2279 17.9099 20.6873 16.6342C21.4203 15.9078 22.1397 15.2035 22.7593 14.597L22.7597 14.5966L22.7601 14.5962C23.2124 14.1534 23.6114 13.7628 23.9235 13.4538C23.9027 13.6235 23.8915 13.796 23.8915 13.9715C23.8915 15.1282 24.1409 15.7807 24.3925 16.4392C24.6488 17.1098 24.9075 17.7866 24.9075 19.0081C24.9075 19.3263 24.8921 19.6292 24.8584 19.9153ZM25.1199 10.3416C25.0225 10.4386 24.9081 10.5528 24.7787 10.682L24.7786 10.6821C23.7223 11.7367 21.6616 13.7939 19.6056 15.7216C18.8783 15.0955 18.1729 14.4603 17.5367 13.8435C17.3916 13.6945 17.2627 13.5606 17.1487 13.4394C17.4886 10.821 18.1996 8.36554 19.2437 6.78233C20.4655 4.92965 22.7294 4.45834 24.6252 5.67455C25.4362 6.19482 25.8801 6.9946 25.8801 7.98383C25.8801 8.76619 25.5279 9.53706 25.1199 10.3416ZM16.9817 15.1372C16.9398 15.758 16.9186 16.3793 16.9186 16.9922C16.9186 17.4784 16.9184 17.8971 16.9181 18.2654C17.3033 17.8952 17.8369 17.3859 18.5848 16.6807C17.9718 16.1137 17.4295 15.5876 16.9817 15.1372Z" fill="#BB1D80"/>
        <path d="M10.3672 12.1016C10.2344 12.4419 10.1168 12.9865 10.0413 13.336L10.0177 13.4451C9.80409 13.6566 9.54923 13.9069 9.26404 14.1863C9.56928 12.5965 10.0177 11.5631 11.2188 10.3281C11.0235 10.6797 10.5518 11.6287 10.3672 12.1016Z" fill="#D73B9A"/>
        <path d="M2.49146 12.4872C2.2744 12.0436 1.96484 12.2032 1.91016 12.5157C1.94922 12.2031 2.07812 11.5547 2.57812 11.4531C2.49536 11.8906 2.47119 12.0565 2.49146 12.4872Z" fill="#D73B9A"/>
        <path d="M3.10838 15.1732C2.72283 14.7832 2.32379 14.3457 2.17246 14.1757L2.17094 14.2001C2.1502 14.5314 2.12092 14.9993 2.52555 15.4422C2.79226 15.7342 2.97232 16.1369 3.00781 16.3555C3.00946 16.3267 3.0112 16.2916 3.01322 16.2511C3.02498 16.0152 3.0459 15.5954 3.10838 15.1732Z" fill="#D73B9A"/>
        <path d="M2.03845 22V20.8064C2.17122 20.7121 2.5239 20.4333 3 20.0391V21.1457C3 20.3906 2.03845 21.3582 2.03845 22Z" fill="#D73B9A"/>
        <path d="M6.48418 18.2863C6.03644 17.9021 5.82072 17.7156 5.73385 17.6398C6.01655 17.3755 6.29405 17.1093 6.55751 16.8476L6.77484 16.632L7.10953 16.9109C6.76439 17.2516 6.15857 18.0016 6.48418 18.2863Z" fill="#D73B9A"/>
        <path d="M10.3867 19.4844C10.6515 19.6929 10.105 21.0725 9.63514 20.7477L10.5234 21.3672C10.5234 21.3672 10.8164 20.8047 10.9414 19.9023L10.8771 19.8564C10.7679 19.7786 10.6892 19.7226 10.3867 19.4844Z" fill="#D73B9A"/>
        <path d="M23.956 13.336C24.0315 12.9865 24.1491 12.4419 24.2819 12.1016C24.4664 11.6287 24.9381 10.6797 25.1335 10.3281C23.9324 11.5631 23.484 12.5965 23.1787 14.1863C23.4639 13.9069 23.7188 13.6566 23.9324 13.4451L23.956 13.336Z" fill="#D73B9A"/>
        <path d="M16.4061 12.4872C16.1891 12.0436 15.8795 12.2032 15.8248 12.5157C15.8639 12.2031 15.9928 11.5547 16.4928 11.4531C16.41 11.8906 16.3859 12.0565 16.4061 12.4872Z" fill="#D73B9A"/>
        <path d="M23.5498 20.7477C24.0197 21.0725 24.5661 19.6929 24.3014 19.4844C24.6039 19.7226 24.6825 19.7786 24.7918 19.8564L24.8561 19.9023C24.7311 20.8047 24.4381 21.3672 24.4381 21.3672L23.5498 20.7477Z" fill="#D73B9A"/>
        <path d="M16.0871 14.1757C16.2385 14.3457 16.6375 14.7832 17.023 15.1732C16.9606 15.5954 16.9397 16.0151 16.9279 16.251C16.9259 16.2916 16.9241 16.3267 16.9225 16.3555C16.887 16.1369 16.7069 15.7342 16.4402 15.4422C16.0356 14.9993 16.0649 14.5314 16.0856 14.2001L16.0871 14.1757Z" fill="#D73B9A"/>
        <path d="M15.9531 20.8064V22C15.9531 21.3582 16.9147 20.3906 16.9147 21.1457V20.0391C16.4386 20.4333 16.0859 20.7121 15.9531 20.8064Z" fill="#D73B9A"/>
        <path d="M19.6485 17.6398C19.7354 17.7156 19.9511 17.9021 20.3989 18.2863C20.0732 18.0016 20.6791 17.2516 21.0242 16.9109L20.6895 16.632L20.4722 16.8476C20.2087 17.1093 19.9312 17.3755 19.6485 17.6398Z" fill="#D73B9A"/>
      </g>
    </g>
    <rect id="ITEM_5_TEXT_BG" x="-738.0" y="-156.0" width="416.0" height="204.0" rx="16" fill="var(--panel)" fill-opacity="0.94" stroke="var(--primary-text)" stroke-opacity="0.12" stroke-width="1.5"/>
    <rect x="-738.0" y="-156.0" width="416.0" height="204.0" rx="16" fill="url(#svg3005d055-venn-label-sheen)" opacity="0.85"/>
    <text id="ITEM_5_HEAD" x="-340.0" y="-140.0" text-anchor="end" font-weight="bold" font-size="34" fill="var(--primary-text)" data-bg-id="ITEM_5_TEXT_BG" opacity="0.98" fill-opacity="1.0" style="font-size: 29px; font-family: Inter, Segoe UI, Kalam, Roboto, Helvetica, Arial, sans-serif; font-weight: 700; letter-spacing:-0.4px;" data-final-font-size="29">
      <tspan x="-340.0" dy="31.98px">Public Performance</tspan>
    </text>
    <rect id="ITEM_5_HEAD_FRAME" x="-600" y="-140" width="260" height="48" fill="none"/>
    <text id="ITEM_5_BODY" x="-340.0" y="-88.0" text-anchor="end" font-size="20" fill="var(--primary-text)" data-bg-id="ITEM_5_TEXT_BG" style="font-size: 26px; font-family: Inter, Segoe UI, Kalam, Roboto, Helvetica, Arial, sans-serif; font-weight: 400;" data-final-font-size="26">
      <tspan x="-340.0" dy="32.84px">Folklore is heard and danced</tspan>
      <tspan x="-340.0" dy="29.90px">rather than just narrated</tspan>
    </text>
    <rect id="ITEM_5_BODY_FRAME" x="-720" y="-88" width="380" height="120" fill="none"/>
  </g>
</svg>
