<?xml version='1.0' encoding='utf-8'?>
<svg xmlns="http://www.w3.org/2000/svg" width="1920" height="1080" viewBox="0 0 1920 1080" data-theme="dark">
  <style>
        @font-face {
            font-family: 'Inter';
            src: url('assets/fonts/Inter-Regular.ttf') format('truetype');
            font-weight: 400;
            font-style: normal;
            font-display: swap;
        }
        @font-face {
            font-family: 'Inter';
            src: url('assets/fonts/Inter-Bold.ttf') format('truetype');
            font-weight: 600;
            font-style: normal;
            font-display: swap;
        }
        @font-face {
            font-family: 'Inter';
            src: url('assets/fonts/Inter-Bold.ttf') format('truetype');
            font-weight: 800;
            font-style: normal;
            font-display: swap;
        }
        
:root {
    --background: #0f172a;
    --panel: #1e293b;
    --primary-text: #f1f5f9;
    --muted-text: #94a3b8;
    --inverse-text: #0f172a;
    --border: #334155;
    --shadow-color: #000000;
    --icon-pad-bg: #1e293b;
    --art-glow: #7dd3fc;
    --art-glow-opacity: 0.18;
    --art-sheen: #ffffff;
    --art-sheen-opacity: 0.18;
    --art-shadow: #000000;
    --art-shadow-opacity: 0.28;
    --art-muted-line: #64748b;
    --art-panel-tint: #1e293b;
    --font-family: 'Inter', 'Segoe UI', 'Kalam', Roboto, Helvetica, Arial, sans-serif;
    --radius-xl: 16px;
    --font-family-headline: 'Inter', 'Segoe UI', 'Kalam', Roboto, Helvetica, Arial, sans-serif;
    --font-family-body: 'Inter', 'Segoe UI', 'Kalam', Roboto, Helvetica, Arial, sans-serif;
    --font-heading: 'Inter', 'Segoe UI', 'Kalam', Roboto, Helvetica, Arial, sans-serif;
    --font-body: 'Inter', 'Segoe UI', 'Kalam', Roboto, Helvetica, Arial, sans-serif;
    --font-size-h1: 56px;
    --font-size-h2: 40px;
    --font-size-h3: 28px;
    --font-size-body: 24px;
    --font-size-caption: 18px;
    --secondary-text: var(--muted-text);
    --panel-border: var(--border);
    --font-weight-normal: 400;
    --font-weight-medium: 500;
    --font-weight-semibold: 600;
    --font-weight-bold: 700;
    --spacing-gutter-pct: 0.07;
    --spacing-top-pct: 0.15;
    --spacing-bottom-pct: 0.07;
    --spacing-title-y-pct: 0.055;
    --accent-1: #60a5fa;
    --accent-2: #4ade80;
    --accent-3: #f97316;
    --accent-4: #a78bfa;
    --accent-5: #38bdf8;
    --accent-6: #94a3b8;
}
:root[data-theme="dark"] {
    --background: #0f172a;
    --panel: #1e293b;
    --primary-text: #f1f5f9;
    --muted-text: #94a3b8;
    --inverse-text: #0f172a;
    --border: #334155;
    --shadow-color: #000000;
    --icon-pad-bg: #1e293b;
    --art-glow: #7dd3fc;
    --art-glow-opacity: 0.18;
    --art-sheen: #ffffff;
    --art-sheen-opacity: 0.18;
    --art-shadow: #000000;
    --art-shadow-opacity: 0.28;
    --art-muted-line: #64748b;
    --art-panel-tint: #1e293b;
    --accent-1: #60a5fa;
    --accent-2: #4ade80;
    --accent-3: #f97316;
    --accent-4: #a78bfa;
    --accent-5: #38bdf8;
    --accent-6: #94a3b8;
}
:root[data-theme="light"] {
    --background: #f8fafc;
    --panel: #ffffff;
    --primary-text: #0f172a;
    --muted-text: #64748b;
    --inverse-text: #ffffff;
    --border: #e2e8f0;
    --shadow-color: #000000;
    --icon-pad-bg: #1e293b;
    --art-glow: #0891b2;
    --art-glow-opacity: 0.10;
    --art-sheen: #ffffff;
    --art-sheen-opacity: 0.34;
    --art-shadow: #0f172a;
    --art-shadow-opacity: 0.14;
    --art-muted-line: #94a3b8;
    --art-panel-tint: #f1f5f9;
    --accent-1: #2563eb;
    --accent-2: #16a34a;
    --accent-3: #ea580c;
    --accent-4: #7c3aed;
    --accent-5: #0284c7;
    --accent-6: #475569;
}</style>
  <rect x="0" y="0" width="1.92E+3" height="1.08E+3" fill="#252a34" stroke="none" id="programmatic_background"/>
  <line id="HEADER_DECOR" x1="960.0" x2="1080.0" y1="85.0" y2="85.0" stroke="var(--accent-1)" stroke-width="6" stroke-linecap="round"/>
  <defs>
    <pattern id="svg75e21e21-napkin-hatch" patternUnits="userSpaceOnUse" width="12" height="12">
      <path d="M -3 12 L 12 -3 M 0 15 L 15 0" fill="none" stroke="var(--primary-text)" stroke-width="1" stroke-opacity="0.05"/>
    </pattern>
    <filter id="svg75e21e21-shadow" x="-30%" y="-30%" width="160%" height="160%">
      <feDropShadow dx="0" dy="2" stdDeviation="3" flood-color="#000000" flood-opacity="0.08"/>
      <feDropShadow dx="0" dy="6" stdDeviation="10" flood-color="#000000" flood-opacity="0.12"/>
    </filter>
    <marker id="svg75e21e21-arrowhead" markerWidth="10" markerHeight="10" refX="9" refY="5" orient="auto">
      <path d="M 0 0 L 10 5 L 0 10 Z" fill="var(--accent-1)"/>
    </marker>
    <filter id="svg75e21e21-text-glow" x="-20%" y="-20%" width="140%" height="140%">
      <feDropShadow dx="0" dy="0" stdDeviation="2" flood-color="#000000" flood-opacity="0.4"/>
    </filter>
    <linearGradient id="svg75e21e21-beam-grad" x1="0%" y1="0%" x2="100%" y2="0%">
      <stop offset="0%" stop-color="var(--accent-3)" stop-opacity="0.6"/>
      <stop offset="100%" stop-color="var(--accent-3)" stop-opacity="0"/>
    </linearGradient>
    <linearGradient id="svg75e21e21-lantern-grad" x1="0%" y1="0%" x2="0%" y2="100%">
      <stop offset="0%" stop-color="var(--accent-3)"/>
      <stop offset="100%" stop-color="var(--accent-3)"/>
    </linearGradient>
    <linearGradient id="svg75e21e21-level-grad-5" x1="0%" y1="0%" x2="0%" y2="100%">
      <stop offset="0%" stop-color="var(--accent-7)"/>
      <stop offset="100%" stop-color="var(--accent-7)"/>
    </linearGradient>
    <linearGradient id="svg75e21e21-level-grad-4" x1="0%" y1="0%" x2="0%" y2="100%">
      <stop offset="0%" stop-color="var(--accent-1)"/>
      <stop offset="100%" stop-color="var(--accent-1)"/>
    </linearGradient>
    <linearGradient id="svg75e21e21-level-grad-3" x1="0%" y1="0%" x2="0%" y2="100%">
      <stop offset="0%" stop-color="var(--accent-4)"/>
      <stop offset="100%" stop-color="var(--accent-4)"/>
    </linearGradient>
    <linearGradient id="svg75e21e21-level-grad-2" x1="0%" y1="0%" x2="0%" y2="100%">
      <stop offset="0%" stop-color="var(--accent-2)"/>
      <stop offset="100%" stop-color="var(--accent-2)"/>
    </linearGradient>
    <linearGradient id="svg75e21e21-level-grad-1" x1="0%" y1="0%" x2="0%" y2="100%">
      <stop offset="0%" stop-color="var(--accent-6)"/>
      <stop offset="100%" stop-color="var(--accent-6)"/>
    </linearGradient>
    <radialGradient id="svg75e21e21-universal-edge-vignette" cx="50%" cy="50%" r="72%">
      <stop offset="0%" stop-color="var(--background)" stop-opacity="0"/>
      <stop offset="72%" stop-color="var(--background)" stop-opacity="0.12"/>
      <stop offset="100%" stop-color="var(--primary-text)" stop-opacity="0.08"/>
    </radialGradient>
    <linearGradient id="svg75e21e21-universal-surface-sheen" x1="0%" y1="0%" x2="100%" y2="100%">
      <stop offset="0%" stop-color="var(--art-sheen)" stop-opacity="var(--art-sheen-opacity)"/>
      <stop offset="46%" stop-color="var(--art-sheen)" stop-opacity="0.035"/>
      <stop offset="100%" stop-color="var(--art-panel-tint)" stop-opacity="0.14"/>
    </linearGradient>
    <radialGradient id="svg75e21e21-universal-icon-aura" cx="50%" cy="42%" r="64%">
      <stop offset="0%" stop-color="var(--art-glow)" stop-opacity="var(--art-glow-opacity)"/>
      <stop offset="100%" stop-color="var(--background)" stop-opacity="0"/>
    </radialGradient>
  </defs>
  <rect width="100%" height="100%" fill="var(--background)" id="CANVAS_BG"/>
  <rect width="100%" height="100%" fill="url(#svg75e21e21-napkin-hatch)"/>
  <rect id="UNIVERSAL_EDGE_VIGNETTE" width="100%" height="100%" fill="url(#svg75e21e21-universal-edge-vignette)" opacity="0.62"/>
  <text id="TITLE" x="960.0" y="59" font-size="56" font-weight="700" fill="#f1f5f9" text-anchor="middle" style="font-size: 60px; font-family: Inter, Segoe UI, Kalam, Roboto, Helvetica, Arial, sans-serif; font-weight: 700; letter-spacing:-1.2px;" data-final-font-size="60">
    <tspan x="960.0" dy="68.00px">Layers of Jamaican Cultural Heritage</tspan>
  </text>
  <rect id="TITLE_FRAME" x="134" y="25" width="1652" height="70" fill="none"/>
  <g id="DIAGRAM_MAIN" transform="translate(0, 100)">
    <rect x="880.0" y="120" width="160" height="80" fill="url(#svg75e21e21-lantern-grad)" filter="url(#svg75e21e21-shadow)" stroke="var(--primary-text)" stroke-width="2"/>
    <path d="M 860.0 120 Q 960 60 1060.0 120 Z" fill="var(--primary-text)"/>
    <path d="M 1040.0 160 L 1720 20 L 1720 320 Z" fill="url(#svg75e21e21-beam-grad)" opacity="0.24"/>
    <path d="M 1040 160 L 1718 92" stroke="var(--inverse-text)" stroke-width="2" stroke-opacity="0.12"/>
    <path d="M 1040 160 L 1718 250" stroke="var(--inverse-text)" stroke-width="2" stroke-opacity="0.08"/>
    <path d="M 1040 160 L 1718 92" stroke="var(--inverse-text)" stroke-width="2" stroke-opacity="0.12"/>
    <path d="M 1040 160 L 1718 250" stroke="var(--inverse-text)" stroke-width="2" stroke-opacity="0.08"/>
    <path d="M 1040 160 L 1718 92" stroke="var(--inverse-text)" stroke-width="2" stroke-opacity="0.12"/>
    <path d="M 1040 160 L 1718 250" stroke="var(--inverse-text)" stroke-width="2" stroke-opacity="0.08"/>
    <path d="M 1040 160 L 1718 92" stroke="var(--inverse-text)" stroke-width="2" stroke-opacity="0.12"/>
    <path d="M 1040 160 L 1718 250" stroke="var(--inverse-text)" stroke-width="2" stroke-opacity="0.08"/>
    <path d="M 1040 160 L 1718 92" stroke="var(--inverse-text)" stroke-width="2" stroke-opacity="0.12"/>
    <path d="M 1040 160 L 1718 250" stroke="var(--inverse-text)" stroke-width="2" stroke-opacity="0.08"/>
    <path d="M 1040 160 L 1718 92" stroke="var(--inverse-text)" stroke-width="2" stroke-opacity="0.12"/>
    <path d="M 1040 160 L 1718 250" stroke="var(--inverse-text)" stroke-width="2" stroke-opacity="0.08"/>
    <path d="M 1040 160 L 1718 92" stroke="var(--inverse-text)" stroke-width="2" stroke-opacity="0.12"/>
    <path d="M 1040 160 L 1718 250" stroke="var(--inverse-text)" stroke-width="2" stroke-opacity="0.08"/>
    <path d="M 1040 160 L 1718 92" stroke="var(--inverse-text)" stroke-width="2" stroke-opacity="0.12"/>
    <path d="M 1040 160 L 1718 250" stroke="var(--inverse-text)" stroke-width="2" stroke-opacity="0.08"/>
    <path d="M 1040 160 L 1718 92" stroke="var(--inverse-text)" stroke-width="2" stroke-opacity="0.12"/>
    <path d="M 1040 160 L 1718 250" stroke="var(--inverse-text)" stroke-width="2" stroke-opacity="0.08"/>
    <path d="M 1040 160 L 1718 92" stroke="var(--inverse-text)" stroke-width="2" stroke-opacity="0.12"/>
    <path d="M 1040 160 L 1718 250" stroke="var(--inverse-text)" stroke-width="2" stroke-opacity="0.08"/>
    <path d="M 1040 160 L 1718 92" stroke="var(--inverse-text)" stroke-width="2" stroke-opacity="0.12"/>
    <path d="M 1040 160 L 1718 250" stroke="var(--inverse-text)" stroke-width="2" stroke-opacity="0.08"/>
    <path d="M 1040 160 L 1718 92" stroke="var(--inverse-text)" stroke-width="2" stroke-opacity="0.12"/>
    <path d="M 1040 160 L 1718 250" stroke="var(--inverse-text)" stroke-width="2" stroke-opacity="0.08"/>
    <path d="M 1040 160 L 1718 92" stroke="var(--inverse-text)" stroke-width="2" stroke-opacity="0.12"/>
    <path d="M 1040 160 L 1718 250" stroke="var(--inverse-text)" stroke-width="2" stroke-opacity="0.08"/>
    <path d="M 1040 160 L 1718 92" stroke="var(--inverse-text)" stroke-width="2" stroke-opacity="0.12"/>
    <path d="M 1040 160 L 1718 250" stroke="var(--inverse-text)" stroke-width="2" stroke-opacity="0.08"/>
    <path d="M 1040 160 L 1718 92" stroke="var(--inverse-text)" stroke-width="2" stroke-opacity="0.12"/>
    <path d="M 1040 160 L 1718 250" stroke="var(--inverse-text)" stroke-width="2" stroke-opacity="0.08"/>
    <path d="M 1040 160 L 1718 92" stroke="var(--inverse-text)" stroke-width="2" stroke-opacity="0.12"/>
    <path d="M 1040 160 L 1718 250" stroke="var(--inverse-text)" stroke-width="2" stroke-opacity="0.08"/>
    <path d="M 1040 160 L 1718 92" stroke="var(--inverse-text)" stroke-width="2" stroke-opacity="0.12"/>
    <path d="M 1040 160 L 1718 250" stroke="var(--inverse-text)" stroke-width="2" stroke-opacity="0.08"/>
    <path d="M 1040 160 L 1718 92" stroke="var(--inverse-text)" stroke-width="2" stroke-opacity="0.12"/>
    <path d="M 1040 160 L 1718 250" stroke="var(--inverse-text)" stroke-width="2" stroke-opacity="0.08"/>
    <path d="M 1040 160 L 1718 92" stroke="var(--inverse-text)" stroke-width="2" stroke-opacity="0.12"/>
    <path d="M 1040 160 L 1718 250" stroke="var(--inverse-text)" stroke-width="2" stroke-opacity="0.08"/>
    <path d="M 1040 160 L 1718 92" stroke="var(--inverse-text)" stroke-width="2" stroke-opacity="0.12"/>
    <path d="M 1040 160 L 1718 250" stroke="var(--inverse-text)" stroke-width="2" stroke-opacity="0.08"/>
    <path d="M 1040 160 L 1718 92" stroke="var(--inverse-text)" stroke-width="2" stroke-opacity="0.12"/>
    <path d="M 1040 160 L 1718 250" stroke="var(--inverse-text)" stroke-width="2" stroke-opacity="0.08"/>
    <path d="M 1040 160 L 1718 92" stroke="var(--inverse-text)" stroke-width="2" stroke-opacity="0.12"/>
    <path d="M 1040 160 L 1718 250" stroke="var(--inverse-text)" stroke-width="2" stroke-opacity="0.08"/>
    <path d="M 1040 160 L 1718 92" stroke="var(--inverse-text)" stroke-width="2" stroke-opacity="0.12"/>
    <path d="M 1040 160 L 1718 250" stroke="var(--inverse-text)" stroke-width="2" stroke-opacity="0.08"/>
    <path d="M 1040 160 L 1718 92" stroke="var(--inverse-text)" stroke-width="2" stroke-opacity="0.12"/>
    <path d="M 1040 160 L 1718 250" stroke="var(--inverse-text)" stroke-width="2" stroke-opacity="0.08"/>
    <path d="M 1040 160 L 1718 92" stroke="var(--inverse-text)" stroke-width="2" stroke-opacity="0.12"/>
    <path d="M 1040 160 L 1718 250" stroke="var(--inverse-text)" stroke-width="2" stroke-opacity="0.08"/>
    <path d="M 1040 160 L 1718 92" stroke="var(--inverse-text)" stroke-width="2" stroke-opacity="0.12"/>
    <path d="M 1040 160 L 1718 250" stroke="var(--inverse-text)" stroke-width="2" stroke-opacity="0.08"/>
    <path d="M 1040 160 L 1718 92" stroke="var(--inverse-text)" stroke-width="2" stroke-opacity="0.12"/>
    <path d="M 1040 160 L 1718 250" stroke="var(--inverse-text)" stroke-width="2" stroke-opacity="0.08"/>
    <path d="M 1040 160 L 1718 92" stroke="var(--inverse-text)" stroke-width="2" stroke-opacity="0.12"/>
    <path d="M 1040 160 L 1718 250" stroke="var(--inverse-text)" stroke-width="2" stroke-opacity="0.08"/>
    <path d="M 1040 160 L 1718 92" stroke="var(--inverse-text)" stroke-width="2" stroke-opacity="0.12"/>
    <path d="M 1040 160 L 1718 250" stroke="var(--inverse-text)" stroke-width="2" stroke-opacity="0.08"/>
    <path id="ITEM_5_BG" d="M 870.0 200.0 L 1050.0 200.0 L 1062.0 322.0 L 858.0 322.0 Z" fill="var(--accent-3)" filter="url(#svg75e21e21-shadow)" stroke="var(--background)" stroke-width="2" fill-opacity="1.0"/>
    <path d="M 870 200 L 1050 200 L 1110 810 L 810 810 Z" fill="url(#svg75e21e21-universal-surface-sheen)" opacity="0.06"/>
    <path d="M 870 200 L 1050 200 L 1110 810 L 810 810 Z" fill="url(#svg75e21e21-universal-surface-sheen)" opacity="0.06"/>
    <path d="M 870 200 L 1050 200 L 1110 810 L 810 810 Z" fill="url(#svg75e21e21-universal-surface-sheen)" opacity="0.06"/>
    <path d="M 870 200 L 1050 200 L 1110 810 L 810 810 Z" fill="url(#svg75e21e21-universal-surface-sheen)" opacity="0.06"/>
    <path d="M 870 200 L 1050 200 L 1110 810 L 810 810 Z" fill="url(#svg75e21e21-universal-surface-sheen)" opacity="0.06"/>
    <path d="M 870 200 L 1050 200 L 1110 810 L 810 810 Z" fill="url(#svg75e21e21-universal-surface-sheen)" opacity="0.06"/>
    <path d="M 870 200 L 1050 200 L 1110 810 L 810 810 Z" fill="url(#svg75e21e21-universal-surface-sheen)" opacity="0.06"/>
    <path d="M 870 200 L 1050 200 L 1110 810 L 810 810 Z" fill="url(#svg75e21e21-universal-surface-sheen)" opacity="0.06"/>
    <path d="M 870 200 L 1050 200 L 1110 810 L 810 810 Z" fill="url(#svg75e21e21-universal-surface-sheen)" opacity="0.06"/>
    <path d="M 870 200 L 1050 200 L 1110 810 L 810 810 Z" fill="url(#svg75e21e21-universal-surface-sheen)" opacity="0.06"/>
    <path d="M 870 200 L 1050 200 L 1110 810 L 810 810 Z" fill="url(#svg75e21e21-universal-surface-sheen)" opacity="0.06"/>
    <path d="M 870 200 L 1050 200 L 1110 810 L 810 810 Z" fill="url(#svg75e21e21-universal-surface-sheen)" opacity="0.06"/>
    <path d="M 870 200 L 1050 200 L 1110 810 L 810 810 Z" fill="url(#svg75e21e21-universal-surface-sheen)" opacity="0.06"/>
    <path d="M 870 200 L 1050 200 L 1110 810 L 810 810 Z" fill="url(#svg75e21e21-universal-surface-sheen)" opacity="0.06"/>
    <path d="M 870 200 L 1050 200 L 1110 810 L 810 810 Z" fill="url(#svg75e21e21-universal-surface-sheen)" opacity="0.06"/>
    <path d="M 870 200 L 1050 200 L 1110 810 L 810 810 Z" fill="url(#svg75e21e21-universal-surface-sheen)" opacity="0.06"/>
    <path d="M 870 200 L 1050 200 L 1110 810 L 810 810 Z" fill="url(#svg75e21e21-universal-surface-sheen)" opacity="0.06"/>
    <path d="M 870 200 L 1050 200 L 1110 810 L 810 810 Z" fill="url(#svg75e21e21-universal-surface-sheen)" opacity="0.06"/>
    <path d="M 870 200 L 1050 200 L 1110 810 L 810 810 Z" fill="url(#svg75e21e21-universal-surface-sheen)" opacity="0.06"/>
    <path d="M 870 200 L 1050 200 L 1110 810 L 810 810 Z" fill="url(#svg75e21e21-universal-surface-sheen)" opacity="0.06"/>
    <path d="M 870 200 L 1050 200 L 1110 810 L 810 810 Z" fill="url(#svg75e21e21-universal-surface-sheen)" opacity="0.06"/>
    <path d="M 870 200 L 1050 200 L 1110 810 L 810 810 Z" fill="url(#svg75e21e21-universal-surface-sheen)" opacity="0.06"/>
    <path d="M 870 200 L 1050 200 L 1110 810 L 810 810 Z" fill="url(#svg75e21e21-universal-surface-sheen)" opacity="0.06"/>
    <path d="M 870 200 L 1050 200 L 1110 810 L 810 810 Z" fill="url(#svg75e21e21-universal-surface-sheen)" opacity="0.06"/>
    <path d="M 870 200 L 1050 200 L 1110 810 L 810 810 Z" fill="url(#svg75e21e21-universal-surface-sheen)" opacity="0.06"/>
    <path d="M 870 200 L 1050 200 L 1110 810 L 810 810 Z" fill="url(#svg75e21e21-universal-surface-sheen)" opacity="0.06"/>
    <path d="M 870 200 L 1050 200 L 1110 810 L 810 810 Z" fill="url(#svg75e21e21-universal-surface-sheen)" opacity="0.06"/>
    <path d="M 870 200 L 1050 200 L 1110 810 L 810 810 Z" fill="url(#svg75e21e21-universal-surface-sheen)" opacity="0.06"/>
    <path d="M 870 200 L 1050 200 L 1110 810 L 810 810 Z" fill="url(#svg75e21e21-universal-surface-sheen)" opacity="0.06"/>
    <line x1="890.0" y1="210.0" x2="878.0" y2="312.0" stroke="var(--background)" stroke-width="3" stroke-opacity="0.3"/>
    <circle cx="960" cy="261.0" r="43" fill="var(--icon-pad-bg)" stroke="none"/>
    <circle id="ITEM_5_RING" cx="960" cy="261.0" r="36" fill="none" stroke="var(--accent-2)" stroke-width="3" filter="url(#svg75e21e21-shadow)" stroke-dasharray="6 4"/>
    <circle id="ITEM_5_PAD" cx="960.00" cy="261.00" r="44.80" fill="var(--icon-pad-bg)" stroke="var(--primary-text)" stroke-width="2" opacity="0.9"/>
    <circle id="ITEM_5_PAD_INNER" cx="960.00" cy="261.00" r="34.94" fill="var(--accent-3)" fill-opacity="0.22"/>
    <g id="ITEM_5_ICON" transform="translate(932.0, 233.0)" data-icon-size="56">
      <g transform="translate(-9.905355932203387,-9.905355932203385) scale(3.1587796610169487)" vector-effect="non-scaling-stroke" stroke-width="2.38" stroke-linecap="round" stroke-linejoin="round" stroke-opacity="1.0">
        <path d="M15 2H6a2 2 0 0 0-2 2v16a2 2 0 0 0 2 2h12a2 2 0 0 0 2-2V7Z" vector-effect="non-scaling-stroke" fill="none" stroke="#f1f5f9"/>
        <path d="M14 2v4a2 2 0 0 0 2 2h4" vector-effect="non-scaling-stroke" fill="none" stroke="#f1f5f9"/>
      </g>
    </g>
    <line id="ITEM_5_LINE" x1="1056.0" y1="261.0" x2="1136.0" y2="261.0" stroke="var(--accent-3)" stroke-width="3" stroke-dasharray="6 4" stroke-opacity="1.0"/>
    <circle id="ITEM_5_DOT" cx="1136.0" cy="261.0" r="5" fill="var(--accent-3)" fill-opacity="1.0"/>
    <rect id="ITEM_5_LABEL_BG" x="1146.0" y="205.0" width="420.0" height="207.0" rx="18" fill="var(--panel)" fill-opacity="0.88" stroke="var(--accent-5)" stroke-opacity="0.32" stroke-width="1.5"/>
    <text id="ITEM_5_HEAD" x="1166.0" y="221.0" font-weight="bold" font-size="34" fill="var(--accent-3)" text-anchor="start" data-bg-id="ITEM_5_LABEL_BG" fill-opacity="1.0" stroke="none" style="font-size: 23px; font-family: Inter, Segoe UI, Kalam, Roboto, Helvetica, Arial, sans-serif; font-weight: 700; letter-spacing:-0.4px;" data-final-font-size="23">
      <tspan x="1166.0" dy="30.18px">Modern Preservation</tspan>
    </text>
    <rect id="ITEM_5_HEAD_FRAME" x="1166.0" y="221.0" width="220" height="50" fill="none"/>
    <text id="ITEM_5_BODY" x="1166.0" y="276.0" font-size="20" fill="var(--primary-text)" text-anchor="start" data-bg-id="ITEM_5_LABEL_BG" style="font-size: 26px; font-family: Inter, Segoe UI, Kalam, Roboto, Helvetica, Arial, sans-serif; font-weight: 400;" data-final-font-size="26">
      <tspan x="1166.0" dy="26.86px">Archives of Miss Lou</tspan>
      <tspan x="1166.0" dy="29.90px">and Beckwith's oral story</tspan>
      <tspan x="1166.0" dy="29.90px">collections</tspan>
    </text>
    <rect id="ITEM_5_BODY_FRAME" x="1166" y="276.0" width="380" height="120" fill="none"/>
    <path id="ITEM_4_BG" d="M 858.0 322.0 L 1062.0 322.0 L 1074.0 444.0 L 846.0 444.0 Z" fill="var(--accent-2)" filter="url(#svg75e21e21-shadow)" stroke="var(--background)" stroke-width="2" fill-opacity="1.0"/>
    <line x1="878.0" y1="332.0" x2="866.0" y2="434.0" stroke="var(--background)" stroke-width="3" stroke-opacity="0.3"/>
    <circle cx="960" cy="383.0" r="43" fill="var(--icon-pad-bg)" stroke="none"/>
    <circle id="ITEM_4_RING" cx="960" cy="383.0" r="36" fill="none" stroke="var(--accent-1)" stroke-width="3" filter="url(#svg75e21e21-shadow)" stroke-dasharray="6 4"/>
    <circle id="ITEM_4_PAD" cx="960.00" cy="383.00" r="44.80" fill="var(--icon-pad-bg)" stroke="var(--primary-text)" stroke-width="2" opacity="0.9"/>
    <circle id="ITEM_4_PAD_INNER" cx="960.00" cy="383.00" r="34.94" fill="var(--accent-2)" fill-opacity="0.22"/>
    <g id="ITEM_4_ICON" transform="translate(932.0, 355.0)" data-icon-size="56">
      <g transform="translate(-18.591999999999995,-18.591999999999995) scale(3.8826666666666663)" vector-effect="non-scaling-stroke" stroke-width="2.38" stroke-linecap="round" stroke-linejoin="round" stroke-opacity="1.0">
        <path d="M12 12m-3 0a3 3 0 1 0 6 0a3 3 0 1 0 -6 0" vector-effect="non-scaling-stroke" fill="none" stroke="#f1f5f9"/>
        <path d="M4 4m0 2a2 2 0 0 1 2 -2h12a2 2 0 0 1 2 2v12a2 2 0 0 1 -2 2h-12a2 2 0 0 1 -2 -2z" vector-effect="non-scaling-stroke" fill="none" stroke="#f1f5f9"/>
      </g>
    </g>
    <line id="ITEM_4_LINE" x1="852.0" y1="383.0" x2="772.0" y2="383.0" stroke="var(--accent-2)" stroke-width="3" stroke-dasharray="6 4" stroke-opacity="1.0"/>
    <circle id="ITEM_4_DOT" cx="772.0" cy="383.0" r="5" fill="var(--accent-2)" fill-opacity="1.0"/>
    <rect id="ITEM_4_LABEL_BG" x="342.0" y="327.0" width="420.0" height="207.0" rx="18" fill="var(--panel)" fill-opacity="0.88" stroke="var(--accent-4)" stroke-opacity="0.32" stroke-width="1.5"/>
    <text id="ITEM_4_HEAD" x="742.0" y="343.0" font-weight="bold" font-size="34" fill="var(--accent-2)" text-anchor="end" data-bg-id="ITEM_4_LABEL_BG" fill-opacity="1.0" stroke="none" style="font-size: 25px; font-family: Inter, Segoe UI, Kalam, Roboto, Helvetica, Arial, sans-serif; font-weight: 700; letter-spacing:-0.4px;" data-final-font-size="25">
      <tspan x="742.0" dy="30.62px">Creole Performance</tspan>
    </text>
    <rect id="ITEM_4_HEAD_FRAME" x="522.0" y="343.0" width="220" height="50" fill="none"/>
    <text id="ITEM_4_BODY" x="742.0" y="398.0" font-size="20" fill="var(--primary-text)" text-anchor="end" data-bg-id="ITEM_4_LABEL_BG" style="font-size: 26px; font-family: Inter, Segoe UI, Kalam, Roboto, Helvetica, Arial, sans-serif; font-weight: 400;" data-final-font-size="26">
      <tspan x="742.0" dy="26.86px">Jonkonnu masquerades featuring</tspan>
      <tspan x="742.0" dy="29.90px">Cow Head and Horse Head</tspan>
      <tspan x="742.0" dy="29.90px">characters</tspan>
    </text>
    <rect id="ITEM_4_BODY_FRAME" x="362" y="398.0" width="380" height="120" fill="none"/>
    <path id="ITEM_3_BG" d="M 846.0 444.0 L 1074.0 444.0 L 1086.0 566.0 L 834.0 566.0 Z" fill="var(--accent-1)" filter="url(#svg75e21e21-shadow)" stroke="var(--background)" stroke-width="2" fill-opacity="1.0"/>
    <line x1="866.0" y1="454.0" x2="854.0" y2="556.0" stroke="var(--background)" stroke-width="3" stroke-opacity="0.3"/>
    <circle cx="960" cy="505.0" r="43" fill="var(--icon-pad-bg)" stroke="none"/>
    <circle id="ITEM_3_RING" cx="960" cy="505.0" r="36" fill="none" stroke="var(--accent-5)" stroke-width="3" filter="url(#svg75e21e21-shadow)" stroke-dasharray="6 4"/>
    <circle id="ITEM_3_PAD" cx="960.00" cy="505.00" r="44.80" fill="var(--icon-pad-bg)" stroke="var(--primary-text)" stroke-width="2" opacity="0.9"/>
    <circle id="ITEM_3_PAD_INNER" cx="960.00" cy="505.00" r="34.94" fill="var(--accent-1)" fill-opacity="0.22"/>
    <g id="ITEM_3_ICON" transform="translate(932.0, 477.0)" data-icon-size="56">
      <g transform="translate(-11.582584070796461,-11.891823008849553) scale(2.4739115044247786)">
        <path d="M23.5103 2.01H8.60027V2H4.45026V5H6.95026V27.07C6.95026 28.69 8.27026 30.01 9.89026 30.01H25.5603C26.3303 30.01 26.9503 29.39 26.9503 28.62V5.45C26.9503 3.55 25.4103 2.01 23.5103 2.01Z" fill="#FFDEA7"/>
        <path d="M10.8603 29.99C10.8603 29.99 13.1003 29.66 13.5903 27.49C13.6603 27.19 14.0003 26.97 14.4003 26.97H29.1303C29.6503 26.97 30.0403 27.33 29.9503 27.71C29.7203 28.6 29.3503 30 25.5803 30C20.0103 30 10.8603 29.99 10.8603 29.99Z" fill="#E19747"/>
        <path d="M6.95026 5C6.95026 3.34 5.83027 2 4.45026 2C3.26026 2 2.27028 3 2.01028 4.33C1.95028 4.67 2.16026 5 2.45026 5H6.95026Z" fill="#D3883E"/>
        <path d="M10.4203 11.87C10.1441 11.87 9.92029 12.0939 9.92029 12.37C9.92029 12.6461 10.1441 12.87 10.4203 12.87H23.5003C23.7764 12.87 24.0003 12.6461 24.0003 12.37C24.0003 12.0939 23.7764 11.87 23.5003 11.87H10.4203ZM9.98029 15.33C9.98029 15.0539 10.2041 14.83 10.4803 14.83H23.5003C23.7764 14.83 24.0003 15.0539 24.0003 15.33C24.0003 15.6062 23.7764 15.83 23.5003 15.83H10.4803C10.2041 15.83 9.98029 15.6062 9.98029 15.33ZM10.4803 17.85C10.2041 17.85 9.98029 18.0738 9.98029 18.35C9.98029 18.6261 10.2041 18.85 10.4803 18.85H23.5003C23.7764 18.85 24.0003 18.6261 24.0003 18.35C24.0003 18.0738 23.7764 17.85 23.5003 17.85H10.4803ZM10.5103 20.83C10.2341 20.83 10.0103 21.0539 10.0103 21.33C10.0103 21.6062 10.2341 21.83 10.5103 21.83H18.4703C18.7464 21.83 18.9703 21.6062 18.9703 21.33C18.9703 21.0539 18.7464 20.83 18.4703 20.83H10.5103Z" fill="#D3883E"/>
      </g>
    </g>
    <line id="ITEM_3_LINE" x1="1080.0" y1="505.0" x2="1160.0" y2="505.0" stroke="var(--accent-1)" stroke-width="3" stroke-dasharray="6 4" stroke-opacity="1.0"/>
    <circle id="ITEM_3_DOT" cx="1160.0" cy="505.0" r="5" fill="var(--accent-1)" fill-opacity="1.0"/>
    <rect id="ITEM_3_LABEL_BG" x="1170.0" y="449.0" width="420.0" height="207.0" rx="18" fill="var(--panel)" fill-opacity="0.88" stroke="var(--accent-3)" stroke-opacity="0.32" stroke-width="1.5"/>
    <text id="ITEM_3_HEAD" x="1190.0" y="465.0" font-weight="bold" font-size="34" fill="var(--accent-1)" text-anchor="start" data-bg-id="ITEM_3_LABEL_BG" fill-opacity="1.0" stroke="none" style="font-size: 23px; font-family: Inter, Segoe UI, Kalam, Roboto, Helvetica, Arial, sans-serif; font-weight: 700; letter-spacing:-0.4px;" data-final-font-size="23">
      <tspan x="1190.0" dy="30.18px">Colonial Resistance</tspan>
    </text>
    <rect id="ITEM_3_HEAD_FRAME" x="1190.0" y="465.0" width="220" height="50" fill="none"/>
    <text id="ITEM_3_BODY" x="1190.0" y="520.0" font-size="20" fill="var(--primary-text)" text-anchor="start" data-bg-id="ITEM_3_LABEL_BG" style="font-size: 26px; font-family: Inter, Segoe UI, Kalam, Roboto, Helvetica, Arial, sans-serif; font-weight: 400;" data-final-font-size="26">
      <tspan x="1190.0" dy="32.84px">Obeah as a field of spiritual</tspan>
      <tspan x="1190.0" dy="29.90px">power and legal conflict</tspan>
    </text>
    <rect id="ITEM_3_BODY_FRAME" x="1190" y="520.0" width="380" height="120" fill="none"/>
    <path id="ITEM_2_BG" d="M 834.0 566.0 L 1086.0 566.0 L 1098.0 688.0 L 822.0 688.0 Z" fill="var(--accent-6)" filter="url(#svg75e21e21-shadow)" stroke="var(--background)" stroke-width="2" fill-opacity="1.0"/>
    <line x1="854.0" y1="576.0" x2="842.0" y2="678.0" stroke="var(--background)" stroke-width="3" stroke-opacity="0.3"/>
    <circle cx="960" cy="627.0" r="43" fill="var(--icon-pad-bg)" stroke="none"/>
    <circle id="ITEM_2_RING" cx="960" cy="627.0" r="36" fill="none" stroke="var(--accent-4)" stroke-width="3" filter="url(#svg75e21e21-shadow)" stroke-dasharray="6 4"/>
    <circle id="ITEM_2_PAD" cx="960.00" cy="627.00" r="44.80" fill="var(--icon-pad-bg)" stroke="var(--primary-text)" stroke-width="2" opacity="0.9"/>
    <circle id="ITEM_2_PAD_INNER" cx="960.00" cy="627.00" r="34.94" fill="var(--accent-6)" fill-opacity="0.22"/>
    <g id="ITEM_2_ICON" transform="translate(932.0, 599.0)" data-icon-size="56">
      <g transform="translate(-11.582584070796461,-11.891823008849553) scale(2.4739115044247786)">
        <path d="M25.6588 18.2389C25.6588 18.2489 25.6589 18.2589 25.6589 18.2689C25.6589 23.6389 21.3089 28.9989 15.9289 28.9989C10.5489 28.9989 6.19885 23.6389 6.19885 18.2689C6.19885 18.1196 6.20221 17.9713 6.20886 17.8239V13.1089H7.70707C9.43141 10.438 12.4669 8.69885 15.9289 8.69885C19.3908 8.69885 22.4263 10.438 24.1506 13.1089H25.6589V18.2389H25.6588Z" fill="#CA0B4A"/>
        <path d="M8.35254 18.1564V25.909C8.35254 26.393 8.74492 26.7854 9.22894 26.7854C9.71296 26.7854 10.1053 26.393 10.1053 25.909V19.8612C9.4518 19.3688 8.8626 18.7956 8.35254 18.1564ZM15.0634 21.77C15.0628 21.7829 15.0625 21.7959 15.0625 21.809V28.819C15.0625 29.303 15.4549 29.6954 15.9389 29.6954C16.4229 29.6954 16.8153 29.303 16.8153 28.819V21.809C16.8153 21.7959 16.815 21.7829 16.8144 21.77C16.5261 21.7958 16.234 21.8089 15.9389 21.8089C15.6438 21.8089 15.3517 21.7958 15.0634 21.77ZM21.7726 19.8611V25.909C21.7726 26.393 22.165 26.7854 22.649 26.7854C23.133 26.7854 23.5254 26.393 23.5254 25.909V18.1562C23.0153 18.7954 22.4261 19.3686 21.7726 19.8611Z" fill="#D3D3D3"/>
        <path d="M8.35254 18.1564V20.479C8.35254 20.963 8.74492 21.3554 9.22894 21.3554C9.71296 21.3554 10.1053 20.963 10.1053 20.479V19.8612C9.4518 19.3688 8.8626 18.7956 8.35254 18.1564ZM15.0625 21.7699V23.419C15.0625 23.903 15.4549 24.2954 15.9389 24.2954C16.4229 24.2954 16.8153 23.903 16.8153 23.419V21.7699C16.5266 21.7957 16.2343 21.8089 15.9389 21.8089C15.6435 21.8089 15.3512 21.7957 15.0625 21.7699ZM21.7726 19.8611V20.479C21.7726 20.963 22.165 21.3554 22.649 21.3554C23.133 21.3554 23.5254 20.963 23.5254 20.479V18.1562C23.0153 18.7954 22.4261 19.3686 21.7726 19.8611ZM15.9389 26.6125C16.4229 26.6125 16.8153 27.0049 16.8153 27.4889V29.2189C16.8153 29.703 16.4229 30.0953 15.9389 30.0953C15.4549 30.0953 15.0625 29.703 15.0625 29.2189V27.4889C15.0625 27.0049 15.4549 26.6125 15.9389 26.6125ZM23.5254 24.4589C23.5254 23.9749 23.133 23.5825 22.649 23.5825C22.165 23.5825 21.7726 23.9749 21.7726 24.4589V25.7289C21.7726 26.2129 22.165 26.6053 22.649 26.6053C23.133 26.6053 23.5254 26.2129 23.5254 25.7289V24.4589ZM9.22894 23.5725C9.71296 23.5725 10.1053 23.9649 10.1053 24.4489V25.7289C10.1053 26.2129 9.71296 26.6053 9.22894 26.6053C8.74492 26.6053 8.35254 26.2129 8.35254 25.7289V24.4489C8.35254 23.9649 8.74492 23.5725 9.22894 23.5725Z" fill="#FFB02E"/>
        <path d="M15.9389 22.8089C21.2961 22.8089 25.6389 18.4661 25.6389 13.1089C25.6389 7.75177 21.2961 3.40894 15.9389 3.40894C10.5817 3.40894 6.23889 7.75177 6.23889 13.1089C6.23889 18.4661 10.5817 22.8089 15.9389 22.8089Z" fill="#FFE5D9"/>
        <path d="M23.8789 13.0989C23.8789 8.71894 20.3189 5.15894 15.9389 5.15894C11.5589 5.15894 7.98889 8.72894 7.99889 13.0989C7.99889 17.4789 11.5589 21.0389 15.9389 21.0389C20.3189 21.0389 23.8789 17.4789 23.8789 13.0989ZM6.23889 13.1089C6.23889 7.74894 10.5789 3.40894 15.9389 3.40894C21.2889 3.40894 25.6389 7.74894 25.6389 13.1089C25.6389 18.4689 21.2989 22.8089 15.9389 22.8089C10.5789 22.8089 6.23889 18.4689 6.23889 13.1089ZM6.26886 19.309C6.78886 24.189 10.9189 27.989 15.9389 27.989C20.9489 27.989 25.0789 24.189 25.6089 19.309C25.6489 19.659 25.6689 20.009 25.6689 20.359C25.6689 25.739 21.3089 30.089 15.9389 30.089C10.5589 30.089 6.20886 25.729 6.20886 20.359C6.20886 19.999 6.22886 19.649 6.26886 19.309Z" fill="#D3D3D3"/>
        <path d="M12.4888 13.3988L13.3988 12.4888L3.80885 2.32885C3.40885 1.89885 2.72885 1.88885 2.30885 2.30885C1.88885 2.72885 1.89885 3.40885 2.32885 3.80885L12.4888 13.3988ZM19.509 13.3988L18.599 12.4888L28.189 2.32885C28.589 1.89885 29.269 1.88885 29.689 2.30885C30.109 2.72885 30.099 3.40885 29.669 3.80885L19.509 13.3988Z" fill="#F3C07B"/>
        <path d="M12.6188 14.4388C13.1188 14.9388 13.9388 14.9388 14.4388 14.4388C14.9388 13.9388 14.9388 13.1188 14.4388 12.6188L13.3688 11.5488C12.8688 11.0488 12.0488 11.0488 11.5488 11.5488C11.0488 12.0488 11.0488 12.8688 11.5488 13.3688L12.6188 14.4388ZM19.379 14.4388C18.879 14.9388 18.059 14.9388 17.559 14.4388C17.059 13.9388 17.059 13.1188 17.559 12.6188L18.629 11.5488C19.129 11.0488 19.949 11.0488 20.449 11.5488C20.949 12.0488 20.949 12.8688 20.449 13.3688L19.379 14.4388Z" fill="#F3AD61"/>
      </g>
    </g>
    <line id="ITEM_2_LINE" x1="828.0" y1="627.0" x2="748.0" y2="627.0" stroke="var(--accent-6)" stroke-width="3" stroke-dasharray="6 4" stroke-opacity="1.0"/>
    <circle id="ITEM_2_DOT" cx="748.0" cy="627.0" r="5" fill="var(--accent-6)" fill-opacity="1.0"/>
    <rect id="ITEM_2_LABEL_BG" x="318.0" y="571.0" width="420.0" height="207.0" rx="18" fill="var(--panel)" fill-opacity="0.88" stroke="var(--accent-2)" stroke-opacity="0.32" stroke-width="1.5"/>
    <text id="ITEM_2_HEAD" x="718.0" y="587.0" font-weight="bold" font-size="34" fill="var(--accent-6)" text-anchor="end" data-bg-id="ITEM_2_LABEL_BG" fill-opacity="1.0" stroke="none" style="font-size: 26px; font-family: Inter, Segoe UI, Kalam, Roboto, Helvetica, Arial, sans-serif; font-weight: 700; letter-spacing:-0.4px;" data-final-font-size="26">
      <tspan x="718.0" dy="30.85px">African Retention</tspan>
    </text>
    <rect id="ITEM_2_HEAD_FRAME" x="498.0" y="587.0" width="220" height="50" fill="none"/>
    <text id="ITEM_2_BODY" x="718.0" y="642.0" font-size="20" fill="var(--primary-text)" text-anchor="end" data-bg-id="ITEM_2_LABEL_BG" style="font-size: 26px; font-family: Inter, Segoe UI, Kalam, Roboto, Helvetica, Arial, sans-serif; font-weight: 400;" data-final-font-size="26">
      <tspan x="718.0" dy="26.86px">Kromanti ceremonies and</tspan>
      <tspan x="718.0" dy="29.90px">ancestral spirit language</tspan>
      <tspan x="718.0" dy="29.90px">in Maroon communities</tspan>
    </text>
    <rect id="ITEM_2_BODY_FRAME" x="338" y="642.0" width="380" height="120" fill="none"/>
    <path id="ITEM_1_BG" d="M 822.0 688.0 L 1098.0 688.0 L 1110.0 810.0 L 810.0 810.0 Z" fill="var(--accent-5)" filter="url(#svg75e21e21-shadow)" stroke="var(--background)" stroke-width="2" fill-opacity="1.0"/>
    <line x1="842.0" y1="698.0" x2="830.0" y2="800.0" stroke="var(--background)" stroke-width="3" stroke-opacity="0.3"/>
    <circle cx="960" cy="749.0" r="43" fill="var(--icon-pad-bg)" stroke="none"/>
    <circle id="ITEM_1_RING" cx="960" cy="749.0" r="36" fill="none" stroke="var(--accent-6)" stroke-width="3" filter="url(#svg75e21e21-shadow)" stroke-dasharray="6 4"/>
    <circle id="ITEM_1_PAD" cx="960.00" cy="749.00" r="44.80" fill="var(--icon-pad-bg)" stroke="var(--primary-text)" stroke-width="2" opacity="0.9"/>
    <circle id="ITEM_1_PAD_INNER" cx="960.00" cy="749.00" r="34.94" fill="var(--accent-5)" fill-opacity="0.22"/>
    <g id="ITEM_1_ICON" transform="translate(932.0, 721.0)" data-icon-size="56">
      <g transform="translate(-9.905355932203385,-9.905355932203385) scale(3.1587796610169487)" vector-effect="non-scaling-stroke" stroke-width="2.38" stroke-linecap="round" stroke-linejoin="round" stroke-opacity="1.0">
        <path d="m2 2 20 20" vector-effect="non-scaling-stroke" fill="none" stroke="#f1f5f9"/>
        <path d="M8.35 2.69A10 10 0 0 1 21.3 15.65" vector-effect="non-scaling-stroke" fill="none" stroke="#f1f5f9"/>
        <path d="M19.08 19.08A10 10 0 1 1 4.92 4.92" vector-effect="non-scaling-stroke" fill="none" stroke="#f1f5f9"/>
      </g>
    </g>
    <line id="ITEM_1_LINE" x1="1104.0" y1="749.0" x2="1184.0" y2="749.0" stroke="var(--accent-5)" stroke-width="3" stroke-dasharray="6 4" stroke-opacity="1.0"/>
    <circle id="ITEM_1_DOT" cx="1184.0" cy="749.0" r="5" fill="var(--accent-5)" fill-opacity="1.0"/>
    <rect id="ITEM_1_LABEL_BG" x="1194.0" y="693.0" width="420.0" height="207.0" rx="18" fill="var(--panel)" fill-opacity="0.88" stroke="var(--accent-1)" stroke-opacity="0.32" stroke-width="1.5"/>
    <text id="ITEM_1_HEAD" x="1214.0" y="709.0" font-weight="bold" font-size="34" fill="var(--accent-5)" text-anchor="start" data-bg-id="ITEM_1_LABEL_BG" fill-opacity="1.0" stroke="none" style="font-size: 21px; font-family: Inter, Segoe UI, Kalam, Roboto, Helvetica, Arial, sans-serif; font-weight: 700; letter-spacing:-0.4px;" data-final-font-size="21">
      <tspan x="1214.0" dy="17.65px">Indigenous</tspan>
      <tspan x="1214.0" dy="24.15px">Foundations</tspan>
    </text>
    <rect id="ITEM_1_HEAD_FRAME" x="1214.0" y="709.0" width="220" height="50" fill="none"/>
    <text id="ITEM_1_BODY" x="1214.0" y="764.0" font-size="20" fill="var(--primary-text)" text-anchor="start" data-bg-id="ITEM_1_LABEL_BG" style="font-size: 26px; font-family: Inter, Segoe UI, Kalam, Roboto, Helvetica, Arial, sans-serif; font-weight: 400;" data-final-font-size="26">
      <tspan x="1214.0" dy="26.86px">Fragmentary Taíno sacred</tspan>
      <tspan x="1214.0" dy="29.90px">geography and carved</tspan>
      <tspan x="1214.0" dy="29.90px">wooden zemís</tspan>
    </text>
    <rect id="ITEM_1_BODY_FRAME" x="1214" y="764.0" width="380" height="120" fill="none"/>
    <rect x="790.0" y="810.0" width="340" height="40" fill="var(--muted-text)" rx="4"/>
    <path d="M 710 850.0 Q 960 820.0 1210 850.0 L 1260 980 L 660 980 Z" fill="var(--panel)"/>
  </g>
</svg>
