<?xml version='1.0' encoding='utf-8'?>
<svg xmlns="http://www.w3.org/2000/svg" width="1920" height="1080" viewBox="0 0 1920 1080" data-theme="dark">
  <style>
        @font-face {
            font-family: 'Inter';
            src: url('assets/fonts/Inter-Regular.ttf') format('truetype');
            font-weight: 400;
            font-style: normal;
            font-display: swap;
        }
        @font-face {
            font-family: 'Inter';
            src: url('assets/fonts/Inter-Bold.ttf') format('truetype');
            font-weight: 600;
            font-style: normal;
            font-display: swap;
        }
        @font-face {
            font-family: 'Inter';
            src: url('assets/fonts/Inter-Bold.ttf') format('truetype');
            font-weight: 800;
            font-style: normal;
            font-display: swap;
        }
        
:root {
    --background: #0f172a;
    --panel: #1e293b;
    --primary-text: #f1f5f9;
    --muted-text: #94a3b8;
    --inverse-text: #0f172a;
    --border: #334155;
    --shadow-color: #000000;
    --icon-pad-bg: #1e293b;
    --art-glow: #7dd3fc;
    --art-glow-opacity: 0.18;
    --art-sheen: #ffffff;
    --art-sheen-opacity: 0.18;
    --art-shadow: #000000;
    --art-shadow-opacity: 0.28;
    --art-muted-line: #64748b;
    --art-panel-tint: #1e293b;
    --font-family: 'Inter', 'Segoe UI', 'Kalam', Roboto, Helvetica, Arial, sans-serif;
    --radius-xl: 16px;
    --font-family-headline: 'Inter', 'Segoe UI', 'Kalam', Roboto, Helvetica, Arial, sans-serif;
    --font-family-body: 'Inter', 'Segoe UI', 'Kalam', Roboto, Helvetica, Arial, sans-serif;
    --font-heading: 'Inter', 'Segoe UI', 'Kalam', Roboto, Helvetica, Arial, sans-serif;
    --font-body: 'Inter', 'Segoe UI', 'Kalam', Roboto, Helvetica, Arial, sans-serif;
    --font-size-h1: 56px;
    --font-size-h2: 40px;
    --font-size-h3: 28px;
    --font-size-body: 24px;
    --font-size-caption: 18px;
    --secondary-text: var(--muted-text);
    --panel-border: var(--border);
    --font-weight-normal: 400;
    --font-weight-medium: 500;
    --font-weight-semibold: 600;
    --font-weight-bold: 700;
    --spacing-gutter-pct: 0.07;
    --spacing-top-pct: 0.15;
    --spacing-bottom-pct: 0.07;
    --spacing-title-y-pct: 0.055;
    --accent-1: #a5b4fc;
    --accent-2: #34d399;
    --accent-3: #f472b6;
    --accent-4: #fbbf24;
    --accent-5: #38bdf8;
    --accent-6: #c084fc;
    --accent-7: #f87171;
    --accent-8: #2dd4bf;
    --accent-9: #fb923c;
    --accent-10: #e879f9;
}
:root[data-theme="dark"] {
    --background: #0f172a;
    --panel: #1e293b;
    --primary-text: #f1f5f9;
    --muted-text: #94a3b8;
    --inverse-text: #0f172a;
    --border: #334155;
    --shadow-color: #000000;
    --icon-pad-bg: #1e293b;
    --art-glow: #7dd3fc;
    --art-glow-opacity: 0.18;
    --art-sheen: #ffffff;
    --art-sheen-opacity: 0.18;
    --art-shadow: #000000;
    --art-shadow-opacity: 0.28;
    --art-muted-line: #64748b;
    --art-panel-tint: #1e293b;
    --accent-1: #a5b4fc;
    --accent-2: #34d399;
    --accent-3: #f472b6;
    --accent-4: #fbbf24;
    --accent-5: #38bdf8;
    --accent-6: #c084fc;
    --accent-7: #f87171;
    --accent-8: #2dd4bf;
    --accent-9: #fb923c;
    --accent-10: #e879f9;
}
:root[data-theme="light"] {
    --background: #f8fafc;
    --panel: #ffffff;
    --primary-text: #0f172a;
    --muted-text: #64748b;
    --inverse-text: #ffffff;
    --border: #e2e8f0;
    --shadow-color: #000000;
    --icon-pad-bg: #1e293b;
    --art-glow: #0891b2;
    --art-glow-opacity: 0.10;
    --art-sheen: #ffffff;
    --art-sheen-opacity: 0.34;
    --art-shadow: #0f172a;
    --art-shadow-opacity: 0.14;
    --art-muted-line: #94a3b8;
    --art-panel-tint: #f1f5f9;
    --accent-1: #4f46e5;
    --accent-2: #059669;
    --accent-3: #db2777;
    --accent-4: #d97706;
    --accent-5: #0284c7;
    --accent-6: #7c3aed;
    --accent-7: #dc2626;
    --accent-8: #0d9488;
    --accent-9: #ea580c;
    --accent-10: #c026d3;
}</style>
  <rect x="0" y="0" width="1.92E+3" height="1.08E+3" fill="#252a34" stroke="none" id="programmatic_background"/>
  <line id="HEADER_DECOR" x1="960.0" x2="1080.0" y1="85.0" y2="85.0" stroke="var(--accent-1)" stroke-width="6" stroke-linecap="round"/>
  <defs>
    <pattern id="svgc420d3ec-napkin-hatch" patternUnits="userSpaceOnUse" width="12" height="12">
      <path d="M -3 12 L 12 -3 M 0 15 L 15 0" fill="none" stroke="var(--primary-text)" stroke-width="1" stroke-opacity="0.05"/>
    </pattern>
    <filter id="svgc420d3ec-shadow" x="-30%" y="-30%" width="160%" height="160%">
      <feDropShadow dx="0" dy="2" stdDeviation="3" flood-color="#000000" flood-opacity="0.08"/>
      <feDropShadow dx="0" dy="6" stdDeviation="10" flood-color="#000000" flood-opacity="0.12"/>
    </filter>
    <marker id="svgc420d3ec-arrowhead" markerWidth="10" markerHeight="10" refX="9" refY="5" orient="auto">
      <path d="M 0 0 L 10 5 L 0 10 Z" fill="var(--accent-1)"/>
    </marker>
    <filter id="svgc420d3ec-text-glow" x="-20%" y="-20%" width="140%" height="140%">
      <feDropShadow dx="0" dy="0" stdDeviation="2" flood-color="#000000" flood-opacity="0.4"/>
    </filter>
    <radialGradient id="svgc420d3ec-universal-edge-vignette" cx="50%" cy="50%" r="72%">
      <stop offset="0%" stop-color="var(--background)" stop-opacity="0"/>
      <stop offset="72%" stop-color="var(--background)" stop-opacity="0.12"/>
      <stop offset="100%" stop-color="var(--primary-text)" stop-opacity="0.08"/>
    </radialGradient>
    <linearGradient id="svgc420d3ec-universal-surface-sheen" x1="0%" y1="0%" x2="100%" y2="100%">
      <stop offset="0%" stop-color="var(--art-sheen)" stop-opacity="var(--art-sheen-opacity)"/>
      <stop offset="46%" stop-color="var(--art-sheen)" stop-opacity="0.035"/>
      <stop offset="100%" stop-color="var(--art-panel-tint)" stop-opacity="0.14"/>
    </linearGradient>
    <radialGradient id="svgc420d3ec-universal-icon-aura" cx="50%" cy="42%" r="64%">
      <stop offset="0%" stop-color="var(--art-glow)" stop-opacity="var(--art-glow-opacity)"/>
      <stop offset="100%" stop-color="var(--background)" stop-opacity="0"/>
    </radialGradient>
  </defs>
  <rect width="100%" height="100%" fill="var(--background)" id="CANVAS_BG"/>
  <rect width="100%" height="100%" fill="url(#svgc420d3ec-napkin-hatch)"/>
  <rect id="UNIVERSAL_EDGE_VIGNETTE" width="100%" height="100%" fill="url(#svgc420d3ec-universal-edge-vignette)" opacity="0.62"/>
  <text id="TITLE" x="960.0" y="59" font-size="48" font-weight="700" fill="#f1f5f9" text-anchor="middle" style="font-size: 60px; font-family: Inter, Segoe UI, Kalam, Roboto, Helvetica, Arial, sans-serif; font-weight: 700; letter-spacing:-1.2px;" data-final-font-size="60">
    <tspan x="960.0" dy="68.00px">Domains of the Seven Cursed Siblings</tspan>
  </text>
  <rect id="TITLE_FRAME" x="134" y="25" width="1652" height="70" fill="none"/>
  <g id="DIAGRAM_MAIN">
    <rect id="ITEM_1_BG" x="31" y="170" width="442" height="400" rx="20" fill="var(--accent-6)" stroke="var(--accent-1)" stroke-width="2" filter="url(#svgc420d3ec-shadow)" fill-opacity="0.4"/>
    <rect x="31" y="186" width="442" height="12" fill="var(--accent-1)"/>
    <rect id="ITEM_1_HEAD_FRAME" x="41.0" y="288" width="422.0" height="98" fill="none"/>
    <rect id="ITEM_1_BODY_FRAME" x="41.0" y="382" width="422.0" height="178" fill="none"/>
    <circle id="ITEM_1_PAD" cx="252" cy="231" r="55" fill="var(--icon-pad-bg)" stroke="var(--primary-text)" opacity="0.9" fill-opacity="0.9" stroke-width="2"/>
    <circle cx="252" cy="231" r="44" fill="none" stroke="var(--accent-1)" stroke-width="3" stroke-dasharray="6 4"/>
    <circle id="ITEM_1_BADGE" cx="252" cy="231" r="43" fill="var(--accent-1)" stroke="var(--background)" stroke-width="4" fill-opacity="0.35" opacity="0.85" stroke-opacity="0.75"/>
    <g id="ITEM_1_ICON" transform="translate(219, 198)" data-icon-size="66">
      <g transform="translate(-15.594690265486724,-15.21504424778761) scale(3.0371681415929204)">
        <path d="M24.0506 11.0149C24.3406 10.9749 24.6106 11.1549 24.6806 11.4349C24.6806 11.4349 26.635 22.8775 26.625 24.1875C26.625 27.5275 24.6563 29.9531 21.2813 29.9531C17.0625 29.9531 15.2812 26.4872 15.2812 23.0312C15.2812 22.6324 15.2175 22.264 15.1024 21.9199L13.8496 21.9199C13.7881 21.9199 13.7266 21.9712 13.7266 22.043V23.0534C13.7266 23.8711 13.0591 24.5319 12.4297 24.6055C12.3908 24.61 12.3531 24.6139 12.3166 24.6177C12.0707 24.643 11.8759 24.6632 11.6953 24.8438C11.6953 24.8438 11.2222 25.3424 11.0682 25.4329C10.9141 25.5234 10.4915 25.6036 10.2864 25.3984C10.0813 25.1933 10.0608 24.8379 10.2659 24.6328L10.5039 24.3984C10.5347 24.3574 10.5317 24.2852 10.4805 24.2852L9.96484 24.3242C9.73827 24.3242 9.53125 24.1523 9.51171 23.9141C9.49217 23.6758 9.58984 23.4453 9.96484 23.3789L10.3042 23.3018C10.3555 23.3018 10.3862 23.2402 10.3555 23.1992L10.1406 22.9508C9.96484 22.7852 9.95503 22.4278 10.1602 22.2226C10.3653 22.0175 10.7636 22.0488 10.9688 22.2539L11.5742 22.8047C11.6641 22.8985 11.7226 22.9508 11.8398 22.9508C11.9014 22.9508 11.9805 22.8996 11.9805 22.8278V21.6483C11.9805 20.8176 12.6927 20.1719 13.5234 20.1719H13.9633C13.697 19.9003 13.4031 19.6418 13.0937 19.3906C11.758 18.3061 10.6138 16.9976 9.95396 15.4375H7.68689C6.67188 15.4375 6.16015 14.6562 6.16015 14.0391V13.3242C6.16015 13.2542 6.13765 13.1984 6.09765 13.1484L5.47265 12.4844C5.27265 12.2844 5.24702 11.8931 5.45702 11.7031C5.65702 11.5131 5.99689 11.5031 6.18689 11.7031L6.30405 11.7612C6.34405 11.8012 6.41405 11.7712 6.41405 11.7212V11.5012C6.41405 11.2312 6.63671 10.9844 6.90624 10.9844C7.21483 10.9843 7.46812 11.2112 7.46812 11.5012V11.7612C7.46812 11.8212 7.53812 11.8412 7.57812 11.8012L7.71874 11.6835C7.90874 11.4935 8.22577 11.5035 8.42577 11.6835C8.63577 11.8735 8.62577 12.257 8.42577 12.457L7.84765 13.0912C7.79765 13.1412 7.78124 13.2012 7.78124 13.2712L7.78091 13.3224C7.78025 13.4068 7.77902 13.565 7.78124 13.664C7.78356 13.7675 7.8418 13.7812 7.8828 13.7812H9.46434C9.39058 13.3581 9.35156 12.9195 9.35156 12.4649V11.6449C9.35156 11.5955 9.35463 11.5444 9.35771 11.4931C9.36958 11.2952 9.38164 11.0943 9.21875 10.9763C8.23875 10.2663 7.49875 8.99288 7.46875 7.70288C7.43209 6.03503 8.57472 4.59777 9.61314 3.29159C9.84008 3.00613 10.062 2.72694 10.2656 2.45296C10.849 1.66791 12.058 1.65579 12.7656 2.45296C12.9221 2.62924 13.0822 2.80409 13.2428 2.97949C14.4204 4.26553 15.625 5.58115 15.625 7.70296C15.625 9.05296 14.9106 10.3049 13.8806 11.0249C13.6706 11.1649 13.6406 11.3949 13.6406 11.6449V12.4149C13.6716 12.9946 13.7296 13.4135 13.8635 13.7772H15.5612C15.633 13.7772 15.6323 13.7289 15.6314 13.6613L15.6312 13.6372L15.6312 13.2215C15.6312 13.1515 15.5891 13.0915 15.5391 13.0415L14.9375 12.453C14.7375 12.253 14.7275 11.9015 14.9375 11.7115C15.1375 11.5215 15.478 11.4815 15.668 11.6815L15.8197 11.7515C15.8597 11.7915 15.9297 11.7715 15.9297 11.7115V11.414C15.9297 11.2344 16.1016 10.9531 16.4062 10.9531C16.7344 10.9531 16.9512 11.1758 16.9512 11.414L16.9883 11.7115C16.9883 11.7615 17.0583 11.7915 17.0983 11.7515L17.2227 11.6815C17.4127 11.4815 17.7341 11.5186 17.9141 11.6815C18.0941 11.8444 18.1844 12.2015 17.9844 12.4015L17.4023 13.0703L17.3916 13.0836C17.3511 13.1336 17.293 13.2055 17.293 13.2695V13.9961C17.293 14.8261 16.6328 15.4715 15.7012 15.4715H15.2259C15.3053 15.5444 15.3849 15.6172 15.4646 15.6901C16.2595 16.4171 17.0634 17.1523 17.7484 18.0156L17.7493 17.9499C17.7493 17.1399 18.74 17.0156 19.55 17.0156H20.3047C20.3747 17.0156 20.4219 16.9467 20.4219 16.8867V16.6599C20.4219 16.6599 20.4284 16.3894 20.3984 16.3594L19.793 15.6328C19.5996 15.4395 19.6125 15.1383 19.8125 14.9383C20.0125 14.7383 20.2461 14.7734 20.3984 14.8398L20.68 14.9883C20.72 15.0183 20.78 14.9883 20.78 14.9383V14.6699C20.78 14.3899 21.03 14.1699 21.31 14.1699C21.59 14.1699 21.8359 14.3899 21.8359 14.6699V14.9141C21.8359 14.9641 21.8959 14.9941 21.9359 14.9641L22.1641 14.8398C22.2852 14.7656 22.5695 14.7141 22.7695 14.9141C22.9695 15.1141 22.9648 15.3984 22.7969 15.6328L22.5391 15.9492L22.3438 16.207C22.3237 16.227 22.3037 16.267 22.3037 16.297V17.1699C22.3037 18.3477 21.39 18.8828 20.58 18.8828H19.67C19.6 18.8828 19.55 18.9897 19.55 19.0497L19.5584 22.5108C19.5861 22.8153 19.6006 23.1329 19.6006 23.4649C19.6006 24.7326 20.22 26.0406 21.7344 26C22.8144 25.97 23.4375 25.2031 23.4375 23.4649L23.5806 11.5849C23.5806 11.3049 23.7706 11.0549 24.0506 11.0149Z" fill="#00D26A"/>
        <path d="M10 6.5C10 6.77614 9.77614 7 9.5 7C9.22386 7 9 6.77614 9 6.5C9 6.22386 9.22386 6 9.5 6C9.77614 6 10 6.22386 10 6.5Z" fill="#1C1C1C"/>
        <path d="M14 6.5C14 6.77614 13.7761 7 13.5 7C13.2239 7 13 6.77614 13 6.5C13 6.22386 13.2239 6 13.5 6C13.7761 6 14 6.22386 14 6.5Z" fill="#1C1C1C"/>
      </g>
    </g>
    <text id="ITEM_1_HEAD" x="41.0" y="288.0" font-weight="700" font-size="18" fill="var(--primary-text)" text-anchor="start" data-bg-id="ITEM_1_BG" fill-opacity="1.0" stroke="none" style="font-size: 30px; font-family: Inter, Segoe UI, Kalam, Roboto, Helvetica, Arial, sans-serif; font-weight: 700; letter-spacing:-0.4px;" data-final-font-size="30">
      <tspan x="41.0" dy="57.25px">Cavern Guardian</tspan>
    </text>
    <text id="ITEM_1_BODY" x="41.0" y="382.0" font-size="14" fill="var(--primary-text)" text-anchor="start" data-bg-id="ITEM_1_BG" style="font-size: 26px; font-family: Inter, Segoe UI, Kalam, Roboto, Helvetica, Arial, sans-serif; font-weight: 400;" data-final-font-size="26">
      <tspan x="41.0" dy="44.44px">Teju Jagua protects hidden</tspan>
      <tspan x="41.0" dy="29.90px">treasures and buried fruits</tspan>
    </text>
    <rect id="ITEM_2_BG" x="503" y="170" width="442" height="400" rx="20" fill="var(--accent-7)" stroke="var(--accent-2)" stroke-width="2" filter="url(#svgc420d3ec-shadow)" fill-opacity="0.4"/>
    <rect x="503" y="186" width="442" height="12" fill="var(--accent-2)"/>
    <rect id="ITEM_2_HEAD_FRAME" x="513.0" y="288" width="422.0" height="98" fill="none"/>
    <rect id="ITEM_2_BODY_FRAME" x="513.0" y="382" width="422.0" height="178" fill="none"/>
    <circle id="ITEM_2_PAD" cx="724" cy="231" r="55" fill="var(--icon-pad-bg)" stroke="var(--primary-text)" opacity="0.9" fill-opacity="0.9" stroke-width="2"/>
    <circle cx="724" cy="231" r="44" fill="none" stroke="var(--accent-2)" stroke-width="3" stroke-dasharray="6 4"/>
    <circle id="ITEM_2_BADGE" cx="724" cy="231" r="43" fill="var(--accent-2)" stroke="var(--background)" stroke-width="4" fill-opacity="0.35" opacity="0.85" stroke-opacity="0.75"/>
    <g id="ITEM_2_ICON" transform="translate(691, 198)" data-icon-size="66">
      <g transform="translate(-16.02857142857143,-16.028571428571425) scale(3.064285714285714)">
        <path d="M11.04 2.00635C13.7 1.87635 15.96 3.75635 16.42 6.26635L18.136 14.6323L15.5701 19.6373L19.6086 21.8117L19.62 21.8673V21.7863L27.27 21.0563C27.64 21.0263 27.96 21.3163 27.95 21.6863V23.8763C27.95 25.5963 26.56 26.9963 24.83 26.9963H19.8652L19.86 26.9964H16.9528L16.2098 27.6519L15.4669 26.9964H14.17C13.9072 26.9964 13.6468 26.9866 13.3891 26.9675L12.5047 27.4319L11.9572 26.7606C7.40256 25.7735 4 21.8026 4 17.0464C4 14.8264 4.76 12.7264 6.06 11.0364C6.52 10.4564 6.64 9.67635 6.39 8.97635C6.17 8.35635 6.06 7.66635 6.09 6.95635C6.22 4.26635 8.34 2.12635 11.04 2.00635Z" fill="#F70A8D"/>
        <path d="M8.86998 7.88634C8.86998 8.85836 8.082 9.64634 7.10998 9.64634C6.13795 9.64634 5.34998 8.85836 5.34998 7.88634C5.34998 6.91432 6.13795 6.12634 7.10998 6.12634C8.082 6.12634 8.86998 6.91432 8.86998 7.88634Z" fill="#FF822D"/>
        <path d="M11.46 28.4964L11.9508 26.7592C12.4197 26.8611 12.9009 26.9314 13.3919 26.9677L12.96 28.4964H14.21C14.62 28.4964 14.96 28.8364 14.96 29.2464C14.96 29.6564 14.62 29.9964 14.21 29.9964H8.71002C8.29002 29.9964 7.96002 29.6564 7.96002 29.2464C7.96002 28.8364 8.30002 28.4964 8.71002 28.4964H11.46Z" fill="#FF822D"/>
        <path d="M8.83997 7.54639L6.02997 8.82639C5.78997 8.93639 5.63997 9.17639 5.63997 9.43639V9.67639C5.63997 9.95639 5.31997 10.1164 5.09997 9.95639C4.43997 9.49639 4.02997 8.69639 4.09997 7.81639C4.19997 6.62639 5.17997 5.67639 6.36997 5.62639C7.58997 5.57639 8.61997 6.41639 8.83997 7.54639Z" fill="#FFB02E"/>
        <path d="M10.3717 14.5278C10.7477 12.7085 12.3458 11.3763 14.24 11.3763C16.12 11.3763 17.73 12.6863 18.11 14.5263L20.0087 23.7964H19.8V23.8064C17.5861 23.5103 14.8579 23.0591 13.2635 21.6538C11.3607 19.9766 10.7637 17.1543 10.3717 14.5278Z" fill="#FFB02E"/>
        <path d="M15.46 26.9963V28.4964H12.71C12.3 28.4964 11.96 28.8364 11.96 29.2464C11.96 29.6564 12.29 29.9964 12.71 29.9964H18.21C18.62 29.9964 18.96 29.6564 18.96 29.2464C18.96 28.8364 18.62 28.4964 18.21 28.4964H16.96V26.9963H15.46Z" fill="#FFB02E"/>
        <path d="M19.8 23.8064C14.94 23.1564 11.09 19.3464 10.37 14.5164C10.34 14.6464 10.32 14.7864 10.31 14.9164C10.27 15.2964 10.25 15.6764 10.25 16.0564C10.25 21.6464 14.41 26.2664 19.8 26.9864C20.25 26.9864 20.58 26.5764 20.49 26.1364L20.01 23.7964H19.8V23.8064Z" fill="#00A6ED"/>
        <path d="M11.32 8.64C12.6013 8.64 13.64 7.6013 13.64 6.32C13.64 5.0387 12.6013 4 11.32 4C10.0387 4 9 5.0387 9 6.32C9 7.6013 10.0387 8.64 11.32 8.64Z" fill="#E6E6E6"/>
        <path d="M11.32 7.36003C11.8944 7.36003 12.36 6.89441 12.36 6.32003C12.36 5.74565 11.8944 5.28003 11.32 5.28003C10.7457 5.28003 10.28 5.74565 10.28 6.32003C10.28 6.89441 10.7457 7.36003 11.32 7.36003Z" fill="#212121"/>
      </g>
    </g>
    <text id="ITEM_2_HEAD" x="513.0" y="288.0" font-weight="700" font-size="18" fill="var(--primary-text)" text-anchor="start" data-bg-id="ITEM_2_BG" fill-opacity="1.0" stroke="none" style="font-size: 30px; font-family: Inter, Segoe UI, Kalam, Roboto, Helvetica, Arial, sans-serif; font-weight: 700; letter-spacing:-0.4px;" data-final-font-size="30">
      <tspan x="513.0" dy="57.25px">Wetland Protector</tspan>
    </text>
    <text id="ITEM_2_BODY" x="513.0" y="382.0" font-size="14" fill="var(--primary-text)" text-anchor="start" data-bg-id="ITEM_2_BG" style="font-size: 26px; font-family: Inter, Segoe UI, Kalam, Roboto, Helvetica, Arial, sans-serif; font-weight: 400;" data-final-font-size="26">
      <tspan x="513.0" dy="44.44px">Mbói Tu’ĩ guards rivers</tspan>
      <tspan x="513.0" dy="29.90px">and aquatic swamp creatures</tspan>
    </text>
    <rect id="ITEM_3_BG" x="975" y="170" width="442" height="400" rx="20" fill="var(--accent-8)" stroke="var(--accent-3)" stroke-width="2" filter="url(#svgc420d3ec-shadow)" fill-opacity="0.4"/>
    <rect x="975" y="186" width="442" height="12" fill="var(--accent-3)"/>
    <rect id="ITEM_3_HEAD_FRAME" x="985.0" y="288" width="422.0" height="98" fill="none"/>
    <rect id="ITEM_3_BODY_FRAME" x="985.0" y="382" width="422.0" height="178" fill="none"/>
    <circle id="ITEM_3_PAD" cx="1196" cy="231" r="55" fill="var(--icon-pad-bg)" stroke="var(--primary-text)" opacity="0.9" fill-opacity="0.9" stroke-width="2"/>
    <circle cx="1196" cy="231" r="44" fill="none" stroke="var(--accent-3)" stroke-width="3" stroke-dasharray="6 4"/>
    <circle id="ITEM_3_BADGE" cx="1196" cy="231" r="43" fill="var(--accent-3)" stroke="var(--background)" stroke-width="4" fill-opacity="0.35" opacity="0.85" stroke-opacity="0.75"/>
    <g id="ITEM_3_ICON" transform="translate(1163, 198)" data-icon-size="66">
      <g transform="translate(-16.028571428571425,-16.028571428571425) scale(3.064285714285714)">
        <path d="M19.58 5.99994C18.18 5.99994 16.83 5.38994 15.94 4.29994C15.91 4.25994 15.88 4.22994 15.85 4.18994C15.68 3.96994 15.36 3.92994 15.14 4.10994C14.93 4.27994 14.9 4.59994 15.07 4.81994C15.42 5.26994 15.83 5.66994 16.28 5.99994H15.47C15.2 5.99994 14.97 6.19994 14.95 6.46994C14.94 6.75994 15.17 6.99994 15.46 6.99994H21.46V5.99994H19.58Z" fill="#F8312F"/>
        <path d="M29.79 28.39C28.14 26.24 25.59 24.98 22.88 24.98H17.64C14.42 24.98 11.74 24.23 9.88001 22.8C7.98001 21.34 7.01001 19.18 7.01001 16.37C7.01001 13.91 9.02001 11.92 11.48 11.94C13.9 11.96 15.92 13.96 15.95 16.38V16.92C15.95 19.16 16.98 21.29 18.78 22.62C19.96 23.49 21.4 24 22.96 24C26.4067 24 29.2852 21.5064 29.8852 18.2297C29.9606 17.8177 29.1011 17.6228 29.1011 17.1894L29.9977 16.2446L29.9903 14L29.2888 12.9657L29.9837 12L29.9771 10L29.9738 9L29.9705 8L29.96 4.81C29.96 3.26 28.7 2 27.14 2H17.58C17.23 2 16.95 2.28 16.96 2.63C16.96 5.6 19.36 8 22.33 8H24.63C24.8 8 24.94 8.14 24.94 8.31L24.98 16.96C24.98 18.06 24.1 18.95 23 18.98C21.87 19.01 20.95 18.07 20.95 16.94V16.2C20.8663 11.4299 17.16 7.51581 12.5 6.99005C12.1484 6.95038 11.8413 7.9098 11.48 7.9098C11.1659 7.9098 10.8057 6.94555 10.5 6.9759C9.48405 7.07677 8.5181 7.34117 7.62633 7.7419C7.33518 7.87274 7.54994 8.82711 7.27545 8.98606C6.97457 9.16029 6.1862 8.54184 5.90746 8.74746C5.11211 9.33418 4.41137 10.0436 3.83095 10.8469C3.63999 11.1112 3.93533 11.7373 3.77133 12.0209C3.60609 12.3066 2.98173 12.2498 2.84574 12.553C2.277 13.8209 1.97223 15.2323 2.00001 16.71C2.08001 20.94 3.75001 24.41 6.82001 26.78C9.57001 28.89 13.3 30 17.64 30H29C29.83 30 30.3 29.05 29.79 28.39Z" fill="#00D26A"/>
        <path d="M23.5007 6.03125C23.2038 6.03125 22.9576 5.78506 22.9576 5.48819V4.53964C22.9576 4.24277 23.2038 3.99658 23.5007 3.99658C23.7976 3.99658 24.0437 4.24277 24.0437 4.53964V5.48819C24.0437 5.7923 23.7976 6.03125 23.5007 6.03125Z" fill="#1C1C1C"/>
        <path d="M10.49 6.97993V7.99993C10.49 8.54993 10.94 8.99993 11.49 8.99993C12.04 8.99993 12.49 8.54993 12.49 7.99993V6.98993C12.14 6.94993 11.79 6.92993 11.44 6.92993C11.12 6.92993 10.8 6.94993 10.49 6.97993Z" fill="#FCD53F"/>
        <path d="M29.97 8H28.95C28.4 8 27.95 8.45 27.95 9C27.95 9.55 28.4 10 28.95 10H29.98L29.97 8Z" fill="#FCD53F"/>
        <path d="M29.98 12H28.95C28.4 12 27.95 12.45 27.95 13C27.95 13.55 28.4 14 28.95 14H29.99L29.98 12Z" fill="#FCD53F"/>
        <path d="M28.95 18.24C28.4 18.24 27.95 17.79 27.95 17.24C27.95 16.69 28.4 16.24 28.95 16.24H30V16.96C30 17.4 29.96 17.83 29.88 18.24H28.95Z" fill="#FCD53F"/>
        <path d="M8.15 8.61999C8.42 9.09999 8.26 9.70999 7.78 9.98999C7.3 10.27 6.69 10.11 6.41 9.62999L5.9 8.74999C6.44 8.35999 7.02 8.01999 7.63 7.73999L8.15 8.61999Z" fill="#FCD53F"/>
        <path d="M4.69 11.3401L3.83 10.8401C3.44 11.3801 3.11 11.9601 2.83 12.5701L3.69 13.0701C4.17 13.3501 4.78 13.1801 5.06 12.7001C5.34 12.2301 5.17 11.6201 4.69 11.3401Z" fill="#FCD53F"/>
        <path d="M3.06 15.4199C3.61 15.4199 4.06 15.8699 4.06 16.4199C4.06 16.9699 3.62 17.4199 3.06 17.4199H2.03C2.0266 17.3385 2.02206 17.2582 2.01753 17.1782C2.00873 17.0226 2 16.8685 2 16.7099C1.99 16.2799 2.01 15.8499 2.06 15.4199H3.06Z" fill="#FCD53F"/>
      </g>
    </g>
    <text id="ITEM_3_HEAD" x="985.0" y="288.0" font-weight="700" font-size="18" fill="var(--primary-text)" text-anchor="start" data-bg-id="ITEM_3_BG" fill-opacity="1.0" stroke="none" style="font-size: 30px; font-family: Inter, Segoe UI, Kalam, Roboto, Helvetica, Arial, sans-serif; font-weight: 700; letter-spacing:-0.4px;" data-final-font-size="30">
      <tspan x="985.0" dy="57.25px">Open Country Master</tspan>
    </text>
    <text id="ITEM_3_BODY" x="985.0" y="382.0" font-size="14" fill="var(--primary-text)" text-anchor="start" data-bg-id="ITEM_3_BG" style="font-size: 26px; font-family: Inter, Segoe UI, Kalam, Roboto, Helvetica, Arial, sans-serif; font-weight: 400;" data-final-font-size="26">
      <tspan x="985.0" dy="44.44px">Moñai rules fields and encourages</tspan>
      <tspan x="985.0" dy="29.90px">human greed</tspan>
    </text>
    <rect id="ITEM_4_BG" x="1447" y="170" width="442" height="400" rx="20" fill="var(--accent-9)" stroke="var(--accent-4)" stroke-width="2" filter="url(#svgc420d3ec-shadow)" fill-opacity="0.4"/>
    <rect x="1447" y="186" width="442" height="12" fill="var(--accent-4)"/>
    <rect id="ITEM_4_HEAD_FRAME" x="1457.0" y="288" width="422.0" height="98" fill="none"/>
    <rect id="ITEM_4_BODY_FRAME" x="1457.0" y="382" width="422.0" height="178" fill="none"/>
    <circle id="ITEM_4_PAD" cx="1668" cy="231" r="55" fill="var(--icon-pad-bg)" stroke="var(--primary-text)" opacity="0.9" fill-opacity="0.9" stroke-width="2"/>
    <circle cx="1668" cy="231" r="44" fill="none" stroke="var(--accent-4)" stroke-width="3" stroke-dasharray="6 4"/>
    <circle id="ITEM_4_BADGE" cx="1668" cy="231" r="43" fill="var(--accent-4)" stroke="var(--background)" stroke-width="4" fill-opacity="0.35" opacity="0.85" stroke-opacity="0.75"/>
    <g id="ITEM_4_ICON" transform="translate(1635, 198)" data-icon-size="66">
      <g transform="translate(-20.32429906542056,-22.72990654205607) scale(3.2074766355140185)">
        <path d="M23.4106 5.63236C23.9106 7.67236 23.9706 9.89235 23.4306 12.1924C22.1706 17.5224 17.7906 21.7024 12.4106 22.6724C9.50056 23.2024 6.73057 22.8024 4.32056 21.7524C3.76056 21.5024 3.23056 22.1424 3.52056 22.6824C6.17057 27.5624 11.6306 30.6824 17.7406 29.8724C23.9706 29.0424 28.9606 23.9624 29.7106 17.7224C30.3106 12.5424 28.1106 7.86236 24.4306 4.97236C23.9606 4.61236 23.2706 5.05236 23.4106 5.63236Z" fill="#FCD53F"/>
        <path d="M27.8706 12.5623C27.8706 13.4294 27.1677 14.1323 26.3006 14.1323C25.4335 14.1323 24.7306 13.4294 24.7306 12.5623C24.7306 11.6952 25.4335 10.9923 26.3006 10.9923C27.1677 10.9923 27.8706 11.6952 27.8706 12.5623ZM14.9505 25.4423C14.9505 26.3094 14.2476 27.0123 13.3805 27.0123C12.5135 27.0123 11.8105 26.3094 11.8105 25.4423C11.8105 24.5752 12.5135 23.8723 13.3805 23.8723C14.2476 23.8723 14.9505 24.5752 14.9505 25.4423ZM26.8005 18.9723C27.3473 18.9723 27.7905 18.5291 27.7905 17.9823C27.7905 17.4355 27.3473 16.9923 26.8005 16.9923C26.2538 16.9923 25.8105 17.4355 25.8105 17.9823C25.8105 18.5291 26.2538 18.9723 26.8005 18.9723ZM24.8005 21.9823C24.8005 23.6392 23.4574 24.9823 21.8005 24.9823C20.1437 24.9823 18.8005 23.6392 18.8005 21.9823C18.8005 20.3254 20.1437 18.9823 21.8005 18.9823C23.4574 18.9823 24.8005 20.3254 24.8005 21.9823Z" fill="#F9C23C"/>
      </g>
    </g>
    <text id="ITEM_4_HEAD" x="1457.0" y="288.0" font-weight="700" font-size="18" fill="var(--primary-text)" text-anchor="start" data-bg-id="ITEM_4_BG" fill-opacity="1.0" stroke="none" style="font-size: 30px; font-family: Inter, Segoe UI, Kalam, Roboto, Helvetica, Arial, sans-serif; font-weight: 700; letter-spacing:-0.4px;" data-final-font-size="30">
      <tspan x="1457.0" dy="57.25px">Siesta Child</tspan>
    </text>
    <text id="ITEM_4_BODY" x="1457.0" y="382.0" font-size="14" fill="var(--primary-text)" text-anchor="start" data-bg-id="ITEM_4_BG" style="font-size: 26px; font-family: Inter, Segoe UI, Kalam, Roboto, Helvetica, Arial, sans-serif; font-weight: 400;" data-final-font-size="26">
      <tspan x="1457.0" dy="44.44px">Jasy Jatere lures children</tspan>
      <tspan x="1457.0" dy="29.90px">during the hot midday</tspan>
    </text>
    <rect id="ITEM_5_BG" x="31" y="600" width="442" height="400" rx="20" fill="var(--accent-10)" stroke="var(--accent-5)" stroke-width="2" filter="url(#svgc420d3ec-shadow)" fill-opacity="0.4"/>
    <rect x="31" y="616" width="442" height="12" fill="var(--accent-5)"/>
    <rect id="ITEM_5_HEAD_FRAME" x="41.0" y="718" width="422.0" height="98" fill="none"/>
    <rect id="ITEM_5_BODY_FRAME" x="41.0" y="812" width="422.0" height="178" fill="none"/>
    <circle id="ITEM_5_PAD" cx="252" cy="661" r="55" fill="var(--icon-pad-bg)" stroke="var(--primary-text)" opacity="0.9" fill-opacity="0.9" stroke-width="2"/>
    <circle cx="252" cy="661" r="44" fill="none" stroke="var(--accent-5)" stroke-width="3" stroke-dasharray="6 4"/>
    <circle id="ITEM_5_BADGE" cx="252" cy="661" r="43" fill="var(--accent-5)" stroke="var(--background)" stroke-width="4" fill-opacity="0.35" opacity="0.85" stroke-opacity="0.75"/>
    <g id="ITEM_5_ICON" transform="translate(219, 628)" data-icon-size="66">
      <g transform="translate(-16.028571428571425,-14.49642857142857) scale(0.38303571428571426)" vector-effect="non-scaling-stroke" stroke-width="2.50" stroke-linecap="round" stroke-linejoin="round" stroke-opacity="1.0">
        <polyline points="24 128 56 128 96 40 160 208 200 128 232 128" fill="none" stroke="#ffffff" vector-effect="non-scaling-stroke"/>
      </g>
    </g>
    <text id="ITEM_5_HEAD" x="41.0" y="718.0" font-weight="700" font-size="18" fill="var(--primary-text)" text-anchor="start" data-bg-id="ITEM_5_BG" fill-opacity="1.0" stroke="none" style="font-size: 30px; font-family: Inter, Segoe UI, Kalam, Roboto, Helvetica, Arial, sans-serif; font-weight: 700; letter-spacing:-0.4px;" data-final-font-size="30">
      <tspan x="41.0" dy="57.25px">Desire Power</tspan>
    </text>
    <text id="ITEM_5_BODY" x="41.0" y="812.0" font-size="14" fill="var(--primary-text)" text-anchor="start" data-bg-id="ITEM_5_BG" style="font-size: 26px; font-family: Inter, Segoe UI, Kalam, Roboto, Helvetica, Arial, sans-serif; font-weight: 400;" data-final-font-size="26">
      <tspan x="41.0" dy="44.44px">Kurupi embodies sexual power</tspan>
      <tspan x="41.0" dy="29.90px">and fertility anxieties</tspan>
    </text>
    <rect id="ITEM_6_BG" x="503" y="600" width="442" height="400" rx="20" fill="var(--accent-1)" stroke="var(--accent-6)" stroke-width="2" filter="url(#svgc420d3ec-shadow)" fill-opacity="0.4"/>
    <rect x="503" y="616" width="442" height="12" fill="var(--accent-6)"/>
    <rect id="ITEM_6_HEAD_FRAME" x="513.0" y="718" width="422.0" height="98" fill="none"/>
    <rect id="ITEM_6_BODY_FRAME" x="513.0" y="812" width="422.0" height="178" fill="none"/>
    <circle id="ITEM_6_PAD" cx="724" cy="661" r="55" fill="var(--icon-pad-bg)" stroke="var(--primary-text)" opacity="0.9" fill-opacity="0.9" stroke-width="2"/>
    <circle cx="724" cy="661" r="44" fill="none" stroke="var(--accent-6)" stroke-width="3" stroke-dasharray="6 4"/>
    <circle id="ITEM_6_BADGE" cx="724" cy="661" r="43" fill="var(--accent-6)" stroke="var(--background)" stroke-width="4" fill-opacity="0.35" opacity="0.85" stroke-opacity="0.75"/>
    <g id="ITEM_6_ICON" transform="translate(691, 628)" data-icon-size="66">
      <g transform="translate(-17.844444444444434,-17.844444444444434) scale(4.2370370370370365)" vector-effect="non-scaling-stroke" fill="#ffffff" fill-opacity="1.0" stroke="none">
        <path fill="#ffffff" d="M15 3h2l5 2l-5 2v3.17L22 21H2l6-8l3.5 4.7l3.5-7.53z" vector-effect="non-scaling-stroke" stroke="none"/>
      </g>
    </g>
    <text id="ITEM_6_HEAD" x="513.0" y="718.0" font-weight="700" font-size="18" fill="var(--primary-text)" text-anchor="start" data-bg-id="ITEM_6_BG" fill-opacity="1.0" stroke="none" style="font-size: 30px; font-family: Inter, Segoe UI, Kalam, Roboto, Helvetica, Arial, sans-serif; font-weight: 700; letter-spacing:-0.4px;" data-final-font-size="30">
      <tspan x="513.0" dy="57.25px">Hill Terror</tspan>
    </text>
    <text id="ITEM_6_BODY" x="513.0" y="812.0" font-size="14" fill="var(--primary-text)" text-anchor="start" data-bg-id="ITEM_6_BG" style="font-size: 26px; font-family: Inter, Segoe UI, Kalam, Roboto, Helvetica, Arial, sans-serif; font-weight: 400;" data-final-font-size="26">
      <tspan x="513.0" dy="44.44px">Ao Ao hunts humans in remote</tspan>
      <tspan x="513.0" dy="29.90px">upland wilderness</tspan>
    </text>
    <rect id="ITEM_7_BG" x="975" y="600" width="442" height="400" rx="20" fill="var(--accent-2)" stroke="var(--accent-7)" stroke-width="2" filter="url(#svgc420d3ec-shadow)" fill-opacity="0.4"/>
    <rect x="975" y="616" width="442" height="12" fill="var(--accent-7)"/>
    <rect id="ITEM_7_HEAD_FRAME" x="985.0" y="718" width="422.0" height="98" fill="none"/>
    <rect id="ITEM_7_BODY_FRAME" x="985.0" y="812" width="422.0" height="178" fill="none"/>
    <circle id="ITEM_7_PAD" cx="1196" cy="661" r="55" fill="var(--icon-pad-bg)" stroke="var(--primary-text)" opacity="0.9" fill-opacity="0.9" stroke-width="2"/>
    <circle cx="1196" cy="661" r="44" fill="none" stroke="var(--accent-7)" stroke-width="3" stroke-dasharray="6 4"/>
    <circle id="ITEM_7_BADGE" cx="1196" cy="661" r="43" fill="var(--accent-7)" stroke="var(--background)" stroke-width="4" fill-opacity="0.35" opacity="0.85" stroke-opacity="0.75"/>
    <g id="ITEM_7_ICON" transform="translate(1163, 628)" data-icon-size="66">
      <g transform="translate(-12.759999999999998,-12.759999999999994) scale(0.17875)" vector-effect="non-scaling-stroke" fill="#ffffff" fill-opacity="1.0" stroke="none">
        <path fill="#ffffff" d="M256 46c-81.822 0-150 63.366-150 150v150c0 6.668-.757 23.558 0 30h300c.757-6.442 0-23.332 0-30V196c0-86.634-68.178-150-150-150M16 406v60h480v-60z" vector-effect="non-scaling-stroke" stroke="none"/>
      </g>
    </g>
    <text id="ITEM_7_HEAD" x="985.0" y="718.0" font-weight="700" font-size="18" fill="var(--primary-text)" text-anchor="start" data-bg-id="ITEM_7_BG" fill-opacity="1.0" stroke="none" style="font-size: 30px; font-family: Inter, Segoe UI, Kalam, Roboto, Helvetica, Arial, sans-serif; font-weight: 700; letter-spacing:-0.4px;" data-final-font-size="30">
      <tspan x="985.0" dy="57.25px">Death Lord</tspan>
    </text>
    <text id="ITEM_7_BODY" x="985.0" y="812.0" font-size="14" fill="var(--primary-text)" text-anchor="start" data-bg-id="ITEM_7_BG" style="font-size: 26px; font-family: Inter, Segoe UI, Kalam, Roboto, Helvetica, Arial, sans-serif; font-weight: 400;" data-final-font-size="26">
      <tspan x="985.0" dy="44.44px">Luison governs decay and the</tspan>
      <tspan x="985.0" dy="29.90px">graveyard realm</tspan>
    </text>
  </g>
</svg>
