<?xml version='1.0' encoding='utf-8'?>
<svg xmlns="http://www.w3.org/2000/svg" width="1920" height="1080" viewBox="0 0 1920 1080" data-theme="light">
  <style>
        @font-face {
            font-family: 'Inter';
            src: url('assets/fonts/Inter-Regular.ttf') format('truetype');
            font-weight: 400;
            font-style: normal;
            font-display: swap;
        }
        @font-face {
            font-family: 'Inter';
            src: url('assets/fonts/Inter-Bold.ttf') format('truetype');
            font-weight: 600;
            font-style: normal;
            font-display: swap;
        }
        @font-face {
            font-family: 'Inter';
            src: url('assets/fonts/Inter-Bold.ttf') format('truetype');
            font-weight: 800;
            font-style: normal;
            font-display: swap;
        }
        
:root {
    --background: #f8fafc;
    --panel: #ffffff;
    --primary-text: #0f172a;
    --muted-text: #64748b;
    --inverse-text: #ffffff;
    --border: #e2e8f0;
    --shadow-color: #000000;
    --icon-pad-bg: #1e293b;
    --art-glow: #0891b2;
    --art-glow-opacity: 0.10;
    --art-sheen: #ffffff;
    --art-sheen-opacity: 0.34;
    --art-shadow: #0f172a;
    --art-shadow-opacity: 0.14;
    --art-muted-line: #94a3b8;
    --art-panel-tint: #f1f5f9;
    --font-family: 'Inter', 'Segoe UI', 'Kalam', Roboto, Helvetica, Arial, sans-serif;
    --radius-xl: 16px;
    --font-family-headline: 'Inter', 'Segoe UI', 'Kalam', Roboto, Helvetica, Arial, sans-serif;
    --font-family-body: 'Inter', 'Segoe UI', 'Kalam', Roboto, Helvetica, Arial, sans-serif;
    --font-heading: 'Inter', 'Segoe UI', 'Kalam', Roboto, Helvetica, Arial, sans-serif;
    --font-body: 'Inter', 'Segoe UI', 'Kalam', Roboto, Helvetica, Arial, sans-serif;
    --font-size-h1: 56px;
    --font-size-h2: 40px;
    --font-size-h3: 28px;
    --font-size-body: 24px;
    --font-size-caption: 18px;
    --secondary-text: var(--muted-text);
    --panel-border: var(--border);
    --font-weight-normal: 400;
    --font-weight-medium: 500;
    --font-weight-semibold: 600;
    --font-weight-bold: 700;
    --spacing-gutter-pct: 0.07;
    --spacing-top-pct: 0.15;
    --spacing-bottom-pct: 0.07;
    --spacing-title-y-pct: 0.055;
    --accent-1: #0891b2;
    --accent-2: #db2777;
    --accent-3: #ca8a04;
    --accent-4: #65a30d;
    --accent-5: #ea580c;
    --accent-6: #9333ea;
}
:root[data-theme="dark"] {
    --background: #0f172a;
    --panel: #1e293b;
    --primary-text: #f1f5f9;
    --muted-text: #94a3b8;
    --inverse-text: #0f172a;
    --border: #334155;
    --shadow-color: #000000;
    --icon-pad-bg: #1e293b;
    --art-glow: #7dd3fc;
    --art-glow-opacity: 0.18;
    --art-sheen: #ffffff;
    --art-sheen-opacity: 0.18;
    --art-shadow: #000000;
    --art-shadow-opacity: 0.28;
    --art-muted-line: #64748b;
    --art-panel-tint: #1e293b;
    --accent-1: #22d3ee;
    --accent-2: #f472b6;
    --accent-3: #facc15;
    --accent-4: #a3e635;
    --accent-5: #fb923c;
    --accent-6: #c084fc;
}
:root[data-theme="light"] {
    --background: #f8fafc;
    --panel: #ffffff;
    --primary-text: #0f172a;
    --muted-text: #64748b;
    --inverse-text: #ffffff;
    --border: #e2e8f0;
    --shadow-color: #000000;
    --icon-pad-bg: #1e293b;
    --art-glow: #0891b2;
    --art-glow-opacity: 0.10;
    --art-sheen: #ffffff;
    --art-sheen-opacity: 0.34;
    --art-shadow: #0f172a;
    --art-shadow-opacity: 0.14;
    --art-muted-line: #94a3b8;
    --art-panel-tint: #f1f5f9;
    --accent-1: #0891b2;
    --accent-2: #db2777;
    --accent-3: #ca8a04;
    --accent-4: #65a30d;
    --accent-5: #ea580c;
    --accent-6: #9333ea;
}</style>
  <rect x="0" y="0" width="1.92E+3" height="1.08E+3" fill="#252a34" stroke="none" id="programmatic_background"/>
  <line id="HEADER_DECOR" x1="960.0" x2="1080.0" y1="127.0" y2="127.0" stroke="var(--accent-1)" stroke-width="6" stroke-linecap="round"/>
  <defs>
    <pattern id="svg8428ee10-napkin-hatch" patternUnits="userSpaceOnUse" width="12" height="12">
      <path d="M -3 12 L 12 -3 M 0 15 L 15 0" fill="none" stroke="var(--primary-text)" stroke-width="1" stroke-opacity="0.05"/>
    </pattern>
    <filter id="svg8428ee10-shadow" x="-30%" y="-30%" width="160%" height="160%">
      <feDropShadow dx="0" dy="3" stdDeviation="6" flood-color="#000000" flood-opacity="0.10"/>
      <feDropShadow dx="0" dy="8" stdDeviation="12" flood-color="#000000" flood-opacity="0.16"/>
    </filter>
    <radialGradient id="svg8428ee10-universal-edge-vignette" cx="50%" cy="50%" r="72%">
      <stop offset="0%" stop-color="var(--background)" stop-opacity="0"/>
      <stop offset="72%" stop-color="var(--background)" stop-opacity="0.12"/>
      <stop offset="100%" stop-color="var(--primary-text)" stop-opacity="0.08"/>
    </radialGradient>
    <linearGradient id="svg8428ee10-universal-surface-sheen" x1="0%" y1="0%" x2="100%" y2="100%">
      <stop offset="0%" stop-color="var(--art-sheen)" stop-opacity="var(--art-sheen-opacity)"/>
      <stop offset="46%" stop-color="var(--art-sheen)" stop-opacity="0.035"/>
      <stop offset="100%" stop-color="var(--art-panel-tint)" stop-opacity="0.14"/>
    </linearGradient>
    <radialGradient id="svg8428ee10-universal-icon-aura" cx="50%" cy="42%" r="64%">
      <stop offset="0%" stop-color="var(--art-glow)" stop-opacity="var(--art-glow-opacity)"/>
      <stop offset="100%" stop-color="var(--background)" stop-opacity="0"/>
    </radialGradient>
    <filter id="svg8428ee10-text-glow" x="-20%" y="-20%" width="140%" height="140%">
      <feDropShadow dx="0" dy="0" stdDeviation="2" flood-color="#000000" flood-opacity="0.4"/>
    </filter>
    <marker id="svg8428ee10-arrowhead" markerWidth="10" markerHeight="7" refX="9" refY="3.5" orient="auto" markerUnits="strokeWidth">
      <polygon points="0 0, 10 3.5, 0 7" fill="var(--muted-text)" opacity="0.6"/>
    </marker>
  </defs>
  <rect width="100%" height="100%" fill="var(--background)" id="CANVAS_BG"/>
  <rect width="100%" height="100%" fill="url(#svg8428ee10-napkin-hatch)"/>
  <rect id="UNIVERSAL_EDGE_VIGNETTE" width="100%" height="100%" fill="url(#svg8428ee10-universal-edge-vignette)" opacity="0.62"/>
  <text id="TITLE" x="960.0" y="59" text-anchor="middle" font-size="60" font-weight="800" fill="#0f172a" style="font-size: 60px; font-family: Inter, Segoe UI, Kalam, Roboto, Helvetica, Arial, sans-serif; font-weight: 700; letter-spacing:-1.2px;" data-final-font-size="60">
    <tspan x="960.0" dy="68.00px">Landscape Anchors of British Folklore</tspan>
  </text>
  <rect id="TITLE_FRAME" x="134" y="54" width="1652" height="100" fill="none"/>
  <rect x="150" y="150" width="1620" height="850" rx="40" fill="var(--panel)" fill-opacity="0.18" stroke="var(--muted-text)" stroke-width="2" opacity="0.90"/>
  <line x1="360" y1="212.0" x2="360" y2="938.0" stroke="var(--muted-text)" stroke-width="18" stroke-linecap="round" opacity="0.18"/>
  <line x1="360" y1="212.0" x2="360" y2="938.0" stroke="var(--border)" stroke-width="3" stroke-linecap="round" opacity="0.72"/>
  <g id="DIAGRAM_MAIN">
    <g filter="url(#svg8428ee10-shadow)">
      <line x1="404.0" y1="240.0" x2="420.0" y2="240.0" stroke="var(--accent-1)" stroke-width="5" opacity="0.76" stroke-linecap="round"/>
      <rect id="ITEM_1_BG" x="420.0" y="174.0" width="1085" height="152" rx="22" fill="var(--panel)" fill-opacity="0.97" stroke="var(--accent-1)" stroke-width="2.5"/>
      <rect x="420.0" y="174.0" width="1085" height="152" rx="16" fill="url(#svg8428ee10-universal-surface-sheen)" opacity="0.88"/>
      <rect x="420.0" y="174.0" width="14" height="132" rx="7" fill="var(--accent-1)" fill-opacity="0.90"/>
      <circle id="ITEM_1_PAD" cx="360" cy="240.0" r="46" fill="var(--icon-pad-bg)" opacity="0.95" fill-opacity="0.9" stroke-width="2" stroke="var(--primary-text)"/>
      <circle id="ITEM_1_PAD_INNER" cx="360" cy="240.0" r="35.88" fill="var(--accent-3)" fill-opacity="0.22"/>
      <circle cx="360" cy="240.0" r="38" fill="none" stroke="var(--accent-1)" stroke-width="3" stroke-dasharray="6 4"/>
      <g id="ITEM_1_ICON" transform="translate(324, 204.0)" data-icon-size="72" stroke-dasharray="6 4">
        <g transform="translate(-5.142857142857143,-5.78571428571429) scale(2.5714285714285716)">
          <path d="M18.7303 8.60911V6.06653H7.03174V26.9651H26.0109V20.3841C25.4929 20.8941 24.42 21.809 22.704 22.3834C21.7762 22.6939 20.6231 22.8701 19.3753 22.9286C19.1503 22.9499 18.9223 22.9607 18.6917 22.9607C14.7286 22.9607 11.5159 19.748 11.5159 15.7849C11.5159 11.8218 14.7286 8.60901 18.6917 8.60901C18.7046 8.60901 18.7175 8.60904 18.7303 8.60911Z" fill="#26C9FC"/>
          <path d="M2.00391 15.154L2.00394 28.9922C2.00394 29.5445 2.45165 29.9922 3.00394 29.9922H28.9937C29.546 29.9922 29.9937 29.5445 29.9937 28.9922L29.9937 17.8442C27.5057 18.7649 25.9825 20.5075 24.1129 22.0289C22.3405 23.4712 20.1514 24.7191 17.0031 24.7191C12.7544 24.7191 7.80713 20.8973 7.80713 15.8858C7.80713 9.86697 12.9891 7.30096 15.8417 7.30096C16.99 7.30096 17.4804 7.54554 17.6761 7.66783L18.8867 9.31877H23.0691V8.3649C22.3965 6.46938 19.5251 2.67834 13.4203 2.67834C7.80713 2.67834 2.00391 8.3649 2.00391 15.154Z" fill="#00A6ED"/>
          <path d="M22.1939 5.86245C22.1939 6.49073 21.6846 7.00005 21.0563 7.00005C20.428 7.00005 19.9187 6.49073 19.9187 5.86245C19.9187 5.23417 20.428 4.72485 21.0563 4.72485C21.6846 4.72485 22.1939 5.23417 22.1939 5.86245Z" fill="#B4F6FC"/>
          <path d="M27.9251 10.2761C28.5534 10.2761 29.0627 9.76673 29.0627 9.13845C29.0627 8.51017 28.5534 8.00085 27.9251 8.00085C27.2968 8.00085 26.7875 8.51017 26.7875 9.13845C26.7875 9.76673 27.2968 10.2761 27.9251 10.2761Z" fill="#B4F6FC"/>
          <path d="M27.9251 16.1137C28.5534 16.1137 29.0627 15.6044 29.0627 14.9761C29.0627 14.3478 28.5534 13.8385 27.9251 13.8385C27.2968 13.8385 26.7875 14.3478 26.7875 14.9761C26.7875 15.6044 27.2968 16.1137 27.9251 16.1137Z" fill="#B4F6FC"/>
          <path d="M19.1854 14.1376C19.1854 14.7659 18.676 15.2752 18.0478 15.2752C17.4195 15.2752 16.9102 14.7659 16.9102 14.1376C16.9102 13.5093 17.4195 13 18.0478 13C18.676 13 19.1854 13.5093 19.1854 14.1376Z" fill="#B4F6FC"/>
          <path d="M25.023 13.1946C25.6513 13.1946 26.1606 12.6853 26.1606 12.057C26.1606 11.6134 25.9066 11.229 25.5361 11.0415C25.8288 10.6142 26 10.0971 26 9.54011C26 8.07111 24.8092 6.88025 23.3402 6.88025C22.4254 6.88025 21.6184 7.34206 21.1398 8.04526C20.6611 7.34206 19.8542 6.88025 18.9394 6.88025C18.1349 6.88025 17.4139 7.23738 16.9262 7.80174C16.4384 7.23738 15.7174 6.88025 14.9129 6.88025C13.4439 6.88025 12.2531 8.07111 12.2531 9.54011C12.2531 11.0091 13.4439 12.2 14.9129 12.2C15.7174 12.2 16.4384 11.8428 16.9262 11.2785C17.4139 11.8428 18.1349 12.2 18.9394 12.2C19.8542 12.2 20.6611 11.7382 21.1398 11.035C21.6184 11.7382 22.4254 12.2 23.3402 12.2C23.5282 12.2 23.7116 12.1805 23.8886 12.1434C23.9327 12.7313 24.4237 13.1946 25.023 13.1946Z" fill="#B4F6FC"/>
        </g>
      </g>
      <text id="ITEM_1_HEAD" x="500.0" y="192.0" text-anchor="start" font-weight="800" font-size="30" fill="var(--primary-text)" data-bg-id="ITEM_1_BG" fill-opacity="1.0" style="font-size: 30px; font-family: Inter, Segoe UI, Kalam, Roboto, Helvetica, Arial, sans-serif; font-weight: 700; letter-spacing:-0.4px;" data-final-font-size="30">
        <tspan x="500.0" dy="24.25px">Tintagel Headland</tspan>
      </text>
      <rect id="ITEM_1_HEAD_FRAME" x="500" y="192.0" width="760" height="32" fill="none"/>
      <text id="ITEM_1_BODY" x="500.0" y="230.0" text-anchor="start" font-size="24" fill="var(--primary-text)" data-bg-id="ITEM_1_BG" style="font-size: 26px; font-family: Inter, Segoe UI, Kalam, Roboto, Helvetica, Arial, sans-serif; font-weight: 400;" data-final-font-size="26">
        <tspan x="500.0" dy="29.22px">Links Arthur's conception to a dramatic coastal site</tspan>
      </text>
      <rect id="ITEM_1_BODY_FRAME" x="500" y="230.0" width="860" height="72" fill="none"/>
      <text x="1460" y="216.0" text-anchor="end" font-size="18" font-weight="800" fill="var(--accent-1)" opacity="0.70">01</text>
    </g>
    <g filter="url(#svg8428ee10-shadow)">
      <line x1="404.0" y1="374.0" x2="420.0" y2="374.0" stroke="var(--accent-2)" stroke-width="5" opacity="0.76" stroke-linecap="round"/>
      <rect id="ITEM_2_BG" x="420.0" y="308.0" width="1085" height="152" rx="22" fill="var(--panel)" fill-opacity="0.97" stroke="var(--accent-2)" stroke-width="2.5"/>
      <rect x="420.0" y="308.0" width="1085" height="152" rx="16" fill="url(#svg8428ee10-universal-surface-sheen)" opacity="0.88"/>
      <rect x="420.0" y="308.0" width="14" height="132" rx="7" fill="var(--accent-2)" fill-opacity="0.90"/>
      <circle id="ITEM_2_PAD" cx="360" cy="374.0" r="46" fill="var(--icon-pad-bg)" opacity="0.95" fill-opacity="0.9" stroke-width="2" stroke="var(--primary-text)"/>
      <circle id="ITEM_2_PAD_INNER" cx="360" cy="374.0" r="35.88" fill="var(--accent-4)" fill-opacity="0.22"/>
      <circle cx="360" cy="374.0" r="38" fill="none" stroke="var(--accent-2)" stroke-width="3" stroke-dasharray="6 4"/>
      <g id="ITEM_2_ICON" transform="translate(324, 338.0)" data-icon-size="72" stroke-dasharray="6 4">
        <g transform="translate(-3.7241379310344813,-3.7241379310344827) scale(3.310344827586207)" vector-effect="non-scaling-stroke" stroke-width="2.58" stroke-linecap="round" stroke-linejoin="round" stroke-opacity="1.0">
          <path d="M12 2L7 6.64286C7 6.64286 10.0424 7 12 7C13.9576 7 17 6.64286 17 6.64286L12 2Z" stroke="#f1f5f9" vector-effect="non-scaling-stroke" fill="none"/>
          <path d="M8.5 7L5 10.9394C5 10.9394 7.625 12 12 12C16.375 12 19 10.9394 19 10.9394L15.5 7" stroke="#f1f5f9" vector-effect="non-scaling-stroke" fill="none"/>
          <path d="M6.5 11.5L3 15.5231C3 15.5231 5.7 18 12 18C18.3 18 21 15.5231 21 15.5231L17.5 11.5" stroke="#f1f5f9" vector-effect="non-scaling-stroke" fill="none"/>
          <path d="M12 22L12 19" stroke="#f1f5f9" vector-effect="non-scaling-stroke" fill="none"/>
        </g>
      </g>
      <text id="ITEM_2_HEAD" x="500.0" y="326.0" text-anchor="start" font-weight="800" font-size="30" fill="var(--primary-text)" data-bg-id="ITEM_2_BG" fill-opacity="1.0" style="font-size: 30px; font-family: Inter, Segoe UI, Kalam, Roboto, Helvetica, Arial, sans-serif; font-weight: 700; letter-spacing:-0.4px;" data-final-font-size="30">
        <tspan x="500.0" dy="24.25px">Sherwood Forest</tspan>
      </text>
      <rect id="ITEM_2_HEAD_FRAME" x="500" y="326.0" width="760" height="32" fill="none"/>
      <text id="ITEM_2_BODY" x="500.0" y="364.0" text-anchor="start" font-size="24" fill="var(--primary-text)" data-bg-id="ITEM_2_BG" style="font-size: 26px; font-family: Inter, Segoe UI, Kalam, Roboto, Helvetica, Arial, sans-serif; font-weight: 400;" data-final-font-size="26">
        <tspan x="500.0" dy="29.22px">Provides a real setting for the outlaw's world</tspan>
      </text>
      <rect id="ITEM_2_BODY_FRAME" x="500" y="364.0" width="860" height="72" fill="none"/>
      <text x="1460" y="350.0" text-anchor="end" font-size="18" font-weight="800" fill="var(--accent-2)" opacity="0.70">02</text>
    </g>
    <g filter="url(#svg8428ee10-shadow)">
      <line x1="404.0" y1="508.0" x2="420.0" y2="508.0" stroke="var(--accent-3)" stroke-width="5" opacity="0.76" stroke-linecap="round"/>
      <rect id="ITEM_3_BG" x="420.0" y="442.0" width="1085" height="152" rx="22" fill="var(--panel)" fill-opacity="0.97" stroke="var(--accent-3)" stroke-width="2.5"/>
      <rect x="420.0" y="442.0" width="1085" height="152" rx="16" fill="url(#svg8428ee10-universal-surface-sheen)" opacity="0.88"/>
      <rect x="420.0" y="442.0" width="14" height="132" rx="7" fill="var(--accent-3)" fill-opacity="0.90"/>
      <circle id="ITEM_3_PAD" cx="360" cy="508.0" r="46" fill="var(--icon-pad-bg)" opacity="0.95" fill-opacity="0.9" stroke-width="2" stroke="var(--primary-text)"/>
      <circle id="ITEM_3_PAD_INNER" cx="360" cy="508.0" r="35.88" fill="var(--accent-5)" fill-opacity="0.22"/>
      <circle cx="360" cy="508.0" r="38" fill="none" stroke="var(--accent-3)" stroke-width="3" stroke-dasharray="6 4"/>
      <g id="ITEM_3_ICON" transform="translate(324, 472.0)" data-icon-size="72" stroke-dasharray="6 4">
        <g transform="translate(-3.7241379310344858,-3.724137931034483) scale(0.15517241379310345)" vector-effect="non-scaling-stroke" fill="#f1f5f9" fill-opacity="1.0" stroke="none">
          <path fill="#f1f5f9" d="M92.239 26.432c-4.705.09-9.496.87-14.37 2.473c-19.773 6.506-41.557 59.364-7.411 112.912c9.221 14.46-41 39.289-31.803 67.056c12.387 37.399 99.437 19.933 112.104 42.211c6.44 11.328-79.773 49.284-49.663 81.625c37.951 40.763 76.062 14.109 138.553 23.864c24.685 3.853-26.357 63.343 11.031 86.498c39.948 24.739 118.742 1.986 160.846-20.254a20577 20577 0 0 0-30.19-36.098c-33.45 10.371-71.807 15.824-106.036 13.664c36.092-6.615 65.118-14.246 94.8-27.025c-21.566-25.637-43.299-51.22-65.357-76.479c-36.846 7.379-103.783 18.406-166.793 13.88c8.83-1.316 110.772-14.937 154.935-27.38a3178 3178 0 0 0-24.357-27.318a6823 6823 0 0 0-27.935-35.486a6486 6486 0 0 0-15.413-19.34l-.115.658c-31.187 1.8-90.154 3.052-142.9-10.709c7.477.02 92.983 1.716 132.031-3.637c-16.65-20.699-32.746-40.434-46.473-56.795c-7.035-8.385-13.392-15.81-19.011-22.209l.05-.056c25.401 23.275 50.132 47.542 74.329 72.506c15.57-24.254 32.931-56.653 41.664-80.655c1.469 29.363-15.963 66.66-27.586 95.325c22.456 23.61 44.458 47.79 66.125 72.287c20.118-23.976 44.105-60.316 54.869-83.707c-3.957 26.047-31.834 67.188-44.936 94.982c25.142 28.669 49.84 57.727 74.266 86.8c13.506-17.48 28.29-40.286 35.822-57.296c1.32 21.671-14.607 49.312-24.892 70.281l-.05-.014c9.624 11.49 19.211 22.974 28.766 34.428c3.016-2.12 5.604-4.173 7.582-6.095c31.459-30.573 36.26-79.699 17.842-116.51c-12.519-25.021-70.096-8.654-77.265-23.846c-9.068-19.214 51.563-76.204 28.146-104.902c-16.456-20.168-75.04 1.983-85.264-16.182c-16.343-29.04 28.13-74.832-21.763-99.244c-26.468-12.95-46.397 5.349-88.338 44.103c-21.236 19.623-62.13-63.165-113.828-64.312a49 49 0 0 0-2.012-.004m345.39 402.365l-13.982 11.336l36.848 45.444l13.98-11.336l-36.845-45.444z" vector-effect="non-scaling-stroke" stroke="none"/>
        </g>
      </g>
      <text id="ITEM_3_HEAD" x="500.0" y="460.0" text-anchor="start" font-weight="800" font-size="30" fill="var(--primary-text)" data-bg-id="ITEM_3_BG" fill-opacity="1.0" style="font-size: 30px; font-family: Inter, Segoe UI, Kalam, Roboto, Helvetica, Arial, sans-serif; font-weight: 700; letter-spacing:-0.4px;" data-final-font-size="30">
        <tspan x="500.0" dy="24.25px">Major Oak</tspan>
      </text>
      <rect id="ITEM_3_HEAD_FRAME" x="500" y="460.0" width="760" height="32" fill="none"/>
      <text id="ITEM_3_BODY" x="500.0" y="498.0" text-anchor="start" font-size="24" fill="var(--primary-text)" data-bg-id="ITEM_3_BG" style="font-size: 26px; font-family: Inter, Segoe UI, Kalam, Roboto, Helvetica, Arial, sans-serif; font-weight: 400;" data-final-font-size="26">
        <tspan x="500.0" dy="29.22px">Ancient tree turned into a national symbol</tspan>
      </text>
      <rect id="ITEM_3_BODY_FRAME" x="500" y="498.0" width="860" height="72" fill="none"/>
      <text x="1460" y="484.0" text-anchor="end" font-size="18" font-weight="800" fill="var(--accent-3)" opacity="0.70">03</text>
    </g>
    <g filter="url(#svg8428ee10-shadow)">
      <line x1="404.0" y1="642.0" x2="420.0" y2="642.0" stroke="var(--accent-4)" stroke-width="5" opacity="0.76" stroke-linecap="round"/>
      <rect id="ITEM_4_BG" x="420.0" y="576.0" width="1085" height="152" rx="22" fill="var(--panel)" fill-opacity="0.97" stroke="var(--accent-4)" stroke-width="2.5"/>
      <rect x="420.0" y="576.0" width="1085" height="152" rx="16" fill="url(#svg8428ee10-universal-surface-sheen)" opacity="0.88"/>
      <rect x="420.0" y="576.0" width="14" height="132" rx="7" fill="var(--accent-4)" fill-opacity="0.90"/>
      <circle id="ITEM_4_PAD" cx="360" cy="642.0" r="46" fill="var(--icon-pad-bg)" opacity="0.95" fill-opacity="0.9" stroke-width="2" stroke="var(--primary-text)"/>
      <circle id="ITEM_4_PAD_INNER" cx="360" cy="642.0" r="35.88" fill="var(--accent-6)" fill-opacity="0.22"/>
      <circle cx="360" cy="642.0" r="38" fill="none" stroke="var(--accent-4)" stroke-width="3" stroke-dasharray="6 4"/>
      <g id="ITEM_4_ICON" transform="translate(324, 606.0)" data-icon-size="72" stroke-dasharray="6 4">
        <g transform="translate(-6.666666666666666,-6.666666666666666) scale(3.5555555555555554)" vector-effect="non-scaling-stroke" stroke-width="2.58" stroke-linecap="round" stroke-linejoin="round" stroke-opacity="1.0">
          <path d="M14.42 9.058l-5.362 5.363a1.978 1.978 0 0 1 -3.275 -.773l-2.682 -8.044a1.978 1.978 0 0 1 2.502 -2.502l8.045 2.682a1.978 1.978 0 0 1 .773 3.274z" vector-effect="non-scaling-stroke" fill="none" stroke="#f1f5f9"/>
          <path d="M10 10l6.5 6.5" vector-effect="non-scaling-stroke" fill="none" stroke="#f1f5f9"/>
          <path d="M19.347 16.575l1.08 1.079a1.96 1.96 0 0 1 -2.773 2.772l-1.08 -1.079a1.96 1.96 0 0 1 2.773 -2.772z" vector-effect="non-scaling-stroke" fill="none" stroke="#f1f5f9"/>
        </g>
      </g>
      <text id="ITEM_4_HEAD" x="500.0" y="594.0" text-anchor="start" font-weight="800" font-size="30" fill="var(--accent-6)" data-bg-id="ITEM_4_BG" fill-opacity="1.0" style="font-size: 30px; font-family: Inter, Segoe UI, Kalam, Roboto, Helvetica, Arial, sans-serif; font-weight: 700; letter-spacing:-0.4px;" data-final-font-size="30">
        <tspan x="500.0" dy="24.25px">Archaeological Layers</tspan>
      </text>
      <rect id="ITEM_4_HEAD_FRAME" x="500" y="594.0" width="760" height="32" fill="none"/>
      <text id="ITEM_4_BODY" x="500.0" y="632.0" text-anchor="start" font-size="24" fill="var(--primary-text)" data-bg-id="ITEM_4_BG" style="font-size: 26px; font-family: Inter, Segoe UI, Kalam, Roboto, Helvetica, Arial, sans-serif; font-weight: 400;" data-final-font-size="26">
        <tspan x="500.0" dy="29.22px">High-status settlements provide physical evidence of history</tspan>
      </text>
      <rect id="ITEM_4_BODY_FRAME" x="500" y="632.0" width="860" height="72" fill="none"/>
      <text x="1460" y="618.0" text-anchor="end" font-size="18" font-weight="800" fill="var(--accent-4)" opacity="0.70">04</text>
    </g>
    <g filter="url(#svg8428ee10-shadow)">
      <line x1="404.0" y1="776.0" x2="420.0" y2="776.0" stroke="var(--accent-5)" stroke-width="5" opacity="0.76" stroke-linecap="round"/>
      <rect id="ITEM_5_BG" x="420.0" y="710.0" width="1085" height="152" rx="22" fill="var(--panel)" fill-opacity="0.97" stroke="var(--accent-5)" stroke-width="2.5"/>
      <rect x="420.0" y="710.0" width="1085" height="152" rx="16" fill="url(#svg8428ee10-universal-surface-sheen)" opacity="0.88"/>
      <rect x="420.0" y="710.0" width="14" height="132" rx="7" fill="var(--accent-5)" fill-opacity="0.90"/>
      <circle id="ITEM_5_PAD" cx="360" cy="776.0" r="46" fill="var(--icon-pad-bg)" opacity="0.95" fill-opacity="0.9" stroke-width="2" stroke="var(--primary-text)"/>
      <circle id="ITEM_5_PAD_INNER" cx="360" cy="776.0" r="35.88" fill="var(--accent-1)" fill-opacity="0.22"/>
      <circle cx="360" cy="776.0" r="38" fill="none" stroke="var(--accent-5)" stroke-width="3" stroke-dasharray="6 4"/>
      <g id="ITEM_5_ICON" transform="translate(324, 740.0)" data-icon-size="72" stroke-dasharray="6 4">
        <g transform="translate(-3.050847457627119,-3.050847457627124) scale(3.2542372881355934)" vector-effect="non-scaling-stroke" stroke-width="2.58" stroke-linecap="round" stroke-linejoin="round" stroke-opacity="1.0">
          <path d="M12 13v8" vector-effect="non-scaling-stroke" fill="none" stroke="#f1f5f9"/>
          <path d="M12 3v3" vector-effect="non-scaling-stroke" fill="none" stroke="#f1f5f9"/>
          <path d="M18 6a2 2 0 0 1 1.387.56l2.307 2.22a1 1 0 0 1 0 1.44l-2.307 2.22A2 2 0 0 1 18 13H6a2 2 0 0 1-1.387-.56l-2.306-2.22a1 1 0 0 1 0-1.44l2.306-2.22A2 2 0 0 1 6 6z" vector-effect="non-scaling-stroke" fill="none" stroke="#f1f5f9"/>
        </g>
      </g>
      <text id="ITEM_5_HEAD" x="500.0" y="728.0" text-anchor="start" font-weight="800" font-size="30" fill="var(--primary-text)" data-bg-id="ITEM_5_BG" fill-opacity="1.0" style="font-size: 30px; font-family: Inter, Segoe UI, Kalam, Roboto, Helvetica, Arial, sans-serif; font-weight: 700; letter-spacing:-0.4px;" data-final-font-size="30">
        <tspan x="500.0" dy="24.25px">Tourism Infrastructure</tspan>
      </text>
      <rect id="ITEM_5_HEAD_FRAME" x="500" y="728.0" width="760" height="32" fill="none"/>
      <text id="ITEM_5_BODY" x="500.0" y="766.0" text-anchor="start" font-size="24" fill="var(--primary-text)" data-bg-id="ITEM_5_BG" style="font-size: 26px; font-family: Inter, Segoe UI, Kalam, Roboto, Helvetica, Arial, sans-serif; font-weight: 400;" data-final-font-size="26">
        <tspan x="500.0" dy="29.22px">Heritage projects keep legends alive for new visitors</tspan>
      </text>
      <rect id="ITEM_5_BODY_FRAME" x="500" y="766.0" width="860" height="72" fill="none"/>
      <text x="1460" y="752.0" text-anchor="end" font-size="18" font-weight="800" fill="var(--accent-5)" opacity="0.70">05</text>
    </g>
    <g filter="url(#svg8428ee10-shadow)">
      <line x1="404.0" y1="910.0" x2="420.0" y2="910.0" stroke="var(--accent-6)" stroke-width="5" opacity="0.76" stroke-linecap="round"/>
      <rect id="ITEM_6_BG" x="420.0" y="844.0" width="1085" height="152" rx="22" fill="var(--panel)" fill-opacity="0.97" stroke="var(--accent-6)" stroke-width="2.5"/>
      <rect x="420.0" y="844.0" width="1085" height="152" rx="16" fill="url(#svg8428ee10-universal-surface-sheen)" opacity="0.88"/>
      <rect x="420.0" y="844.0" width="14" height="132" rx="7" fill="var(--accent-6)" fill-opacity="0.90"/>
      <circle id="ITEM_6_PAD" cx="360" cy="910.0" r="46" fill="var(--icon-pad-bg)" opacity="0.95" fill-opacity="0.9" stroke-width="2" stroke="var(--primary-text)"/>
      <circle id="ITEM_6_PAD_INNER" cx="360" cy="910.0" r="35.88" fill="var(--accent-2)" fill-opacity="0.22"/>
      <circle cx="360" cy="910.0" r="38" fill="none" stroke="var(--accent-6)" stroke-width="3" stroke-dasharray="6 4"/>
      <g id="ITEM_6_ICON" transform="translate(324, 874.0)" data-icon-size="72" stroke-dasharray="6 4">
        <g transform="translate(-5.142857142857143,-5.142857142857143) scale(2.5714285714285716)" vector-effect="non-scaling-stroke" fill="#f1f5f9" fill-opacity="1.0" stroke="none">
          <path fill="#f1f5f9" d="M20 28V6l-4-4l-4 4v22H2v2h28v-2Zm-6 0V6.828l2-2l2 2V28Z" vector-effect="non-scaling-stroke" stroke="none"/>
        </g>
      </g>
      <text id="ITEM_6_HEAD" x="500.0" y="862.0" text-anchor="start" font-weight="800" font-size="30" fill="var(--accent-2)" data-bg-id="ITEM_6_BG" fill-opacity="1.0" style="font-size: 30px; font-family: Inter, Segoe UI, Kalam, Roboto, Helvetica, Arial, sans-serif; font-weight: 700; letter-spacing:-0.4px;" data-final-font-size="30">
        <tspan x="500.0" dy="24.25px">Cultural Meaning</tspan>
      </text>
      <rect id="ITEM_6_HEAD_FRAME" x="500" y="862.0" width="760" height="32" fill="none"/>
      <text id="ITEM_6_BODY" x="500.0" y="900.0" text-anchor="start" font-size="24" fill="var(--primary-text)" data-bg-id="ITEM_6_BG" style="font-size: 26px; font-family: Inter, Segoe UI, Kalam, Roboto, Helvetica, Arial, sans-serif; font-weight: 400;" data-final-font-size="26">
        <tspan x="500.0" dy="29.22px">Stories give the landscape a shared identity</tspan>
      </text>
      <rect id="ITEM_6_BODY_FRAME" x="500" y="900.0" width="860" height="72" fill="none"/>
      <text x="1460" y="886.0" text-anchor="end" font-size="18" font-weight="800" fill="var(--accent-6)" opacity="0.70">06</text>
    </g>
  </g>
</svg>
